<?xml version="1.0" encoding="UTF-8"?>
<svg width="24px" height="24px" viewBox="0 0 24 24" version="1.1" xmlns="http://www.w3.org/2000/svg" xmlns:xlink="http://www.w3.org/1999/xlink">
    <!-- Generator: sketchtool 62 (101010) - https://sketch.com -->
    <title>c3b094a1-a4c4-46d6-a928-417794c930f4@1.00x</title>
    <desc>Created with sketchtool.</desc>
    <g id="Icons" stroke="none" stroke-width="1" fill="none" fill-rule="evenodd">
        <g id="Icons/24/archive">
            <g id="archive-24px">
                <polygon id="Path" points="0 0 24 0 24 24 0 24"></polygon>
                <path d="M19.5911111,5.98222222 L18.3555556,4.48888889 C18.1155556,4.18666667 17.7511111,4 17.3333333,4 L6.66666667,4 C6.24888889,4 5.88444444,4.18666667 5.63555556,4.48888889 L4.40888889,5.98222222 C4.15111111,6.28444444 4,6.68444444 4,7.11111111 L4,18.2222222 C4,19.2 4.8,20 5.77777778,20 L18.2222222,20 C19.2,20 20,19.2 20,18.2222222 L20,7.11111111 C20,6.68444444 19.8488889,6.28444444 19.5911111,5.98222222 Z M12,16.8888889 L7.11111111,12 L10.2222222,12 L10.2222222,10.2222222 L13.7777778,10.2222222 L13.7777778,12 L16.8888889,12 L12,16.8888889 Z M5.88444444,5.77777778 L6.60444444,4.88888889 L17.2711111,4.88888889 L18.1066667,5.77777778 L5.88444444,5.77777778 Z" id="Shape" fill="currentColor"></path>
            </g>
        </g>
    </g>
</svg>