<?xml version="1.0" encoding="UTF-8"?>
<svg width="24px" height="24px" viewBox="0 0 24 24" version="1.1" xmlns="http://www.w3.org/2000/svg" xmlns:xlink="http://www.w3.org/1999/xlink">
    <title>44460466-1CFC-4945-B7C7-7E49514595AC@1x</title>
    <g id="Icons" stroke="none" stroke-width="1" fill="none" fill-rule="evenodd">
        <g id="Icons/area-chart">
            <g id="Group" fill="#000000" fill-opacity="0">
                <g id="Rectangle">
                    <rect x="0" y="0" width="24" height="24" rx="2"></rect>
                </g>
            </g>
            <g id="area" transform="translate(4.070469, 4.000000)" fill="currentColor">
                <path d="M0.49382716,1.77635684e-15 C0.76656037,1.77635684e-15 0.987654321,0.221093951 0.987654321,0.49382716 L0.987654321,0.49382716 L0.987654321,14.4691358 L15.5061728,14.4691358 C15.778906,14.4691358 16,14.6902298 16,14.962963 C16,15.2356962 15.778906,15.4567901 15.5061728,15.4567901 L15.5061728,15.4567901 L0.49382716,15.4567901 C0.221093951,15.4567901 2.48689958e-14,15.2356962 2.48689958e-14,14.962963 L2.48689958e-14,14.962963 L2.48689958e-14,0.49382716 C2.48689958e-14,0.221093951 0.221093951,1.77635684e-15 0.49382716,1.77635684e-15 Z M14.931358,3.43111111 L14.931358,13.2444444 L2.13333333,13.2444444 L2.13333333,8.99160494 L4.70123457,9.80740741 L7.71555556,6.91950617 L11.3224691,7.37185185 L14.931358,3.43111111 Z" id="Combined-Shape"></path>
            </g>
        </g>
    </g>
</svg>