<?xml version="1.0" encoding="UTF-8"?>
<svg width="24px" height="24px" viewBox="0 0 24 24" version="1.1" xmlns="http://www.w3.org/2000/svg" xmlns:xlink="http://www.w3.org/1999/xlink">
    <title>A55025D2-324E-447F-AC08-AF2696DC3234@1x</title>
    <g id="Icons" stroke="none" stroke-width="1" fill="none" fill-rule="evenodd">
        <g id="Icons/bar-chart">
            <g id="Group" fill="#000000" fill-opacity="0">
                <g id="Rectangle">
                    <rect x="0" y="0" width="24" height="24" rx="2"></rect>
                </g>
            </g>
            <g id="Group" transform="translate(4.000000, 4.000000)" fill="currentColor">
                <path d="M0.464265825,0 C0.720623724,0 0.928346018,0.207722294 0.928346018,0.464080193 L0.928346018,0.464080193 L0.928346018,15.0720252 L15.5359198,15.0720252 C15.7922777,15.0720252 16,15.2797475 16,15.5361054 C16,15.7924633 15.7922777,16.0001856 15.5359198,16.0001856 L15.5359198,16.0001856 L0.464080193,16.0001856 C0.207722294,16.0001856 0,15.7924633 0,15.5361054 L0,15.5361054 L0.000185632077,0.464080193 C0.000185632077,0.207722294 0.207907926,0 0.464265825,0 Z M4.6556525,9.54984221 C4.96324485,9.54984221 5.21254873,9.79933172 5.21254873,10.1067384 L5.21254873,10.1067384 L5.21254873,13.6337479 C5.21254873,13.9411546 4.96324485,14.1906441 4.6556525,14.1906441 L4.6556525,14.1906441 L2.42806757,14.1906441 C2.12066085,14.1906441 1.87117134,13.9411546 1.87117134,13.6337479 L1.87117134,13.6337479 L1.87117134,10.1067384 C1.87117134,9.79933172 2.12066085,9.54984221 2.42806757,9.54984221 L2.42806757,9.54984221 Z M9.29534063,3.05271951 C9.60274735,3.05271951 9.85223687,3.30202339 9.85223687,3.60961574 L9.85223687,3.60961574 L9.85223687,13.6337479 C9.85223687,13.9413403 9.60274735,14.1906441 9.29534063,14.1906441 L9.29534063,14.1906441 L7.06775571,14.1906441 C6.75997772,14.1906441 6.51085948,13.9413403 6.51085948,13.6337479 L6.51085948,13.6337479 L6.51085948,3.60961574 C6.51085948,3.30202339 6.76016336,3.05271951 7.06775571,3.05271951 L7.06775571,3.05271951 Z M13.9348431,6.76536105 C14.2422499,6.76536105 14.4917394,7.01466493 14.4917394,7.32225729 L14.4917394,7.32225729 L14.4917394,13.6337479 C14.4917394,13.9413403 14.2422499,14.1906441 13.9348431,14.1906441 L13.9348431,14.1906441 L11.7070726,14.1906441 C11.3996659,14.1906441 11.1501764,13.9413403 11.1501764,13.6337479 L11.1501764,13.6337479 L11.1501764,7.32225729 C11.1501764,7.01466493 11.3996659,6.76536105 11.7070726,6.76536105 L11.7070726,6.76536105 Z" id="Combined-Shape"></path>
            </g>
        </g>
    </g>
</svg>