<?xml version="1.0" encoding="UTF-8"?>
<svg width="24px" height="24px" viewBox="0 0 24 24" version="1.1" xmlns="http://www.w3.org/2000/svg" xmlns:xlink="http://www.w3.org/1999/xlink">
    <title>1166617A-A9B7-43F8-A0E2-5F3BB149B486@1x</title>
    <g id="Icons" stroke="none" stroke-width="1" fill="none" fill-rule="evenodd">
        <g id="Icons/bubble-chart">
            <g id="Group" fill="#000000" fill-opacity="0">
                <g id="Rectangle">
                    <rect x="0" y="0" width="24" height="24" rx="2"></rect>
                </g>
            </g>
            <g id="bubble" transform="translate(4.369798, 4.000000)" fill="currentColor">
                <path d="M1.68933797,-1.77635684e-15 C1.8182644,-1.77635684e-15 1.93248569,0.0583075735 2.01079908,0.148590268 L2.01079908,0.148590268 L3.25338306,1.39100326 C3.42026926,1.55806044 3.42026926,1.82873753 3.25338306,1.99562373 C3.16993997,2.07906682 3.0605064,2.12078837 2.95107283,2.12078837 C2.84163926,2.12078837 2.73220569,2.07906682 2.64876259,1.99562373 L2.64876259,1.99562373 L2.11664186,1.46367399 L2.11664186,13.8831871 L14.536155,13.8831871 L14.0040343,13.3510664 C13.8369771,13.1841802 13.8369771,12.9135031 14.0040343,12.7466169 C14.1709205,12.5795598 14.4414266,12.5795598 14.6084838,12.7466169 L14.6084838,12.7466169 L15.8508968,13.9892009 C15.9411795,14.0676853 16,14.1815646 16,14.310491 C16,14.4394175 15.9416924,14.5536387 15.8514097,14.6321231 L15.8514097,14.6321231 L14.6089967,15.8745361 C14.5253827,15.9579792 14.4161201,15.9997008 14.3066865,15.9997008 C14.1972529,15.9997008 14.0878194,15.9579792 14.0043763,15.8745361 C13.8373191,15.7076499 13.8373191,15.4371438 14.0043763,15.2700866 L14.0043763,15.2700866 L14.536326,14.7381369 L1.68933797,14.7381369 C1.45320085,14.7381369 1.2618631,14.5467991 1.2618631,14.310662 C1.2618631,14.3101491 1.26203409,14.3094651 1.26203409,14.3089521 L1.26203409,14.3089521 L1.26203409,1.46333201 L0.729913356,1.99545274 C0.64647026,2.07889583 0.537036691,2.12061738 0.427603122,2.12061738 C0.318169553,2.12061738 0.208735983,2.07889583 0.125292887,1.99545274 C-0.0417642957,1.82856654 -0.0417642957,1.55788945 0.125292887,1.39083227 L0.125292887,1.39083227 L1.36856083,0.147564328 C1.44704521,0.0577946037 1.56092452,-1.77635684e-15 1.68933797,-1.77635684e-15 Z M6.14431018,9.66674593 C6.97760587,9.66674593 7.65312551,10.3422656 7.65312551,11.1755613 C7.65312551,12.008857 6.97760587,12.6843766 6.14431018,12.6843766 C5.31101448,12.6843766 4.63549484,12.008857 4.63549484,11.1755613 C4.63549484,10.3422656 5.31101448,9.66674593 6.14431018,9.66674593 Z M12.7272523,8.76921967 C13.1981059,8.76921967 13.5798082,9.15092195 13.5798082,9.62177557 C13.5798082,10.0926292 13.1981059,10.4743315 12.7272523,10.4743315 C12.2563987,10.4743315 11.8746964,10.0926292 11.8746964,9.62177557 C11.8746964,9.15092195 12.2563987,8.76921967 12.7272523,8.76921967 Z M7.53975917,6.98682042 C7.84535129,6.98682042 8.09308265,7.23455178 8.09308265,7.5401439 C8.09308265,7.84573602 7.84535129,8.09346738 7.53975917,8.09346738 C7.23416705,8.09346738 6.98643569,7.84573602 6.98643569,7.5401439 C6.98643569,7.23455178 7.23416705,6.98682042 7.53975917,6.98682042 Z M4.14560863,3.68380752 C4.85255011,3.68380752 5.42563941,4.25689682 5.42563941,4.9638383 C5.42563941,5.67077978 4.85255011,6.24386908 4.14560863,6.24386908 C3.43866715,6.24386908 2.86557785,5.67077978 2.86557785,4.9638383 C2.86557785,4.25689682 3.43866715,3.68380752 4.14560863,3.68380752 Z M11.5481056,2.06179684 C12.491135,2.06179684 13.2556113,2.82627316 13.2556113,3.76930249 C13.2556113,4.71233183 12.491135,5.47680815 11.5481056,5.47680815 C10.6050763,5.47680815 9.84059996,4.71233183 9.84059996,3.76930249 C9.84059996,2.82627316 10.6050763,2.06179684 11.5481056,2.06179684 Z" id="Combined-Shape"></path>
            </g>
        </g>
    </g>
</svg>