<?xml version="1.0" encoding="UTF-8"?>
<svg width="24px" height="24px" viewBox="0 0 24 24" version="1.1" xmlns="http://www.w3.org/2000/svg" xmlns:xlink="http://www.w3.org/1999/xlink">
    <title>Icons/check Copy</title>
    <g id="Data-Access---Single" stroke="none" stroke-width="1" fill="none" fill-rule="evenodd">
        <g id="My-Requests-Detail" transform="translate(-821.000000, -356.000000)">
            <g id="edit-modal" transform="translate(640.000000, 0.000000)">
                <g id="Icons/check-Copy" transform="translate(181.000000, 356.000000)">
                    <g id="Group" fill="#000000" fill-opacity="0">
                        <g id="Rectangle">
                            <rect x="0" y="0" width="24" height="24" rx="2"></rect>
                        </g>
                    </g>
                    <g id="add_circle_outline-24px" transform="translate(4.000000, 4.000000)" fill="currentColor">
                        <path d="M8,0 C3.584,0 0,3.584 0,8 C0,12.416 3.584,16 8,16 C12.416,16 16,12.416 16,8 C16,3.584 12.416,0 8,0 Z M8,12 C5.795,12 4,10.205 4,8 C4,5.795 5.795,4 8,4 C10.205,4 12,5.795 12,8 C12,10.205 10.205,12 8,12 Z" id="Shape"></path>
                    </g>
                </g>
            </g>
        </g>
    </g>
</svg>