<?xml version="1.0" encoding="UTF-8" ?>
<svg width="32px" height="32px" viewBox="0 0 32 32" version="1.1" xmlns="http://www.w3.org/2000/svg" xmlns:xlink="http://www.w3.org/1999/xlink">
    <!-- Generator: sketchtool 63.1 (101010) - https://sketch.com -->
    <title>f2d91d94-ec3f-4909-82f1-96444f6957ca@1.00x</title>
    <desc>Created with sketchtool.</desc>
    <g id="Icons" stroke="none" stroke-width="1" fill="none" fill-rule="evenodd">
        <g id="Icons/32/Products/dagger/default" fill="currentColor">
            <g id="Group-12" transform="translate(6.000000, 7.000000)">
                <path d="M4.8353075,7.47431 L11.41281,14.0518275 L9.885345,15.5792925 L8.22531,13.91932 C7.1427925,14.80432 6.07785,15.7092975 5.05783,16.65932 L5.5702825,17.17182 L5.115325,17.6243025 C4.80228318,17.9380224 4.3773002,18.1143255 3.9341125,18.1143255 C3.4909248,18.1143255 3.06594182,17.9380224 2.7529,17.6243025 L1.312835,16.1868025 C0.662771487,15.5334489 0.662771487,14.4776386 1.312835,13.824285 L1.7677925,13.36933 L2.227875,13.82929 C3.18039,12.80683 4.0852975,11.7418275 4.967875,10.66181 L3.30784,9.00181 L4.8353075,7.47431 Z M18.4452825,0.4393075 C17.7873977,2.28512673 16.9290141,4.04879038 15.8877875,5.704285 C14.9243231,7.30698051 13.816403,8.81827068 12.57785,10.2193 C11.99533,10.8793 11.39035,11.5167825 10.792815,12.1593 L10.792815,12.1593 L9.12033,10.486815 L13.34787,5.604315 L8.4653,9.8317925 L6.730315,8.0968075 C7.3727725,7.4968075 8.010345,6.8918075 8.667815,6.3093075 C10.0689453,5.07159854 11.5802323,3.9644966 13.18283,3.0018075 C14.8383079,1.95833102 16.6029515,1.09905498 18.4452825,0.4393075 L18.4452825,0.4393075 Z" id="Combined-Shape"></path>
            </g>
        </g>
    </g>
</svg>