<?xml version="1.0" encoding="UTF-8"?>
<svg width="174px" height="188px" viewBox="0 0 174 188" version="1.1" xmlns="http://www.w3.org/2000/svg" xmlns:xlink="http://www.w3.org/1999/xlink">
  <!-- Generator: sketchtool 64 (101010) - https://sketch.com -->
  <title>218EE3BF-F53F-497A-BEFF-1FA04DC2B0F6@1.00x</title>
  <desc>Created with sketchtool.</desc>
  <defs>
    <path d="M100,120 C111.045695,120 120,111.045695 120,100 C120,88.954305 111.045695,80 100,80 C88.954305,80 80,88.954305 80,100 C80,111.045695 88.954305,120 100,120 Z" id="path-1"></path>
    <filter x="-17.5%" y="-12.5%" width="135.0%" height="135.0%" filterUnits="objectBoundingBox" id="filter-2">
      <feOffset dx="0" dy="2" in="SourceAlpha" result="shadowOffsetOuter1"></feOffset>
      <feGaussianBlur stdDeviation="2" in="shadowOffsetOuter1" result="shadowBlurOuter1"></feGaussianBlur>
      <feColorMatrix values="0 0 0 0 0   0 0 0 0 0   0 0 0 0 0  0 0 0 0.119208916 0" type="matrix" in="shadowBlurOuter1"></feColorMatrix>
    </filter>
    <circle id="path-3" cx="141.553439" cy="75.7226677" r="9.125"></circle>
    <filter x="-38.4%" y="-27.4%" width="176.7%" height="176.7%" filterUnits="objectBoundingBox" id="filter-4">
      <feOffset dx="0" dy="2" in="SourceAlpha" result="shadowOffsetOuter1"></feOffset>
      <feGaussianBlur stdDeviation="2" in="shadowOffsetOuter1" result="shadowBlurOuter1"></feGaussianBlur>
      <feColorMatrix values="0 0 0 0 0   0 0 0 0 0   0 0 0 0 0  0 0 0 0.119208916 0" type="matrix" in="shadowBlurOuter1"></feColorMatrix>
    </filter>
    <circle id="path-5" cx="169.863888" cy="59.8828038" r="4.5625"></circle>
    <filter x="-76.7%" y="-54.8%" width="253.4%" height="253.4%" filterUnits="objectBoundingBox" id="filter-6">
      <feOffset dx="0" dy="2" in="SourceAlpha" result="shadowOffsetOuter1"></feOffset>
      <feGaussianBlur stdDeviation="2" in="shadowOffsetOuter1" result="shadowBlurOuter1"></feGaussianBlur>
      <feColorMatrix values="0 0 0 0 0   0 0 0 0 0   0 0 0 0 0  0 0 0 0.119208916 0" type="matrix" in="shadowBlurOuter1"></feColorMatrix>
    </filter>
  </defs>
  <g id="Logo" stroke="none" stroke-width="1" fill="none" fill-rule="evenodd">
    <g id="logo_new_blue" transform="translate(-13.000000, -6.000000)">
      <rect id="Rectangle" x="0" y="0" width="200" height="200"></rect>
      <path d="M80.068645,11.4548017 L33.068645,38.466296 C20.6539333,45.6011877 13,58.8279241 13,73.1468538 L13,126.853146 C13,141.172076 20.6539333,154.398812 33.068645,161.533704 L80.068645,188.545198 C92.409751,195.637788 107.590249,195.637788 119.931355,188.545198 L166.931355,161.533704 C179.346067,154.398812 187,141.172076 187,126.853146 L187,73.1468538 C187,58.8279241 179.346067,45.6011877 166.931355,38.466296 L119.931355,11.4548017 C107.590249,4.36221209 92.409751,4.36221209 80.068645,11.4548017 Z" id="Path-Copy" fill="currentColor"></path>
      <g id="Oval">
        <use fill="black" fill-opacity="1" filter="url(#filter-2)" xlink:href="#path-1"></use>
        <use fill="#FFFFFF" fill-rule="evenodd" xlink:href="#path-1"></use>
      </g>
      <g id="Oval-Copy-19">
        <use fill="black" fill-opacity="1" filter="url(#filter-4)" xlink:href="#path-3"></use>
        <use fill="#FFFFFF" fill-rule="evenodd" xlink:href="#path-3"></use>
      </g>
      <g id="Oval-Copy-23">
        <use fill="black" fill-opacity="1" filter="url(#filter-6)" xlink:href="#path-5"></use>
        <use fill="#FFFFFF" fill-rule="evenodd" xlink:href="#path-5"></use>
      </g>
    </g>
  </g>
</svg>