<?xml version="1.0" encoding="UTF-8"?>
<svg width="24px" height="24px" viewBox="0 0 24 24" version="1.1" xmlns="http://www.w3.org/2000/svg" xmlns:xlink="http://www.w3.org/1999/xlink">
    <title>A612585C-CEE8-435E-BCE6-F9388600147A@1x</title>
    <g id="Icons" stroke="none" stroke-width="1" fill="none" fill-rule="evenodd">
        <g id="Icons/history">
            <g id="Group" fill="#000000" fill-opacity="0">
                <g id="Rectangle">
                    <rect x="0" y="0" width="24" height="24" rx="2"></rect>
                </g>
            </g>
            <path d="M9.42333707,19.7330988 C9.51813059,19.2022551 10.0300156,18.8609984 10.5608593,18.9747506 L10.5608593,18.9747506 L10.9400333,19.0316267 C11.470877,19.1074616 11.8310924,19.6003878 11.7552576,20.1312315 C11.6983815,20.6241578 11.28129,20.9654145 10.8073224,20.9654145 C10.7504463,20.9654145 10.6935702,20.9464558 10.6556528,20.9464558 C10.5039832,20.9274971 10.3333548,20.9085384 10.1816852,20.8706209 C9.65084151,20.7758274 9.30958485,20.2639424 9.42333707,19.7330988 Z M14.2009303,18.7472462 C14.7128153,18.5766179 15.2626177,18.8609984 15.3953286,19.3918421 C15.5659569,19.8847684 15.3005351,20.4345708 14.7886501,20.6051991 C14.6369804,20.6431165 14.4853108,20.6999926 14.3336412,20.73791 C14.2578064,20.7568687 14.1630129,20.7758274 14.0871781,20.7758274 C13.6700866,20.7758274 13.2719538,20.4914469 13.1582016,20.0553967 C13.0254907,19.524553 13.3288299,18.9937093 13.8407149,18.8609984 L13.8407149,18.8609984 Z M6.23827494,17.7424349 C6.57953159,17.3253435 7.18621009,17.2684673 7.60330157,17.5907653 L7.60330157,17.5907653 L7.88768211,17.799311 C8.32373229,18.1026503 8.4185258,18.7093288 8.11518655,19.145379 C7.92559952,19.4297595 7.62226027,19.5624704 7.31892102,19.5624704 C7.12933399,19.5624704 6.93974695,19.5055943 6.76911862,19.3918421 L6.76911862,19.3918421 L6.38994456,19.1074616 C5.97285309,18.7662049 5.91597698,18.1595264 6.23827494,17.7424349 Z M5.97285309,5.32448433 C9.51813059,2.13942219 14.9592784,2.21525701 18.371845,5.62782358 C21.8792051,9.15414237 21.8792051,14.8796707 18.3528863,18.4059895 C18.2580928,18.5197418 18.1443405,18.633494 18.0305883,18.7282875 C17.8410013,18.8989158 17.6134969,18.9747506 17.3859924,18.9747506 C17.1205706,18.9747506 16.8551487,18.8609984 16.6655617,18.6524527 C16.324305,18.2543199 16.3432637,17.6476414 16.7413965,17.287426 L16.7413965,17.287426 L17.0068183,17.0409629 C19.774789,14.2729922 19.774789,9.76082088 17.0257771,7.01180891 C14.3715586,4.35759047 10.1437678,4.28175565 7.35683842,6.70846966 L7.35683842,6.70846966 L8.3995671,7.75119834 C8.70290635,8.05453759 8.55123672,8.58538128 8.13414525,8.6801748 L8.13414525,8.6801748 L3.69780871,9.76082088 C3.28071724,9.85561439 2.92050188,9.47644033 3.01529539,9.07830756 L3.01529539,9.07830756 L4.09594147,4.64197101 C4.19073499,4.22487954 4.72157868,4.07320992 5.02491793,4.37654917 L5.02491793,4.37654917 Z M4.2665698,14.5573728 C4.75949609,14.3298683 5.32825718,14.5384141 5.55576162,15.0313404 L5.55576162,15.0313404 L5.70743125,15.372597 C5.95389439,15.8465646 5.78326606,16.4342844 5.30929848,16.6807475 C5.15762885,16.7565824 5.00595923,16.7944998 4.8542896,16.7944998 C4.51303294,16.7944998 4.17177629,16.6049127 4.00114796,16.2826148 C3.92531315,16.1309452 3.86843704,15.9982342 3.79260222,15.8465646 C3.56509779,15.3536383 3.77364352,14.7848772 4.2665698,14.5573728 Z M11.982762,6.97389151 C12.5136057,6.97389151 12.9496559,7.40994168 12.9496559,7.94078537 L12.9496559,7.94078537 L12.9496559,11.4671042 L15.1678241,12.8890069 C15.6038743,13.1733875 15.7365852,13.7611073 15.4522047,14.1971574 C15.2626177,14.5004967 14.9592784,14.6521663 14.6369804,14.6521663 C14.4663521,14.6521663 14.2767651,14.5952902 14.1250955,14.5004967 L14.1250955,14.5004967 L11.470877,12.8131721 C11.1864965,12.6425438 11.0158681,12.3202458 11.0158681,11.9979479 L11.0158681,11.9979479 L11.0158681,7.94078537 C11.0158681,7.40994168 11.4519183,6.97389151 11.982762,6.97389151 Z" id="Combined-Shape" fill="currentColor"></path>
        </g>
    </g>
</svg>