<?xml version="1.0" encoding="UTF-8"?>
<svg width="32px" height="32px" viewBox="0 0 32 32" version="1.1" xmlns="http://www.w3.org/2000/svg" xmlns:xlink="http://www.w3.org/1999/xlink">
    <title>3d305214-b7e3-42ab-a0fd-68eb70dd7625@1.00x</title>
    <g id="Icons" stroke="none" stroke-width="1" fill="none" fill-rule="evenodd">
        <g id="Icons/32/Products/iam/default" fill="currentColor">
            <g id="Group-18" transform="translate(7.000000, 7.000000)">
                <path d="M9.2491675,0.739159106 C9.28951257,0.739159106 9.32920377,0.749349822 9.3644025,0.7690675 C11.7839949,2.07869134 14.4685076,2.8239772 17.21694,2.9491225 C17.3522155,2.95626775 17.4578817,3.06865881 17.4566877,3.2041175 C17.3219125,8.4190825 15.871715,12.6466225 13.2843125,15.441545 C12.1969472,16.6451879 10.8422642,17.5768251 9.329235,18.161515 C9.30269564,18.1705829 9.27475066,18.1748405 9.246715,18.1741725 C9.22137842,18.1744148 9.19612949,18.171046 9.171765,18.1640875 C7.8143425,17.7215825 0.7818725,14.8415775 0.456580571,3.214015 C0.454810775,3.1468903 0.479972293,3.08182659 0.526516151,3.03342329 C0.573060009,2.98501999 0.63708868,2.95733033 0.704235,2.9565675 C3.64855182,2.91656237 6.53966414,2.16612533 9.131735,0.7690675 C9.16783162,0.749612215 9.20816211,0.739340917 9.2491675,0.739159106 Z M9.24672,2.671545 C7.06069722,3.73545172 4.70028253,4.39523635 2.279435,4.619045 C2.6017025,8.4341075 3.7594175,11.494045 5.73427,13.7291525 C6.69327195,14.8399646 7.88583528,15.7251936 9.2267075,16.3215575 C10.2773045,15.8123003 11.2222541,15.109179 12.0118625,14.24917 C14.079245,12.0166275 15.3243625,8.68667 15.64174,4.566565 C13.4196156,4.29443931 11.2583548,3.65399842 9.24672,2.671545 Z M10.187945,8.970835 C11.4214109,8.94843504 12.4398179,9.92955163 12.463425,11.162995 L12.463425,11.6042975 C10.4145813,13.2398475 7.50660375,13.2398475 5.45776,11.6042975 L5.45776,11.162995 C5.48136708,9.92955063 6.49977565,8.94843365 7.7332425,8.970835 L10.187945,8.970835 Z M8.9605925,4.8071625 C9.97134263,4.8071625 10.7907175,5.62653737 10.7907175,6.6372875 C10.7907175,7.64803763 9.97134263,8.4674125 8.9605925,8.4674125 C7.94984237,8.4674125 7.1304675,7.64803763 7.1304675,6.6372875 C7.1304675,5.62653737 7.94984237,4.8071625 8.9605925,4.8071625 Z" id="Combined-Shape"></path>
            </g>
        </g>
    </g>
</svg>
