<?xml version="1.0" encoding="UTF-8"?>
<svg width="32px" height="32px" viewBox="0 0 32 32" version="1.1" xmlns="http://www.w3.org/2000/svg" xmlns:xlink="http://www.w3.org/1999/xlink">
    <!-- Generator: sketchtool 64 (101010) - https://sketch.com -->
    <title>b991b6c8-fc9e-4df8-b893-ddb05f8d729d@1.00x</title>
    <desc>Created with sketchtool.</desc>
    <g id="Icons" stroke="none" stroke-width="1" fill="none" fill-rule="evenodd">
        <g id="Icons/32/copy">
            <g id="file_copy-24px" transform="translate(6.000000, 6.000000)">
                <polygon id="Path" points="0 0 20 0 20 20 0 20"></polygon>
                <path d="M13.3333333,0.833333333 L3.33333333,0.833333333 C2.41666667,0.833333333 1.66666667,1.58333333 1.66666667,2.5 L1.66666667,14.1666667 L3.33333333,14.1666667 L3.33333333,2.5 L13.3333333,2.5 L13.3333333,0.833333333 Z M12.5,4.16666667 L6.66666667,4.16666667 C5.75,4.16666667 5.00833333,4.91666667 5.00833333,5.83333333 L5,17.5 C5,18.4166667 5.74166667,19.1666667 6.65833333,19.1666667 L15.8333333,19.1666667 C16.75,19.1666667 17.5,18.4166667 17.5,17.5 L17.5,9.16666667 L12.5,4.16666667 Z M6.66666667,17.5 L6.66666667,5.83333333 L11.6666667,5.83333333 L11.6666667,10 L15.8333333,10 L15.8333333,17.5 L6.66666667,17.5 Z" id="Shape" fill="currentColor"></path>
            </g>
        </g>
    </g>
</svg>