<?xml version="1.0" encoding="UTF-8"?>
<svg width="24px" height="24px" viewBox="0 0 24 24" version="1.1" xmlns="http://www.w3.org/2000/svg" xmlns:xlink="http://www.w3.org/1999/xlink">
    <title>7C658A99-56AF-4EFF-B05A-6E7EBCDDC3FF@1x</title>
    <g id="Icons" stroke="none" stroke-width="1" fill="none" fill-rule="evenodd">
        <g id="Icons/commit">
            <g id="Group" fill="#000000" fill-opacity="0">
                <g id="Rectangle">
                    <rect x="0" y="0" width="24" height="24" rx="2"></rect>
                </g>
            </g>
            <path d="M16.1684436,12.7777778 C15.8499042,14.7312404 14.1546264,16.2222222 12.1111111,16.2222222 C10.0675958,16.2222222 8.37231804,14.7312404 8.05377864,12.7777778 L2.77777778,12.7777778 C2.34822297,12.7777778 2,12.4295548 2,12 C2,11.5704452 2.34822297,11.2222222 2.77777778,11.2222222 L8.09634929,11.2222222 C8.50260536,9.37902836 10.1458136,8 12.1111111,8 C14.0764086,8 15.7196169,9.37902836 16.1258729,11.2222222 L21.2222222,11.2222222 C21.651777,11.2222222 22,11.5704452 22,12 C22,12.4295548 21.651777,12.7777778 21.2222222,12.7777778 L16.1684436,12.7777778 Z M12.1111111,14.6666667 C13.5225055,14.6666667 14.6666667,13.5225055 14.6666667,12.1111111 C14.6666667,10.6997168 13.5225055,9.55555556 12.1111111,9.55555556 C10.6997168,9.55555556 9.55555556,10.6997168 9.55555556,12.1111111 C9.55555556,13.5225055 10.6997168,14.6666667 12.1111111,14.6666667 Z" id="Shape" fill="currentColor"></path>
        </g>
    </g>
</svg>