<?xml version="1.0" encoding="UTF-8"?>
<svg width="24px" height="24px" viewBox="0 0 24 24" version="1.1" xmlns="http://www.w3.org/2000/svg" xmlns:xlink="http://www.w3.org/1999/xlink">
    <!-- Generator: sketchtool 63.1 (101010) - https://sketch.com -->
    <title>c66effc6-39f5-4365-8b0b-4611de247864@1.00x</title>
    <desc>Created with sketchtool.</desc>
    <g id="Icons" stroke="none" stroke-width="1" fill="none" fill-rule="evenodd">
        <g id="Icons/24/key">
            <g id="vpn_key-24px">
                <polygon id="Path" points="0 0 24 0 24 24 0 24"></polygon>
                <path d="M12.5318182,10.2727273 C11.8609091,8.36636364 10.0445455,7 7.90909091,7 C5.20090909,7 3,9.20090909 3,11.9090909 C3,14.6172727 5.20090909,16.8181818 7.90909091,16.8181818 C10.0445455,16.8181818 11.8609091,15.4518182 12.5318182,13.5454545 L16.0909091,13.5454545 L16.0909091,16.8181818 L19.3636364,16.8181818 L19.3636364,13.5454545 L21,13.5454545 L21,10.2727273 L12.5318182,10.2727273 Z M7.90909091,13.5454545 C7.00909091,13.5454545 6.27272727,12.8090909 6.27272727,11.9090909 C6.27272727,11.0090909 7.00909091,10.2727273 7.90909091,10.2727273 C8.80909091,10.2727273 9.54545455,11.0090909 9.54545455,11.9090909 C9.54545455,12.8090909 8.80909091,13.5454545 7.90909091,13.5454545 Z" id="Shape" fill="currentColor"></path>
            </g>
        </g>
    </g>
</svg>