<?xml version="1.0" encoding="UTF-8" ?>
<svg width="20px" height="20px" viewBox="0 0 24 24" version="1.1" xmlns="http://www.w3.org/2000/svg" xmlns:xlink="http://www.w3.org/1999/xlink">
    <!-- Generator: sketchtool 61.2 (101010) - https://sketch.com -->
    <title>db783a2c-1750-4b55-8295-dfa5d7e7ae7d@1.00x</title>
    <desc>Created with sketchtool.</desc>
    <g id="Icons" stroke="none" stroke-width="1" fill="none" fill-rule="evenodd">
        <g id="Icons/24/launch">
            <g id="launch-24px">
                <polygon id="Path" points="0 0 24 0 24 24 0 24"></polygon>
                <path d="M18.2222222,18.2222222 L5.77777778,18.2222222 L5.77777778,5.77777778 L12,5.77777778 L12,4 L5.77777778,4 C4.79111111,4 4,4.8 4,5.77777778 L4,18.2222222 C4,19.2 4.79111111,20 5.77777778,20 L18.2222222,20 C19.2,20 20,19.2 20,18.2222222 L20,12 L18.2222222,12 L18.2222222,18.2222222 Z M13.7777778,4 L13.7777778,5.77777778 L16.9688889,5.77777778 L8.23111111,14.5155556 L9.48444444,15.7688889 L18.2222222,7.03111111 L18.2222222,10.2222222 L20,10.2222222 L20,4 L13.7777778,4 Z" id="Shape" fill="currentColor"></path>
            </g>
        </g>
    </g>
</svg>