<?xml version="1.0" encoding="UTF-8"?>
<svg width="24px" height="24px" viewBox="0 0 24 24" version="1.1" xmlns="http://www.w3.org/2000/svg" xmlns:xlink="http://www.w3.org/1999/xlink">
    <title>3EEB7784-DE2F-4CF0-8CB5-DD90F07687A0@1x</title>
    <g id="Icons" stroke="none" stroke-width="1" fill="none" fill-rule="evenodd">
        <g id="Icons/line-chart">
            <g id="Group" fill="#000000" fill-opacity="0">
                <g id="Rectangle">
                    <rect x="0" y="0" width="24" height="24" rx="2"></rect>
                </g>
            </g>
            <g id="Group" transform="translate(4.000000, 4.000000)" fill="currentColor">
                <path d="M1.68933797,-3.31018903e-15 C1.8182644,-3.31018903e-15 1.93248569,0.0583075735 2.01079908,0.148590268 L2.01079908,0.148590268 L3.25338306,1.39100326 C3.42026926,1.55806044 3.42026926,1.82873753 3.25338306,1.99562373 C3.16993997,2.07906682 3.0605064,2.12078837 2.95107283,2.12078837 C2.84163926,2.12078837 2.73220569,2.07906682 2.64876259,1.99562373 L2.64876259,1.99562373 L2.11664186,1.46367399 L2.11664186,13.8831871 L14.536155,13.8831871 L14.0040343,13.3510664 C13.8369771,13.1841802 13.8369771,12.9135031 14.0040343,12.7466169 C14.1709205,12.5795598 14.4414266,12.5795598 14.6084838,12.7466169 L14.6084838,12.7466169 L15.8508968,13.9892009 C15.9411795,14.0676853 16,14.1815646 16,14.310491 C16,14.4394175 15.9416924,14.5536387 15.8514097,14.6321231 L15.8514097,14.6321231 L14.6089967,15.8745361 C14.5253827,15.9579792 14.4161201,15.9997008 14.3066865,15.9997008 C14.1972529,15.9997008 14.0878194,15.9579792 14.0043763,15.8745361 C13.8373191,15.7076499 13.8373191,15.4371438 14.0043763,15.2700866 L14.0043763,15.2700866 L14.536326,14.7381369 L1.68933797,14.7381369 C1.45320085,14.7381369 1.2618631,14.5467991 1.2618631,14.310662 C1.2618631,14.3101491 1.26203409,14.3094651 1.26203409,14.3089521 L1.26203409,14.3089521 L1.26203409,1.46333201 L0.729913356,1.99545274 C0.64647026,2.07889583 0.537036691,2.12061738 0.427603122,2.12061738 C0.318169553,2.12061738 0.208735983,2.07889583 0.125292887,1.99545274 C-0.0417642957,1.82856654 -0.0417642957,1.55788945 0.125292887,1.39083227 L0.125292887,1.39083227 L1.36856083,0.147564328 C1.44704521,0.0577946037 1.56092452,-3.31018903e-15 1.68933797,-3.31018903e-15 Z M13.7930327,2.87126327 C14.4044928,2.87126327 14.9020735,3.36884403 14.9020735,3.98030409 C14.9020735,4.59176416 14.4044928,5.08934492 13.7930327,5.08934492 C13.6964234,5.08934492 13.6030629,5.07566573 13.5138061,5.05241109 L13.5138061,5.05241109 L11.9817361,7.9349597 C12.2122306,8.13826675 12.358598,8.43493432 12.358598,8.76579987 C12.358598,9.37725994 11.8610172,9.8748407 11.2495572,9.8748407 C10.6380971,9.8748407 10.1405163,9.37725994 10.1405163,8.76579987 C10.1405163,8.67910797 10.1516307,8.59498091 10.1704396,8.51393167 L10.1704396,8.51393167 L7.30481898,7.08394271 C7.10134094,7.32709042 6.79578189,7.48217831 6.45465694,7.48217831 C6.33923872,7.48217831 6.22775327,7.46422436 6.12293643,7.43139429 L6.12293643,7.43139429 L4.37661606,10.363701 C4.58436885,10.5652981 4.71397923,10.8469186 4.71397923,11.1584623 C4.71397923,11.7699223 4.21639847,12.2675031 3.6049384,12.2675031 C2.99347834,12.2675031 2.49589758,11.7699223 2.49589758,11.1584623 C2.49589758,10.5468312 2.99330735,10.0492504 3.6049384,10.0492504 C3.72035662,10.0492504 3.83184207,10.0672044 3.93665891,10.1000345 L3.93665891,10.1000345 L5.68263731,7.16772778 C5.4750555,6.96613063 5.34544512,6.68468117 5.34544512,6.37296649 C5.34544512,5.76150642 5.84302588,5.26392566 6.45448595,5.26392566 C7.06594602,5.26392566 7.56352677,5.76133543 7.56352677,6.37296649 C7.56352677,6.45965839 7.55258342,6.54378545 7.53360353,6.62483469 L7.53360353,6.62483469 L10.3993951,8.05482365 C10.6030442,7.81167594 10.9084322,7.65658806 11.2495572,7.65658806 C11.3463375,7.65658806 11.439527,7.67026725 11.5289547,7.69369288 L11.5289547,7.69369288 L13.0610247,4.81131526 C12.8303593,4.60800821 12.6839919,4.31134064 12.6839919,3.98030409 C12.6839919,3.36884403 13.1815726,2.87126327 13.7930327,2.87126327 Z M3.6049384,10.5622203 C3.27629572,10.5622203 3.00903842,10.8296486 3.00903842,11.1584623 C3.00903842,11.4872759 3.27646671,11.7545332 3.60510939,11.7545332 C3.93375208,11.7545332 4.20118037,11.4872759 4.20118037,11.1584623 C4.20118037,11.0360335 4.16390456,10.9224961 4.10046728,10.8275967 C4.00300301,10.6819133 3.84227246,10.584278 3.65828727,10.567521 C3.64050431,10.5659821 3.62323433,10.5622203 3.6049384,10.5622203 Z M11.2498991,8.16955791 C11.1120812,8.16955791 10.9865746,8.21846104 10.8855196,8.2972874 C10.7480436,8.40432711 10.6581029,8.56864846 10.6546831,8.75536949 C10.6546831,8.75878928 10.6538282,8.76220908 10.6536572,8.76579987 C10.6536572,9.09461355 10.9209145,9.36187084 11.2497282,9.36187084 C11.5785418,9.36187084 11.8457991,9.09461355 11.8457991,8.76579987 C11.8457991,8.63328266 11.8011707,8.51205078 11.7278161,8.4130476 C11.6238542,8.27266485 11.4607298,8.1799883 11.2748637,8.17212276 C11.2664852,8.17178078 11.2584486,8.16955791 11.2498991,8.16955791 Z M6.45482793,5.77672453 C6.12618524,5.77672453 5.85875696,6.04415281 5.85858597,6.37262451 C5.85858597,6.49488232 5.89586178,6.60859064 5.95929905,6.70331908 C6.05693431,6.8491735 6.21749388,6.94680877 6.40147906,6.96339479 C6.41926202,6.96510469 6.436532,6.96886647 6.45482793,6.96886647 C6.59247484,6.96886647 6.71798146,6.91996334 6.81903653,6.84113698 C6.95651245,6.73409727 7.04645316,6.56977592 7.04987296,6.3830549 C7.04987296,6.3796351 7.0508989,6.37638629 7.0508989,6.3727955 C7.0508989,6.04415281 6.78347062,5.77672453 6.45482793,5.77672453 Z M13.7933747,3.38406213 C13.464561,3.38406213 13.1973037,3.65149042 13.1973037,3.97996212 C13.1973037,4.11247933 13.2421031,4.2337112 13.3154578,4.33288538 C13.4194196,4.47326813 13.5825441,4.56577369 13.7684101,4.57363923 C13.7767886,4.57398121 13.7848252,4.57620408 13.7933747,4.57620408 C14.1221884,4.57620408 14.3894456,4.30877579 14.3894456,3.9801331 C14.3894456,3.65149042 14.1221884,3.38406213 13.7933747,3.38406213 Z" id="Combined-Shape"></path>
            </g>
        </g>
    </g>
</svg>