<?xml version="1.0" encoding="UTF-8"?>
<svg width="24px" height="24px" viewBox="0 0 24 24" version="1.1" xmlns="http://www.w3.org/2000/svg" xmlns:xlink="http://www.w3.org/1999/xlink">
    <title>1D527939-48D0-4C8A-BF99-1EDEB14EF465@1x</title>
    <g id="Icons" stroke="none" stroke-width="1" fill="none" fill-rule="evenodd">
        <g id="Icons/map-chart">
            <g id="Group" fill="#000000" fill-opacity="0">
                <g id="Rectangle">
                    <rect x="0" y="0" width="24" height="24" rx="2"></rect>
                </g>
            </g>
            <g id="map-chart" transform="translate(4.000000, 4.000000)" fill="currentColor">
                <path d="M4.67768813,0 C5.97079312,0 7.263675,0 8.55705625,0 C8.57023125,0.872514375 8.589675,1.74501813 8.5920125,2.61790437 C8.59296875,2.80556313 8.640675,2.92893 8.8210875,2.98744188 C9.248425,3.12647 9.670875,3.28300813 10.1049063,3.39612188 C10.3581,3.4620925 10.6395563,3.45408125 10.8899875,3.49712313 C11.5155875,3.60483938 12.8263937,3.94921687 12.8616687,3.94214062 C13.9624188,3.72484875 15.0406437,3.755045 16.090075,4.2030375 C16.2641125,4.27721063 16.3367875,4.35491125 16.3353,4.55096375 C16.3287125,5.18680625 16.34295,5.8225 16.3543187,6.4580875 C16.3559125,6.54956875 16.3687687,6.64838125 16.406275,6.73019375 C16.5194313,6.9795625 16.6427875,7.2243625 16.7716687,7.46586875 C16.8369062,7.588375 16.923075,7.6990875 17,7.815325 C17,8.00540625 17,8.1954875 17,8.38578125 C16.9439,8.74023125 16.8897125,9.095425 16.8317,9.4492375 C16.7715625,9.8177125 16.6647813,10.14305 16.237975,10.2557813 C16.0106,10.3158125 15.7979937,10.4312 15.5774188,10.5199188 C15.5564875,10.5284188 14.8973125,11.0906937 14.6873625,11.2342375 C14.3032688,11.4965688 12.9292438,12.0756313 12.8217187,12.0999625 C12.7502125,12.2543438 12.6906063,12.4222187 12.5996562,12.5716063 C12.4373063,12.8370188 12.2384062,13.081925 12.0893375,13.353925 C11.9874437,13.5397562 11.995625,13.8448 11.869825,14.1426187 C11.8450688,14.2007375 11.8033125,14.279575 11.8236062,14.3257938 C11.9983875,14.7203 11.9184875,15.2121313 12.2813312,15.5378938 C12.3142688,15.5682813 12.295675,15.6558313 12.3029,15.735625 C12.089975,15.735625 11.89235,15.7719625 11.7145937,15.7282938 C11.2375312,15.6125875 10.7705625,15.4586313 10.29775,15.3268813 C9.9345875,15.2257313 9.669175,15.0378812 9.56855625,14.6470938 C9.52478125,14.476775 9.42618125,14.3183563 9.33948125,14.1616375 C8.9073625,13.38155 8.3816375,12.6380125 8.06341875,11.8136188 C7.78440625,11.0914375 6.65008125,10.0915188 6.59546875,10.089075 C6.17001187,10.0718625 5.7643175,9.83821875 5.3071875,10.093325 C5.11095437,10.202125 4.98740687,10.2765 4.9497625,10.4863438 C4.93298563,10.579525 4.91994875,10.673875 4.89907062,10.7666313 C4.79992875,11.2016188 4.51984313,11.3426125 4.13017125,11.1418 C3.77796312,10.9602188 3.4223975,10.7807625 3.09050438,10.5657125 C2.94309312,10.4705125 2.81283062,10.3076313 2.7405275,10.1459188 C2.58213,9.79125625 2.48037437,9.41130625 2.32459062,9.05515625 C2.2610425,8.91001875 2.14158562,8.7397 2.005915,8.6859375 C1.6218425,8.53516875 1.36877625,8.253075 1.1211075,7.950475 C1.03165563,7.8410375 0.941088125,7.67836875 0.8266675,7.6534 C0.417435,7.56489375 0.244491875,7.22574375 0,6.95905625 C0,6.88319375 0,6.8070125 0,6.7309375 C1.41573875,6.72424375 2.83128625,6.70894375 4.24683375,6.71829375 C4.53549375,6.7201 4.60816875,6.64349375 4.6098475,6.35491875 C4.62103562,4.2369525 4.65252812,2.11847625 4.67768813,0 Z" id="Path"></path>
            </g>
        </g>
    </g>
</svg>