<?xml version="1.0" encoding="UTF-8"?>
<svg width="24px" height="24px" viewBox="0 0 24 24" version="1.1" xmlns="http://www.w3.org/2000/svg" xmlns:xlink="http://www.w3.org/1999/xlink">
    <title>C18DDFD7-42FF-431E-BE24-79A878C82D00@1x</title>
    <g id="Icons" stroke="none" stroke-width="1" fill="none" fill-rule="evenodd">
        <g id="Icons/pie-chart">
            <g id="Group" fill="#000000" fill-opacity="0">
                <g id="Rectangle">
                    <rect x="0" y="0" width="24" height="24" rx="2"></rect>
                </g>
            </g>
            <g id="Pie" transform="translate(4.000000, 4.000000)" fill="currentColor">
                <path d="M7.57744298,0.57147621 L7.57744298,8.14910975 L10.4597868,15.1539332 C9.57084499,15.5205621 8.59901149,15.7267433 7.57763354,15.7267433 C3.3926517,15.7267433 8.8817842e-16,12.3340916 8.8817842e-16,8.14910975 C8.8817842e-16,3.96412791 3.3926517,0.57147621 7.57744298,0.57147621 L7.57744298,0.57147621 Z M8.42236646,8.53022093 L8.86826654,8.7525993 L9.43993331,9.03843268 L11.1072947,9.87230394 L11.6789615,10.1581373 L12.2268088,10.4321563 L12.7984756,10.7179896 L13.3463229,10.9920086 L13.9179896,11.277842 L15.1998571,11.9186804 C15.148026,12.0219615 15.0939082,12.1239088 15.0376943,12.2243316 C14.8669565,12.52903 14.6758292,12.8201989 14.4660275,13.0968856 C14.2954803,13.3217412 14.1121658,13.5357351 13.9181802,13.7398202 C13.7369618,13.9307569 13.5467874,14.112928 13.3465134,14.2840469 C13.1706306,14.4343953 12.9878878,14.5771214 12.7986661,14.7112726 C12.6140177,14.8419937 12.4232716,14.9647115 12.2269993,15.0788543 C12.0490204,15.182326 11.8658965,15.2779849 11.679152,15.3671649 C11.5558626,15.4260466 11.4314298,15.4826416 11.3047103,15.5348538 L11.3047103,15.5348538 L11.1074853,15.0554159 L10.5596379,13.724004 L9.98797118,12.3348538 L9.44012386,11.0034419 L8.8684571,9.61410111 L8.42236646,8.53022093 Z M11.6789615,10.7976419 L11.6789615,14.7267076 C11.8672304,14.6278092 12.049211,14.5191925 12.2268088,14.4040969 L12.2268088,14.4040969 L12.2268088,11.0716608 L11.6789615,10.7976419 Z M12.7984756,11.3574942 L12.7984756,13.9959269 C12.990365,13.8423391 13.171774,13.6769368 13.3463229,13.504484 L13.3463229,13.504484 L13.3463229,11.6315131 L12.7984756,11.3574942 Z M10.5594474,10.2379801 L10.5594474,12.2216638 L11.1072947,13.5528851 L11.1072947,10.511999 L10.5594474,10.2379801 Z M13.9179896,11.9173465 L13.9179896,12.8680283 C14.0955874,12.6437444 14.2619425,12.4097422 14.4113381,12.164116 L14.4113381,12.164116 L13.9179896,11.9173465 Z M15.9998094,7.95855416 C15.9998094,9.17696659 15.7107366,10.3271601 15.1996665,11.3472042 L15.1996665,11.3472042 L8.42236646,7.95855416 Z M9.53159054,9.72405169 L9.98778062,10.832323 L9.98778062,9.95214673 L9.53159054,9.72405169 Z M15.4054666,8.53022093 L10.8439469,8.53022093 L14.9239326,10.5703091 C15.1878521,9.91670339 15.3490621,9.23413327 15.4054666,8.53022093 L15.4054666,8.53022093 Z M8.42255702,6.90282416e-15 L8.55635086,0.00219138927 L8.55635086,0.00219138927 L8.6895254,0.0066694456 C8.94791878,0.0156255583 9.20288215,0.0373488954 9.45384386,0.0716489013 C9.68517835,0.103090573 9.91270172,0.145203359 10.1367951,0.197034479 C10.3568868,0.247912821 10.5733579,0.308128387 10.7854463,0.377681177 C10.9855297,0.443232299 11.1825642,0.515262312 11.3750253,0.596629548 C11.5667242,0.677806229 11.7532782,0.768320133 11.9365926,0.86436015 C12.1119038,0.956398499 12.2828321,1.05491574 12.4495683,1.15972131 C12.61821,1.26567022 12.7832311,1.37695468 12.9427261,1.49567082 C13.0966951,1.61019472 13.2447567,1.73157863 13.3893884,1.85734532 C13.537069,1.98577979 13.6803668,2.11897815 13.817948,2.25827428 C13.951718,2.39414042 14.0801524,2.53553266 14.2034419,2.68111713 C14.330733,2.83108438 14.452117,2.98619663 14.5674031,3.14607277 C14.6811648,3.30347168 14.789972,3.4643006 14.8915381,3.63046507 C14.997487,3.80348955 15.0952421,3.98223069 15.1870899,4.16421128 C15.2785565,4.34542964 15.3633538,4.53026856 15.4405288,4.71929971 C15.5215149,4.9184303 15.5960222,5.12118144 15.6604299,5.32831537 C15.7256,5.53811707 15.7802894,5.75249211 15.8273566,5.96972548 C15.8778539,6.20296552 15.9169178,6.44039778 15.9453105,6.68106949 C15.9746561,6.93012565 15.9918061,7.1826118 15.9963794,7.4383374 C15.9973322,7.48483297 16,7.53075686 16,7.57744298 L16,7.57744298 L8.42255702,7.57744298 L8.42255702,6.90282416e-15 L8.42255702,6.90282416e-15 Z M15.3376288,6.45945334 L14.7911153,7.00577622 L15.4050855,7.00577622 C15.3902221,6.82131841 15.3665932,6.63952837 15.3376288,6.45945334 L15.3376288,6.45945334 Z M14.9984398,5.16100756 L13.1536712,7.00577622 L13.9829691,7.00577622 L15.1969987,5.79155601 C15.1404037,5.57737152 15.074281,5.3668076 14.9984398,5.16100756 L14.9984398,5.16100756 Z M14.4728875,4.04892515 L11.5158459,7.00577622 L12.3453344,7.00577622 L14.7594831,4.59181802 C14.6718275,4.40621688 14.5759781,4.22518907 14.4728875,4.04892515 L14.4728875,4.04892515 Z M13.7964152,3.08795331 L9.87859227,7.00577622 L10.7076996,7.00577622 L14.1565652,3.55672006 C14.0431847,3.39531948 13.9227535,3.2390639 13.7964152,3.08795331 L13.7964152,3.08795331 Z M12.9823617,2.2641815 L8.99403323,6.25250997 L8.99403323,7.00577622 L9.07025546,7.00577622 L13.4114929,2.66472935 C13.2741023,2.52524266 13.1308045,2.39166319 12.9823617,2.2641815 L12.9823617,2.2641815 Z M12.0322515,1.5768475 L8.99403323,4.6150658 L8.99384267,4.6150658 L8.99384267,5.44417317 L12.530745,1.90746144 C12.3697255,1.79046031 12.2031799,1.68012863 12.0322515,1.5768475 L12.0322515,1.5768475 Z M10.9331269,1.0383374 L8.99422378,2.97724052 L8.99403323,3.80653844 L11.5095576,1.29101411 C11.3220509,1.1984041 11.1295897,1.11398797 10.9331269,1.0383374 L10.9331269,1.0383374 Z M9.65335556,0.680283451 L8.99422378,1.33941523 L8.99422378,2.16871315 L10.3269696,0.835967367 C10.1064968,0.77365569 9.88202227,0.721062347 9.65335556,0.680283451 L9.65335556,0.680283451 Z" id="Combined-Shape"></path>
            </g>
        </g>
    </g>
</svg>