<?xml version="1.0" encoding="UTF-8" ?>
<svg width="32px" height="32px" viewBox="0 0 32 32" version="1.1" xmlns="http://www.w3.org/2000/svg" xmlns:xlink="http://www.w3.org/1999/xlink">
    <!-- Generator: sketchtool 63.1 (101010) - https://sketch.com -->
    <title>d47298ca-7f3d-4ff3-9148-ea1382e0f139@1.00x</title>
    <desc>Created with sketchtool.</desc>
    <g id="Icons" stroke="none" stroke-width="1" fill="none" fill-rule="evenodd">
        <g id="Icons/32/Products/predator/default" fill="currentColor">
            <g id="Group-10" transform="translate(6.000000, 6.000000)">
                <path d="M14.4316,9.970055 C14.5192403,9.70296361 14.5639445,9.42365752 14.564045,9.142555 C14.5655666,8.75172487 14.4792533,8.36554717 14.3114825,8.012555 C13.9796902,8.31687904 13.6216478,8.59128014 13.241535,8.832555 C13.2059933,8.84153057 13.1709511,8.85237904 13.136555,8.865055 C12.991901,8.9152542 12.8638804,9.00434967 12.766555,9.122555 C12.3487162,9.35592757 11.9101566,9.5500905 11.4564975,9.702555 L8.4564975,9.702555 C8.00437709,9.55139076 7.56747578,9.35803937 7.151565,9.125055 C7.05462848,9.00472571 6.9253898,8.91453277 6.7790075,8.865055 C6.74409137,8.85210111 6.70816061,8.84206669 6.671585,8.835055 C6.29194185,8.59211949 5.93392874,8.31693583 5.601515,8.012555 C5.43384111,8.36557583 5.34757261,8.75174049 5.349075,9.142555 C5.34810909,9.42292425 5.3928438,9.70157684 5.48152,9.967555 C4.684035,12.405055 4.63655,13.145055 4.826615,13.632555 C5.069045,14.250055 5.839065,15.092555 7.1239775,15.637555 L7.1239775,16.187555 C7.1239775,17.107555 7.806595,17.855055 8.6439975,17.855055 L11.2689975,17.855055 C12.10652,17.855055 12.789015,17.1075425 12.789015,16.187555 L12.789015,15.637555 C14.07405,15.092555 14.84407,14.250055 15.0865025,13.635055 C15.27657,13.1450575 15.229085,12.4050525 14.4316,9.970055 Z M9.9565025,10.205055 C10.3317094,11.0853328 11.1921465,11.6602657 12.1490025,11.670055 C12.4828702,11.670536 12.8129034,11.5989029 13.11653,11.460055 C13.42659,12.500055 13.48153,12.902555 13.48153,13.060055 C13.2985991,13.3240377 13.0627741,13.5470975 12.78903,13.71507 L12.78903,13.13507 L11.23653,11.82257 L10.689045,12.47007 L10.13912,13.12007 L11.08907,13.92257 L11.08907,16.09757 C10.91157,16.12507 10.72652,16.14507 10.53657,16.15757 L9.376535,16.15757 C9.1864725,16.14507 9.001535,16.12507 8.824035,16.09757 L8.824035,13.99257 L9.79901,13.09757 L9.22406,12.47007 L8.65156,11.84507 L7.1239725,13.24507 L7.1239725,13.71507 C6.85028255,13.5470693 6.61450135,13.3240131 6.43159,13.060055 C6.43159,12.90257 6.48652,12.500055 6.79659,11.460055 C7.1002133,11.5989155 7.4302501,11.6705492 7.76412,11.670055 C8.72095693,11.6602962 9.5813747,11.0853454 9.9565025,10.205055 L9.9565025,10.205055 Z" id="Shape"></path>
                <path d="M18.9674875,6.751625 C17.817585,4.75469 16.30196,4.0855475 15.32076,3.8646775 C15.214596,3.63792815 15.0934791,3.41848538 14.95821,3.2078 C14.23896,2.0922 12.7897525,0.7624875 9.9704175,0.7624875 C7.003255,0.7624875 5.3962,2.2243875 4.6075025,3.8608 C3.627155,4.07772 2.102375,4.74305 0.9457525,6.751625 C-0.7517475,9.699625 0.9936025,15.9764775 1.1981925,16.6825325 L2.83003,16.209875 C2.3307625,14.48307 1.2833975,9.570105 2.41792,7.599525 C2.79253398,6.9067954 3.34093234,6.32344814 4.0092275,5.906805 C3.9864025,6.08573 3.97041,6.260475 3.9623525,6.4278925 C0.7172375,10.996985 3.8886225,18.3288925 4.02754,18.6439575 L5.5822275,17.9584125 C5.55171,17.8891975 2.564405,10.9953975 5.47627,7.2381975 L5.6544925,7.00846 L5.6544925,6.71781 C5.6544925,6.006995 5.8624925,2.4614625 9.97041,2.4614625 C10.686475,2.4614625 14.25874,2.6666625 14.25874,6.71781 L14.25874,7.00846 L14.4369625,7.2381975 C17.341015,10.9852675 14.36128,17.8896975 14.3307625,17.9590225 L15.8856925,18.6439575 C16.02461,18.328895 19.1969725,10.9953975 15.9496575,6.4263075 C15.9422125,6.2838825 15.927685,6.1088075 15.9027825,5.9119175 C16.5712272,6.32654373 17.1201007,6.90818624 17.4953125,7.599525 C18.629835,9.570105 17.58247,14.48307 17.0832025,16.209875 L18.71504,16.6825325 C18.9196375,15.9764775 20.6649975,9.6996225 18.9674875,6.751625 Z" id="Path"></path>
            </g>
        </g>
    </g>
</svg>