<?xml version="1.0" encoding="UTF-8" ?>
<svg width="32px" height="32px" viewBox="0 0 32 32" version="1.1" xmlns="http://www.w3.org/2000/svg" xmlns:xlink="http://www.w3.org/1999/xlink">
    <!-- Generator: sketchtool 63.1 (101010) - https://sketch.com -->
    <title>137432be-be58-435b-aad1-7eda8edc8d68@1.00x</title>
    <desc>Created with sketchtool.</desc>
    <g id="Icons" stroke="none" stroke-width="1" fill="none" fill-rule="evenodd">
        <g id="Icons/32/Products/quality/default" fill="currentColor">
            <g id="Group-19" transform="translate(7.000000, 9.000000)">
                <path d="M1.331605,10.59285 L1.331605,13.25785 L17.591605,13.25785 L17.591605,10.59285 L1.331605,10.59285 Z M15.2566525,12.5203575 C15.0152627,12.5208667 14.7973776,12.3757877 14.7047603,12.1528721 C14.612143,11.9299565 14.6630693,11.6731914 14.8337541,11.5024987 C15.004439,11.331806 15.2612017,11.2808678 15.4841216,11.3734748 C15.7070415,11.4660818 15.8521305,11.6839601 15.8516263,11.92535 C15.8508622,12.2536334 15.5849359,12.5195754 15.2566525,12.5203575 L15.2566525,12.5203575 Z" id="Shape"></path>
                <path d="M9.7841325,5.62285 C9.63472468,6.60261218 9.22262192,7.52357978 8.5916325,8.28785 L17.5916325,8.28785 L17.5916325,5.62285 L9.7841325,5.62285 Z M15.256665,7.5528575 C15.0155027,7.55336617 14.7977763,7.40855752 14.7050129,7.18594915 C14.6122495,6.96334079 14.6627176,6.70677248 14.8328837,6.53588352 C15.0030498,6.36499456 15.2594019,6.31343926 15.4824015,6.40525817 C15.7054011,6.49707707 15.8511314,6.71418766 15.8516378,6.95535 C15.8519591,7.28449318 15.5857941,7.55178657 15.2566525,7.5528575 L15.256665,7.5528575 Z" id="Shape"></path>
                <path d="M7.98407,0.65535 C8.78794495,1.36158114 9.36688117,2.28820454 9.64911,3.32035 L17.59161,3.32035 L17.59161,0.65535 L7.98407,0.65535 Z M15.2566525,2.58285753 C15.015995,2.58285753 14.7990279,2.43790108 14.7069246,2.2155657 C14.6148212,1.99323032 14.6657201,1.7373057 14.8358867,1.56713119 C15.0060534,1.39695668 15.2619757,1.34604596 15.4843153,1.43813905 C15.7066549,1.53023213 15.851625,1.74719246 15.851625,1.98785 C15.851684,2.14566783 15.7890197,2.29703932 15.6774289,2.40863667 C15.5658381,2.52023401 15.4144703,2.58290726 15.2566525,2.58285753 L15.2566525,2.58285753 Z" id="Shape"></path>
                <path d="M8.0541325,3.32036 C7.46938734,1.83105014 6.05430145,0.832704325 4.45513778,0.781262288 C2.8559741,0.729820251 1.37965045,1.63515495 0.700396758,3.08380439 C0.0211430647,4.53245382 0.269324384,6.24638744 1.3315975,7.44286 C2.57718378,8.84660237 4.63018863,9.19777852 6.2715375,8.28786 C7.2828529,7.72636865 8.00139917,6.75437196 8.2416325,5.62286 C8.30208847,5.34781205 8.33225645,5.06697298 8.3316081,4.78536 C8.33275836,4.2838582 8.23859951,3.78670464 8.0541325,3.32036 Z M4.5040825,5.62286 L4.0491275,5.93786 C3.811993,6.10320189 3.48637213,6.0500384 3.31414,5.81786 L3.1665575,5.62286 L2.7290575,5.04786 L2.4091125,4.61786 L3.26165,3.97036 L3.8590625,4.76286 L5.6340875,3.53786 L6.2440725,4.42036 L4.5040825,5.62286 Z" id="Shape"></path>
            </g>
        </g>
    </g>
</svg>