<?xml version="1.0" encoding="UTF-8"?>
<svg width="32px" height="32px" viewBox="0 0 32 32" version="1.1" xmlns="http://www.w3.org/2000/svg" xmlns:xlink="http://www.w3.org/1999/xlink">
    <!-- Generator: sketchtool 61 (101010) - https://sketch.com -->
    <title>5a1e0735-409e-4f2a-b6a6-a7964436cae1@1.00x</title>
    <desc>Created with sketchtool.</desc>
    <g id="Icons" stroke="none" stroke-width="1" fill="none" fill-rule="evenodd">
        <g id="Icons/32/restore">
            <g id="settings_backup_restore-24px">
                <rect id="Rectangle" x="0" y="0" width="32" height="32"></rect>
                <path d="M20.5925926,16 C20.5925926,14.6962963 19.5259259,13.6296296 18.2222222,13.6296296 C16.9185185,13.6296296 15.8518519,14.6962963 15.8518519,16 C15.8518519,17.3037037 16.9185185,18.3703704 18.2222222,18.3703704 C19.5259259,18.3703704 20.5925926,17.3037037 20.5925926,16 Z M18.2222222,5.33333333 C12.3318519,5.33333333 7.55555556,10.1096296 7.55555556,16 L4,16 L8.74074074,20.7407407 L13.4814815,16 L9.92592593,16 C9.92592593,11.4133333 13.6355556,7.7037037 18.2222222,7.7037037 C22.8088889,7.7037037 26.5185185,11.4133333 26.5185185,16 C26.5185185,20.5866667 22.8088889,24.2962963 18.2222222,24.2962963 C16.4325926,24.2962963 14.7733333,23.7155556 13.4103704,22.7555556 L11.7274074,24.4622222 C13.5288889,25.837037 15.7807407,26.6666667 18.2222222,26.6666667 C24.1125926,26.6666667 28.8888889,21.8903704 28.8888889,16 C28.8888889,10.1096296 24.1125926,5.33333333 18.2222222,5.33333333 Z" id="Shape" fill="currentColor"></path>
            </g>
        </g>
    </g>
</svg>