<?xml version="1.0" encoding="UTF-8"?>
<svg width="20px" height="20px" viewBox="0 0 20 20" version="1.1" xmlns="http://www.w3.org/2000/svg" xmlns:xlink="http://www.w3.org/1999/xlink">
    <!-- Generator: sketchtool 61 (101010) - https://sketch.com -->
    <title>89e270b1-4d31-4ce7-85c3-9c93e7a4d663@1.00x</title>
    <desc>Created with sketchtool.</desc>
    <g id="Icons" stroke="none" stroke-width="1" fill="none" fill-rule="evenodd">
        <g id="Icons/20/search">
            <g id="search-24px">
                <polygon id="Path" points="0 0 20 0 20 20 0 20"></polygon>
                <path d="M12.8625881,11.7190776 L12.2603392,11.7190776 L12.0468839,11.5132457 C12.7939775,10.6441776 13.2437583,9.51591386 13.2437583,8.28854584 C13.2437583,5.55174385 11.0253478,3.33333333 8.28854584,3.33333333 C5.55174385,3.33333333 3.33333333,5.55174385 3.33333333,8.28854584 C3.33333333,11.0253478 5.55174385,13.2437583 8.28854584,13.2437583 C9.51591386,13.2437583 10.6441776,12.7939775 11.5132457,12.0468839 L11.7190776,12.2603392 L11.7190776,12.8625881 L15.5307795,16.6666667 L16.6666667,15.5307795 L12.8625881,11.7190776 Z M8.28854584,11.7190776 C6.39031828,11.7190776 4.8580141,10.1867734 4.8580141,8.28854584 C4.8580141,6.39031828 6.39031828,4.8580141 8.28854584,4.8580141 C10.1867734,4.8580141 11.7190776,6.39031828 11.7190776,8.28854584 C11.7190776,10.1867734 10.1867734,11.7190776 8.28854584,11.7190776 Z" id="Shape" fill="currentColor"></path>
            </g>
        </g>
    </g>
</svg>