<?xml version="1.0" encoding="UTF-8"?>
<svg width="24px" height="24px" viewBox="0 0 24 24" version="1.1" xmlns="http://www.w3.org/2000/svg" xmlns:xlink="http://www.w3.org/1999/xlink">
    <title>43D0A080-F83E-4980-B122-716BFE26027D@1x</title>
    <g id="Icons" stroke="none" stroke-width="1" fill="none" fill-rule="evenodd">
        <g id="Icons/shield/moon">
            <g id="Group" fill="#000000" fill-opacity="0">
                <g id="Rectangle">
                    <rect x="0" y="0" width="24" height="24" rx="2"></rect>
                </g>
            </g>
            <g id="shield_moon_black_24dp" transform="translate(4.500000, 2.650000)" fill="currentColor">
                <path d="M7.5,0 L0,2.8125 L0,8.521875 C0,13.25625 3.196875,17.671875 7.5,18.75 C11.803125,17.671875 15,13.25625 15,8.521875 L15,2.8125 L7.5,0 Z M11.221875,11.634375 C9.496875,13.66875 6.3375,13.603125 4.696875,11.56875 C2.64375,9.01875 4.0875,5.26875 7.21875,4.696875 C7.5375,4.640625 7.809375,4.95 7.696875,5.259375 C7.265625,6.4125 7.33125,7.734375 7.996875,8.878125 C8.6625,10.021875 9.76875,10.74375 10.978125,10.940625 C11.296875,10.9875 11.4375,11.38125 11.221875,11.634375 Z" id="Shape"></path>
            </g>
        </g>
    </g>
</svg>