<?xml version="1.0" encoding="UTF-8"?>
<svg width="24px" height="24px" viewBox="0 0 24 24" version="1.1" xmlns="http://www.w3.org/2000/svg" xmlns:xlink="http://www.w3.org/1999/xlink">
    <title>723E03B4-28C3-4EC7-BBEB-2964B7D9825F@1x</title>
    <g id="Icons" stroke="none" stroke-width="1" fill="none" fill-rule="evenodd">
        <g id="Icons/shield/block">
            <g id="Group" fill="#000000" fill-opacity="0">
                <g id="Rectangle">
                    <rect x="0" y="0" width="24" height="24" rx="2"></rect>
                </g>
            </g>
            <g id="remove_moderator_black_24dp" transform="translate(2.833333, 2.833333)" fill="currentColor">
                <path d="M17.725,17.275 L14.775,14.3166667 L3.98333333,3.525 L1.05833333,0.6 L0,1.65833333 L1.675,3.33333333 L1.66666667,3.33333333 L1.66666667,8.33333333 C1.66666667,12.9583333 4.86666667,17.2833333 9.16666667,18.3333333 C10.9666667,17.8916667 12.5666667,16.8666667 13.8333333,15.4916667 L16.6666667,18.3333333 L17.725,17.275 Z M10,7.43333333 L15.5583333,12.9916667 C16.2583333,11.5583333 16.6666667,9.96666667 16.6666667,8.33333333 L16.6666667,3.33333333 L9.16666667,0 L4.6,2.03333333 L8.33333333,5.76666667 L10,7.43333333 Z" id="Shape"></path>
            </g>
        </g>
    </g>
</svg>