<?xml version="1.0" encoding="UTF-8"?>
<svg width="24px" height="24px" viewBox="0 0 24 24" version="1.1" xmlns="http://www.w3.org/2000/svg" xmlns:xlink="http://www.w3.org/1999/xlink">
    <title>6ACD978C-F927-4369-9E2E-D489E5DBD672@1x</title>
    <g id="Icons" stroke="none" stroke-width="1" fill="none" fill-rule="evenodd">
        <g id="Icons/sql">
            <g id="Group" fill="#000000" fill-opacity="0">
                <g id="Rectangle">
                    <rect x="0" y="0" width="24" height="24" rx="2"></rect>
                </g>
            </g>
            <path d="M20.25,8 C20.66325,8 21,8.3375 21,8.75 L21,8.75 L21,16.25 C21,16.6625 20.66325,17 20.25,17 L20.25,17 L3.75,17 C3.3375,17 3,16.6625 3,16.25 L3,16.25 L3,8.75 C3,8.3375 3.3375,8 3.75,8 L3.75,8 Z M12.15225,10.4795 C11.09025,10.4795 9.891,11.2295 9.891,12.70475 C9.891,14.18 11.097,14.906 12.15225,14.906 C12.63825,14.906 13.0035,14.804 13.3155,14.588 L13.3155,14.588 L13.51875,14.75 C13.92075,15.128 14.436,14.54 14.04075,14.18 L14.04075,14.18 L13.9455,14.06525 C14.21475,13.694 14.35875,13.27475 14.35875,12.70475 C14.35875,11.2295 13.26675,10.4795 12.15225,10.4795 Z M8.8215,10.763 C7.99425,10.127 6.23775,10.33625 6.09975,11.4995 C5.91375,13.20275 8.40825,12.66875 8.48625,13.556 C8.39625,14.40875 7.131,14.15675 6.639,13.82075 C6.435,13.6535 6.261,13.7075 6.10575,13.86275 C5.997,14.0255 5.991,14.28875 6.189,14.45 C7.017,15.134 9.2235,15.098 9.26475,13.57475 C9.3075,11.98025 6.69825,12.5435 6.86025,11.5595 C6.98625,10.93625 7.99425,11.06825 8.4375,11.35025 C8.79825,11.61425 9.2295,11.09225 8.8215,10.763 Z M15.62175,10.595 C15.411,10.595 15.24375,10.763 15.24375,10.961 L15.24375,10.961 L15.24375,14.384 C15.24375,14.60075 15.411,14.75 15.62175,14.75 L15.62175,14.75 L17.60625,14.75 C18.20475,14.75 18.1935,13.96475 17.607,13.9655 L17.607,13.9655 L15.975,13.9655 L15.975,10.961 C15.975,10.76375 15.81375,10.595 15.62175,10.595 Z M12.15225,11.2655 C12.8355,11.2655 13.58475,11.7515 13.58475,12.704 C13.58475,13.016 13.51875,13.274 13.3695,13.48325 L13.3695,13.48325 L12.6915,12.806 C12.29025,12.45275 11.78625,12.998 12.10425,13.382 L12.10425,13.382 L12.7875,14.012 C12.5775,14.066 12.3675,14.12 12.15225,14.12 C11.30625,14.12 10.689,13.43075 10.689,12.70475 C10.689,11.75075 11.415,11.2655 12.15225,11.2655 Z" id="Combined-Shape" fill="currentColor"></path>
        </g>
    </g>
</svg>