<?xml version="1.0" encoding="UTF-8"?>
<svg width="24px" height="24px" viewBox="0 0 24 24" version="1.1" xmlns="http://www.w3.org/2000/svg" xmlns:xlink="http://www.w3.org/1999/xlink">
    <title>A649762E-9460-4D48-809E-851A3F7F7608@1x</title>
    <g id="Icons" stroke="none" stroke-width="1" fill="none" fill-rule="evenodd">
        <g id="Icons/table-chart">
            <g id="Group" fill="#000000" fill-opacity="0">
                <g id="Rectangle">
                    <rect x="0" y="0" width="24" height="24" rx="2"></rect>
                </g>
            </g>
            <g id="table" transform="translate(3.000000, 6.000000)" fill="currentColor">
                <path d="M17.7388074,0 L0.261192586,0 C0.11684015,0 0,0.11684015 0,0.261192586 L0,11.7722981 C0,11.9164764 0.11684015,12.0334907 0.261192586,12.0334907 L17.7388074,12.0334907 C17.8829857,12.0334907 18,11.9164764 18,11.7722981 L18,0.261192586 C18,0.117014279 17.8829857,0 17.7388074,0 Z M6.34837287,8.63345974 L6.34837287,6.278025 L11.6519754,6.278025 L11.6519754,8.63345974 L6.34837287,8.63345974 Z M11.6518013,3.40020508 L11.6518013,5.75563983 L6.34837287,5.75563983 L6.34837287,3.40020508 L11.6518013,3.40020508 Z M5.82598769,3.40020508 L5.82598769,5.75563983 L0.522385172,5.75563983 L0.522385172,3.40020508 L5.82598769,3.40020508 Z M5.82598769,6.278025 L5.82598769,8.63345974 L0.522385172,8.63345974 L0.522385172,6.278025 L5.82598769,6.278025 Z M6.34837287,9.15584491 L11.6519754,9.15584491 L11.6519754,11.5111055 L6.34837287,11.5111055 L6.34837287,9.15584491 Z M12.1741864,8.63345974 L12.1741864,6.278025 L17.4776148,6.278025 L17.4776148,8.63345974 L12.1741864,8.63345974 Z M12.1741864,5.75563983 L12.1741864,3.40020508 L17.4776148,3.40020508 L17.4776148,5.75563983 L12.1741864,5.75563983 Z M0.522385172,9.15584491 L5.82598769,9.15584491 L5.82598769,11.5111055 L0.522385172,11.5111055 L0.522385172,9.15584491 Z M12.1741864,11.5112797 L12.1741864,9.15584491 L17.4776148,9.15584491 L17.4776148,11.5111055 L12.1741864,11.5111055 L12.1741864,11.5112797 Z" id="Shape"></path>
            </g>
        </g>
    </g>
</svg>