<?xml version="1.0" encoding="UTF-8"?>
<svg width="24px" height="24px" viewBox="0 0 24 24" version="1.1" xmlns="http://www.w3.org/2000/svg" xmlns:xlink="http://www.w3.org/1999/xlink">
    <title>0A293D3F-190A-4C5F-B3C0-75CC1D53D046@1x</title>
    <g id="Icons" stroke="none" stroke-width="1" fill="none" fill-rule="evenodd">
        <g id="Icons/timelapse">
            <g id="Group" fill="#000000" fill-opacity="0">
                <g id="Rectangle">
                    <rect x="0" y="0" width="24" height="24" rx="2"></rect>
                </g>
            </g>
            <g id="timelapse-24px" transform="translate(1.000000, 1.000000)">
                <polygon id="Path" points="0 0 22 0 22 22 0 22"></polygon>
                <path d="M14.8866667,7.11333333 C13.8141667,6.04083333 12.4116667,5.5 11,5.5 L11,11 L7.11333333,14.8866667 C9.25833333,17.0316667 12.7416667,17.0316667 14.8958333,14.8866667 C17.0408333,12.7416667 17.0408333,9.25833333 14.8866667,7.11333333 Z M11,1.83333333 C5.94,1.83333333 1.83333333,5.94 1.83333333,11 C1.83333333,16.06 5.94,20.1666667 11,20.1666667 C16.06,20.1666667 20.1666667,16.06 20.1666667,11 C20.1666667,5.94 16.06,1.83333333 11,1.83333333 Z M11,18.3333333 C6.94833333,18.3333333 3.66666667,15.0516667 3.66666667,11 C3.66666667,6.94833333 6.94833333,3.66666667 11,3.66666667 C15.0516667,3.66666667 18.3333333,6.94833333 18.3333333,11 C18.3333333,15.0516667 15.0516667,18.3333333 11,18.3333333 Z" id="Shape" fill="currentColor"></path>
            </g>
        </g>
    </g>
</svg>