<?xml version="1.0" encoding="UTF-8"?>
<svg width="24px" height="24px" viewBox="0 0 24 24" version="1.1" xmlns="http://www.w3.org/2000/svg" xmlns:xlink="http://www.w3.org/1999/xlink">
    <title>74689C4A-AAF9-45FB-9C6C-5FF07971E4CA@1x</title>
    <g id="Icons" stroke="none" stroke-width="1" fill="none" fill-rule="evenodd">
        <g id="Icons/tree">
            <g id="Group" fill="#000000" fill-opacity="0">
                <g id="Rectangle">
                    <rect x="0" y="0" width="24" height="24" rx="2"></rect>
                </g>
            </g>
            <g id="account_tree-24px" transform="translate(3.000000, 3.000000)" fill="#6E6E6E">
                <path d="M17.7777778,7.61111111 L17.7777778,1.5 C17.7777778,1.22385763 17.5539202,1 17.2777778,1 L12.0555556,1 C11.7794132,1 11.5555556,1.22385763 11.5555556,1.5 L11.5555556,3.16666667 C11.5555556,3.44280904 11.3316979,3.66666667 11.0555556,3.66666667 L6.72222222,3.66666667 C6.44607985,3.66666667 6.22222222,3.44280904 6.22222222,3.16666667 L6.22222222,1.5 C6.22222222,1.22385763 5.9983646,1 5.72222222,1 L0.5,1 C0.223857625,1 -3.38176876e-17,1.22385763 0,1.5 L0,7.61111111 C-5.1222086e-16,7.88725349 0.223857625,8.11111111 0.5,8.11111111 L5.72222222,8.11111111 C5.9983646,8.11111111 6.22222222,7.88725349 6.22222222,7.61111111 L6.22222222,5.94444444 C6.22222222,5.66830207 6.44607985,5.44444444 6.72222222,5.44444444 L7.5,5.44444444 C7.77614237,5.44444444 8,5.66830207 8,5.94444444 L8,13.8333333 C8,14.1094757 8.22385763,14.3333333 8.5,14.3333333 L11.0555556,14.3333333 C11.3316979,14.3333333 11.5555556,14.557191 11.5555556,14.8333333 L11.5555556,16.5 C11.5555556,16.7761424 11.7794132,17 12.0555556,17 L17.2777778,17 C17.5539202,17 17.7777778,16.7761424 17.7777778,16.5 L17.7777778,10.3888889 C17.7777778,10.1127465 17.5539202,9.88888889 17.2777778,9.88888889 L12.0555556,9.88888889 C11.7794132,9.88888889 11.5555556,10.1127465 11.5555556,10.3888889 L11.5555556,12.0555556 C11.5555556,12.3316979 11.3316979,12.5555556 11.0555556,12.5555556 L10.2777778,12.5555556 C10.0016354,12.5555556 9.77777778,12.3316979 9.77777778,12.0555556 L9.77777778,5.94444444 C9.77777778,5.66830207 10.0016354,5.44444444 10.2777778,5.44444444 L11.0555556,5.44444444 C11.3316979,5.44444444 11.5555556,5.66830207 11.5555556,5.94444444 L11.5555556,7.61111111 C11.5555556,7.88725349 11.7794132,8.11111111 12.0555556,8.11111111 L17.2777778,8.11111111 C17.5539202,8.11111111 17.7777778,7.88725349 17.7777778,7.61111111 Z" id="Path" transform="translate(8.888889, 9.000000) rotate(90.000000) translate(-8.888889, -9.000000) "></path>
            </g>
        </g>
    </g>
</svg>