<?xml version="1.0" encoding="UTF-8" ?>
<svg width="32px" height="32px" viewBox="0 0 32 32" version="1.1" xmlns="http://www.w3.org/2000/svg" xmlns:xlink="http://www.w3.org/1999/xlink">
    <title>14fdb3f5-37ea-499b-a89a-51dff10e1134@1.00x</title>
    <g id="Icons" stroke="none" stroke-width="1" fill="none" fill-rule="evenodd">
        <g id="Icons/32/Products/warehouse/default">
            <g id="Group-8">
                <rect id="Rectangle" x="0" y="0" width="32" height="32"></rect>
                <path d="M15.6521739,8 C19.8724638,8 23.3043478,11.4318841 23.3043478,15.6521739 L23.3043478,15.6521739 L23.3004094,15.899497 C23.2452039,17.6306097 22.612585,19.2181847 21.5891997,20.4755748 L24.742029,23.6289855 L23.4898551,24.8347826 L20.3241792,21.7092959 C19.0309482,22.7089967 17.409946,23.3043478 15.6521739,23.3043478 C11.4318841,23.3043478 8,19.8724638 8,15.6521739 C8,11.4318841 11.4318841,8 15.6521739,8 Z M15.6521739,9.76231884 C14.0289855,9.76231884 12.5449275,10.4115942 11.4782609,11.4782609 C10.4115942,12.5449275 9.76231884,14.0289855 9.76231884,15.6521739 C9.76231884,17.2753623 10.4115942,18.7594203 11.4782609,19.826087 C12.5449275,20.8927536 14.0289855,21.542029 15.6521739,21.542029 C17.2753623,21.542029 18.7594203,20.8927536 19.826087,19.826087 C20.8927536,18.7594203 21.542029,17.2753623 21.542029,15.6521739 L21.542029,15.6521739 L21.5353363,15.3672298 C21.4641994,13.8558347 20.8300085,12.4821824 19.826087,11.4782609 C18.7594203,10.4115942 17.2753623,9.76231884 15.6521739,9.76231884 Z M17.4144928,17.8318841 C18.0173913,17.8318841 18.342029,18.2028986 18.573913,18.4811594 C18.8521739,18.6666667 18.9913043,18.8057971 19.1768116,18.8521739 C18.9913043,19.0376812 18.8057971,19.2231884 18.573913,19.4086957 C17.7855072,20.057971 16.7652174,20.4289855 15.6521739,20.4289855 C14.5391304,20.4289855 13.5188406,20.057971 12.7304348,19.4086957 C12.5449275,19.2695652 12.3130435,19.084058 12.1275362,18.8521739 C12.3130435,18.8057971 12.4521739,18.7130435 12.6376812,18.4811594 C12.8695652,18.2028986 13.1942029,17.8318841 13.7971014,17.8318841 C14.4,17.8318841 14.7246377,18.2028986 14.9565217,18.4811594 C15.1884058,18.7594203 15.3275362,18.8521739 15.6057971,18.8521739 C15.884058,18.8521739 16.0231884,18.7130435 16.2550725,18.4811594 C16.4869565,18.2028986 16.8115942,17.8318841 17.4144928,17.8318841 Z M17.4608696,15.7449275 C18.0637681,15.7449275 18.3884058,16.115942 18.6202899,16.3942029 C18.8521739,16.6724638 18.9913043,16.7652174 19.2695652,16.7652174 C19.5478261,16.7652174 19.6869565,16.626087 19.9188406,16.3942029 C20.057971,16.3014493 20.1971014,16.115942 20.3826087,15.9768116 L20.1043478,17.2289855 C19.9188406,17.4144928 19.6405797,17.5536232 19.2695652,17.5536232 C18.6666667,17.5536232 18.342029,17.1826087 18.1101449,16.9043478 C17.8782609,16.626087 17.7391304,16.5333333 17.4608696,16.5333333 C17.1826087,16.5333333 17.0434783,16.6724638 16.8115942,16.9043478 C16.5797101,17.1826087 16.2550725,17.5536232 15.6521739,17.5536232 C15.0492754,17.5536232 14.7246377,17.1826087 14.4927536,16.9043478 C14.2608696,16.626087 14.1217391,16.5333333 13.8434783,16.5333333 C13.5652174,16.5333333 13.426087,16.6724638 13.1942029,16.9043478 C12.9623188,17.1826087 12.6376812,17.5536232 12.0347826,17.5536232 C11.6637681,17.5536232 11.3855072,17.4144928 11.2,17.2289855 C11.0608696,16.857971 10.9681159,16.4405797 10.9217391,15.9768116 C11.1072464,16.115942 11.2463768,16.2550725 11.3855072,16.3942029 C11.6173913,16.6724638 11.7565217,16.7652174 12.0347826,16.7652174 C12.3130435,16.7652174 12.4521739,16.626087 12.684058,16.3942029 C12.915942,16.115942 13.2405797,15.7449275 13.8434783,15.7449275 C14.4463768,15.7449275 14.7710145,16.115942 15.0028986,16.3942029 C15.2347826,16.6724638 15.373913,16.7652174 15.6521739,16.7652174 C15.9304348,16.7652174 16.0695652,16.626087 16.3014493,16.3942029 C16.5333333,16.115942 16.857971,15.7449275 17.4608696,15.7449275 Z M17.5072464,13.7043478 C18.1101449,13.7043478 18.4347826,14.0753623 18.6666667,14.3536232 C18.8985507,14.6318841 19.0376812,14.7246377 19.315942,14.7246377 C19.5942029,14.7246377 19.7333333,14.5855072 19.9652174,14.3536232 C20.057971,14.2608696 20.1043478,14.1681159 20.1971014,14.1217391 C20.2434783,14.4 20.3362319,14.6782609 20.3826087,14.9565217 C20.1507246,15.1884058 19.826087,15.4666667 19.315942,15.4666667 C18.7130435,15.4666667 18.3884058,15.0956522 18.1565217,14.8173913 C17.9246377,14.5391304 17.7855072,14.4463768 17.5072464,14.4463768 C17.2289855,14.4463768 17.0898551,14.5855072 16.857971,14.8173913 C16.626087,15.0956522 16.3014493,15.4666667 15.6985507,15.4666667 C15.0956522,15.4666667 14.7710145,15.0956522 14.5391304,14.8173913 C14.3072464,14.5391304 14.1681159,14.4463768 13.8898551,14.4463768 C13.6115942,14.4463768 13.4724638,14.5855072 13.2405797,14.8173913 C13.0086957,15.0956522 12.684058,15.4666667 12.0811594,15.4666667 C11.5710145,15.4666667 11.2463768,15.1884058 11.0144928,14.9565217 C11.0608696,14.6782609 11.1072464,14.4 11.2,14.1217391 C11.2927536,14.2144928 11.3855072,14.3072464 11.4318841,14.3536232 C11.6637681,14.6318841 11.8028986,14.7246377 12.0811594,14.7246377 C12.3594203,14.7246377 12.4985507,14.5855072 12.7304348,14.3536232 C12.9623188,14.0753623 13.2869565,13.7043478 13.8898551,13.7043478 C14.4927536,13.7043478 14.8173913,14.0753623 15.0492754,14.3536232 C15.2811594,14.6318841 15.4202899,14.7246377 15.6985507,14.7246377 C15.9768116,14.7246377 16.115942,14.5855072 16.3478261,14.3536232 C16.5797101,14.0753623 16.9043478,13.7043478 17.5072464,13.7043478 Z M15.6985507,10.9217391 C17.2289855,10.9217391 18.573913,11.6637681 19.4550725,12.7768116 C19.5942029,12.9623188 19.7333333,13.1942029 19.8724638,13.3797101 C19.7333333,13.426087 19.5478261,13.4724638 19.3623188,13.4724638 C18.7594203,13.4724638 18.4347826,13.1014493 18.2028986,12.8231884 C17.9710145,12.5449275 17.8318841,12.4521739 17.5536232,12.4521739 C17.2753623,12.4521739 17.1362319,12.5913043 16.9043478,12.8231884 C16.6724638,13.1014493 16.3478261,13.4724638 15.7449275,13.4724638 C15.142029,13.4724638 14.8173913,13.1014493 14.5855072,12.8231884 C14.3536232,12.5449275 14.2144928,12.4521739 13.9362319,12.4521739 C13.657971,12.4521739 13.5188406,12.5913043 13.2869565,12.8231884 C12.9623188,13.1014493 12.6376812,13.4724638 12.0347826,13.4724638 C11.8492754,13.4724638 11.6637681,13.426087 11.5246377,13.3797101 C11.6637681,13.1478261 11.8028986,12.9623188 11.942029,12.7768116 C12.8231884,11.6637681 14.1681159,10.9217391 15.6985507,10.9217391 Z" id="Combined-Shape" fill="currentColor"></path>
            </g>
        </g>
    </g>
</svg>