<?xml version="1.0" encoding="UTF-8" ?>
<svg width="32px" height="32px" viewBox="0 0 32 32" version="1.1" xmlns="http://www.w3.org/2000/svg" xmlns:xlink="http://www.w3.org/1999/xlink">
    <!-- Generator: sketchtool 63.1 (101010) - https://sketch.com -->
    <title>4a68acdb-df77-4cd5-801b-a96ffaac481d@1.00x</title>
    <desc>Created with sketchtool.</desc>
    <g id="Icons" stroke="none" stroke-width="1" fill="none" fill-rule="evenodd">
        <g id="Icons/32/Products/access/default">
            <g id="Group-17" transform="translate(6.000000, 8.000000)">
                <path d="M0.25586,4.74166 C0.255419977,4.86875247 0.263781645,4.99572286 0.280885,5.12166 L0.280885,4.346635 C0.263701516,4.47760052 0.255341003,4.60957302 0.25586,4.74166 L0.25586,4.74166 Z" id="Path" fill="currentColor" fill-rule="nonzero"></path>
                <path d="M6.7822275,11.6229875 L6.7822275,13.5379875 C6.7822275,13.7450943 6.95012072,13.9129875 7.1572275,13.9129875 L18.1472275,13.9129875 C18.3543343,13.9129875 18.5222275,13.7450943 18.5222275,13.5379875 L18.5222275,11.6229875 C18.5222275,11.4158807 18.3543343,11.2479875 18.1472275,11.2479875 L7.1572275,11.2479875 C7.05777132,11.2479875 6.9623886,11.2874963 6.89206246,11.3578225 C6.82173631,11.4281486 6.7822275,11.5235313 6.7822275,11.6229875 L6.7822275,11.6229875 Z M16.3395275,13.1572375 C16.0799103,13.2247058 15.8072147,13.1103858 15.6733237,12.8779503 C15.5394328,12.6455147 15.5773557,12.3522677 15.7659705,12.1615388 C15.9545853,11.9708099 16.2473915,11.929621 16.4813049,12.0609129 C16.7152183,12.1922049 16.8325705,12.4636094 16.768,12.7239625 C16.7164716,12.9366152 16.5515892,13.1033485 16.339525,13.1572475 L16.3395275,13.1572375 Z" id="Shape" fill="currentColor"></path>
                <path d="M9.15967,6.2804875 C9.08851216,6.47435999 9.00416754,6.66313451 8.9072275,6.8454875 C8.4402906,7.72906544 7.72739315,8.45846112 6.8547275,8.9454875 L18.1472075,8.9454875 C18.3543143,8.9454875 18.5222075,8.77759428 18.5222075,8.5704875 L18.5222075,6.6554875 C18.5222075,6.44838072 18.3543143,6.2804875 18.1472075,6.2804875 L9.15967,6.2804875 Z M16.33667,8.1904375 C16.0761442,8.25705421 15.8032376,8.14125685 15.6701164,7.90761134 C15.5369953,7.67396584 15.5765252,7.38015559 15.7666651,7.19000236 C15.9568051,6.99984913 16.2506126,6.96029877 16.4842674,7.09340363 C16.7179222,7.2265085 16.8337385,7.49940709 16.76714,7.7599375 C16.7143078,7.97200465 16.5487335,8.13759055 16.33667,8.1904375 L16.33667,8.1904375 Z" id="Shape" fill="currentColor"></path>
                <path d="M8.4246825,1.3104875 C9.02067182,2.08108126 9.38489226,3.0054634 9.4747325,3.9754875 L18.1472175,3.9754875 C18.3543243,3.9754875 18.5222175,3.80759428 18.5222175,3.6004875 L18.5222175,1.6854875 C18.5222175,1.47838072 18.3543243,1.3104875 18.1472175,1.3104875 L8.4246825,1.3104875 Z M16.3275125,3.2250625 C16.0654089,3.28805206 15.7936121,3.16756533 15.6642772,2.93105221 C15.5349423,2.69453909 15.5801652,2.40069317 15.7746297,2.21401284 C15.9690942,2.02733252 16.2645415,1.99414479 16.4955768,2.13302852 C16.726612,2.27191225 16.835901,2.54840177 16.7622625,2.807715 C16.7029966,3.01492247 16.536967,3.17430612 16.3275125,3.2250625 Z" id="Shape" fill="currentColor"></path>
                <path d="M8.07715,3.97548 C7.93843094,2.88647913 7.33009277,1.91272445 6.4122325,1.31048 C6.3347175,1.25798 6.2521975,1.21048 6.16968,1.16298 C5.03730837,0.539649636 3.66459913,0.539649636 2.5322275,1.16298 C2.477175,1.19298 2.4272475,1.22298 2.3771975,1.25548 C2.3497325,1.27298 2.3222675,1.29048 2.29468,1.31048 C2.28358741,1.31535747 2.27342637,1.32212473 2.26465,1.33048 C1.2200378,2.02493766 0.592279399,3.19609326 0.592279399,4.45048 C0.592279399,5.70486674 1.2200378,6.87602234 2.26465,7.57048 C2.30224667,7.59798 2.3397625,7.62298 2.3771975,7.64548 C2.58442564,7.77198516 2.80288108,7.87910562 3.0297875,7.96548 L3.0496825,8.57048 C3.05152938,8.63063029 3.07768934,8.68746054 3.1221825,8.72798 L3.3447175,8.94548 L3.82714,9.41548 C3.89373991,9.48139201 3.91531057,9.58032651 3.8821925,9.66798 L3.8447175,9.76548 L3.2822175,11.23298 L3.2772175,11.24798 L3.1772425,11.51048 C3.1577775,11.5528118 3.15422709,11.6007423 3.1672425,11.64548 L3.5622625,13.32298 C3.57439534,13.3665943 3.5726478,13.4129041 3.5572625,13.45548 L3.3922225,13.91298 L3.102185,14.72548 C3.09423285,14.7496985 3.09003342,14.7749912 3.0897325,14.80048 C3.0896406,14.8646755 3.11584002,14.9261087 3.1622325,14.97048 L4.2622075,16.04048 C4.30648492,16.0814606 4.36435715,16.1046131 4.4246825,16.1055238 C4.50488374,16.1070522 4.57996221,16.0661867 4.6221825,15.99798 L5.35717,14.83298 L5.3721825,14.80048 C5.38726825,14.7711058 5.39501736,14.7385156 5.3947675,14.705495 L5.3947675,8.057995 C6.34640221,7.78490809 7.1509772,7.14572151 7.6321925,6.280495 L7.6772375,6.197995 C7.91674148,5.74295144 8.05970061,5.24335325 8.09716,4.730495 C8.10216,4.640495 8.10716134,4.545495 8.10716134,4.452995 C8.10729465,4.29334794 8.09727106,4.13385406 8.07715,3.97548 L8.07715,3.97548 Z M4.3497325,3.495485 C3.6271975,3.495485 3.0422325,3.10548 3.0422325,2.62298 C3.0422325,2.14048 3.6271925,1.75048 4.3497325,1.75048 C5.0722725,1.75048 5.65967,2.14048 5.65967,2.62298 C5.65967,3.10548 5.072275,3.495485 4.3497325,3.495485 L4.3497325,3.495485 Z" id="Shape" fill="currentColor"></path>
            </g>
        </g>
    </g>
</svg>