<?xml version="1.0" encoding="UTF-8" ?>
<svg width="32px" height="32px" viewBox="0 0 32 32" version="1.1" xmlns="http://www.w3.org/2000/svg" xmlns:xlink="http://www.w3.org/1999/xlink">
    <!-- Generator: sketchtool 63.1 (101010) - https://sketch.com -->
    <title>e8a91c3e-8fc5-44b5-8945-e228cf6148d2@1.00x</title>
    <desc>Created with sketchtool.</desc>
    <g id="Icons" stroke="none" stroke-width="1" fill="none" fill-rule="evenodd">
        <g id="Icons/32/Products/audit/default" fill="currentColor">
            <g id="Group-9" transform="translate(8.000000, 7.000000)">
                <path d="M15.7002875,1.721605 C15.5063597,1.52847162 15.2439984,1.41975083 14.970305,1.419105 L12.3877875,1.419105 L12.8352875,2.984105 L14.437825,2.984105 L14.437825,15.5616325 L1.86032,15.5616325 L1.86032,2.9841175 L3.4252625,2.9841175 L3.8727625,1.419105 L1.32784,1.419105 C0.757678315,1.41928034 0.29537,1.88145581 0.29537,2.4516175 L0.29537,16.094105 C0.296911651,16.6632876 0.75865537,17.1239401 1.32784,17.1241535 L14.970295,17.1241535 C15.2444479,17.1257868 15.5076603,17.0167052 15.7002775,16.8216125 C15.8937962,16.6289478 16.0026792,16.367186 16.00289,16.0941125 L16.00289,2.451615 C16.002203,2.17790165 15.8934472,1.91553489 15.7002875,1.721605 L15.7002875,1.721605 Z" id="Path"></path>
                <polygon id="Path" points="5.315495 11.8340575 4.880245 12.2115575 4.452745 11.8390575 4.125245 12.2165575 4.500245 12.5440575 4.125245 12.8690575 4.452745 13.2465575 4.880245 12.8740575 5.315495 13.2515575 5.642745 12.8740575 5.262745 12.5440575 5.642745 12.2115575"></polygon>
                <path d="M5.53781,9.0566275 L4.7102975,9.6291275 L4.43039,9.2591 L4.032805,9.5616225 L4.18283,9.7591 L4.4552925,10.12162 C4.53587229,10.229459 4.68752979,10.2538108 4.79782,10.17662 L5.822845,9.4691 L5.53781,9.0566275 Z" id="Path"></path>
                <path d="M5.53781,6.201615 L4.7102975,6.774095 L4.43039,6.404095 L4.032805,6.706615 L4.18283,6.9065975 L4.4552925,7.2666125 C4.53587156,7.37445268 4.68753011,7.39880465 4.79782,7.3216125 L5.822845,6.614125 L5.53781,6.201615 Z" id="Path"></path>
                <rect id="Rectangle" x="6.5752875" y="6.274095" width="5.5225825" height="1.120025"></rect>
                <rect id="Rectangle" x="6.5752875" y="9.126635" width="5.5225825" height="1.1224975"></rect>
                <rect id="Rectangle" x="6.5752875" y="11.981615" width="5.5225825" height="1.1224975"></rect>
                <path d="M12.05539,2.9841175 L11.605315,1.4191175 L11.582855,1.3391 L9.53537,1.3391 L9.4653,1.051625 C9.31790432,0.444265993 8.77406586,0.0166222693 8.1490775,0.0166222693 C7.52408914,0.0166222693 6.98025068,0.444265993 6.832855,1.051625 L6.7627875,1.3391 L4.6752625,1.3391 L4.6528,1.4191175 L4.2053,2.9841175 L3.9028,4.0441175 L12.35788,4.0441175 L12.05539,2.9841175 Z" id="Path"></path>
            </g>
        </g>
    </g>
</svg>