<?xml version="1.0" encoding="UTF-8" ?>
<svg width="32px" height="32px" viewBox="0 0 32 32" version="1.1" xmlns="http://www.w3.org/2000/svg" xmlns:xlink="http://www.w3.org/1999/xlink">
    <!-- Generator: sketchtool 63.1 (101010) - https://sketch.com -->
    <title>a7c74e89-cbbf-49d5-8e68-eae3dbe82808@1.00x</title>
    <desc>Created with sketchtool.</desc>
    <g id="Icons" stroke="none" stroke-width="1" fill="none" fill-rule="evenodd">
        <g id="Icons/32/Products/beast/default" fill="currentColor">
            <g id="Group-2" transform="translate(7.000000, 8.000000)">
                <polygon id="Path" points="12.72285 13.0815575 11.74035 14.2465575 11.3631 13.7290575 11.14785 14.3690575 9.46035 13.9140575 7.77535 14.3690575 7.56035 13.7290575 7.1806 14.2465575 6.2006 13.0815575 7.37535 13.4965575 7.7531 13.4040575 7.75535 13.4040575 8.0131 13.8265575 8.16035 13.3040575 9.46035 12.9840575 10.76035 13.3040575 10.7631 13.3040575 10.90785 13.8265575 11.16535 13.4040575 11.16785 13.4040575 11.54785 13.4965575"></polygon>
                <path d="M12.7422525,8.0224175 C12.6340642,8.00098891 12.5239139,7.99105623 12.4136375,7.992785 C12.3893475,7.992785 12.3678625,7.9929975 12.34943,7.9929975 C12.1894513,7.99762806 12.032021,8.03425781 11.88643,8.100725 C11.6888516,8.18859848 11.502574,8.29994504 11.33162,8.43236 C11.2078311,8.52249744 11.0667296,8.58604471 10.91719,8.619005 C10.8687209,8.63025352 10.8195935,8.63844797 10.7700975,8.64354 L10.732865,8.64641 L10.72603,8.646685 L10.7267625,8.6740875 C10.6940475,8.8048575 10.4449,9.844865 10.61287,10.564135 C10.6646956,10.2388529 10.7507027,9.91994783 10.8694625,9.6127175 C11.0322106,9.78972059 11.2633539,9.88798729 11.50374,9.88237 C11.8891947,9.91822533 12.2326567,9.63950844 12.2769325,9.25493 C12.2716742,9.06877259 12.177421,8.89644041 12.023515,8.7915825 C12.070515,8.7657025 12.1148225,8.74318 12.15291,8.727005 C12.2145677,8.69723312 12.2811983,8.679117 12.3494425,8.67357 C12.372635,8.67357 12.393875,8.6733575 12.41365,8.6733575 C12.5686527,8.66745729 12.7220478,8.70656821 12.8553025,8.785965 L13.1804975,8.188005 C13.0434328,8.11138812 12.8957355,8.05558183 12.7422525,8.0224175 L12.7422525,8.0224175 Z" id="Path"></path>
                <path d="M8.195865,8.646685 C8.12348103,8.64278966 8.05167011,8.63164558 7.98151,8.61342 C7.84048925,8.57950686 7.70759304,8.51796674 7.59051,8.43236 C7.41945815,8.29995253 7.2331025,8.18859794 7.0354575,8.100695 C6.88989469,8.03426304 6.73250544,7.99764434 6.5725675,7.9929975 C6.5537675,7.9929975 6.5321625,7.992785 6.5079925,7.992785 C6.39767375,7.99104786 6.28748092,8.00099073 6.179255,8.0224475 C6.02588415,8.05559873 5.87830885,8.11141742 5.74139,8.188065 L6.06683,8.785905 C6.19988787,8.70647234 6.35314371,8.66737436 6.5079925,8.6733575 C6.52789,8.6733575 6.5492425,8.67357 6.5725675,8.67357 C6.6408105,8.679146 6.70743779,8.69727224 6.7691,8.7270375 C6.807185,8.74321 6.8514975,8.7657325 6.898495,8.7916125 C6.7445834,8.89645152 6.65032702,9.06877833 6.6450775,9.25493 C6.68939694,9.63958847 7.03298414,9.91831862 7.418515,9.88237 C7.65882525,9.88796242 7.88988335,9.78969396 8.0525475,9.6127175 C8.17130732,9.91994783 8.2573144,10.2388529 8.30914,10.564135 C8.47723,9.844225 8.227475,8.8027825 8.195125,8.67357 L8.195865,8.646685 Z" id="Path"></path>
                <path d="M15.73798,11.481615 C16.702945,10.0890975 18.0329025,7.244115 17.932925,2.244115 C17.932925,2.241615 17.930485,2.236615 17.930485,2.234115 L17.763005,0.016615 C17.3160504,0.863749953 16.5477488,1.49601533 15.630435,1.77159 C14.567935,2.0591275 11.97797,1.05162 9.432935,2.234115 C6.888015,1.051615 4.297935,2.059115 3.235435,1.77159 C2.31763688,1.49698166 1.54904072,0.864436839 1.10299,0.016615 L0.932945,2.244115 C0.8304075,7.33408 2.2104125,10.189115 3.177945,11.554115 L3.10043,12.456615 C3.0623868,12.9096015 3.19032927,13.3609698 3.4604175,13.726615 L5.61801,16.654115 C5.97121232,17.1328689 6.53051258,17.4157757 7.125455,17.416615 L11.79794,17.416615 C12.3927791,17.4151998 12.951873,17.1324208 13.30551,16.654115 L15.46298,13.726615 C15.7312965,13.3601977 15.8582257,12.9091907 15.8204025,12.456615 L15.73798,11.481615 Z M15.54048,9.139115 L15.54048,9.141615 C15.4036857,9.73825217 15.175133,10.310048 14.86298,10.8365925 L14.86298,10.8390925 C14.6677924,11.1664275 14.4144469,11.4553503 14.11542,11.6916325 L14.192935,12.5966 C14.1970469,12.6436175 14.1865605,12.6907592 14.162905,12.7316 C14.158469,12.7402616 14.1534534,12.7486139 14.1478925,12.7566 L11.99042,15.686625 C11.9448784,15.7472545 11.8737441,15.7832734 11.79792,15.7840975 L10.8303925,15.7840975 L9.4603925,15.4690975 L8.0903925,15.7840975 L7.125425,15.7840975 C7.04946058,15.783852 6.97808331,15.74771 6.932925,15.686625 L4.775455,12.7566 C4.772793,12.7538738 4.77104551,12.7503867 4.770455,12.7466225 C4.73920478,12.7031118 4.7241753,12.6500327 4.727975,12.5965975 L4.812935,11.6116125 C4.51233063,11.348968 4.26088954,11.0349005 4.0703825,10.6841125 L4.0703825,10.6816125 C3.78638819,10.1567992 3.57771511,9.59460748 3.45051,9.0115975 C3.4353725,8.9416225 3.42292,8.8590975 3.41291,8.7690975 L3.41291,8.7665975 C3.34041,8.0815975 3.43049,6.8840975 3.102975,5.8890975 C3.102975,5.8890975 3.302925,6.1690975 3.602975,6.5115975 C3.83461176,6.78103837 4.08794138,7.03104186 4.36042,7.2590975 C4.58853645,7.46049042 4.8545576,7.61432405 5.1428925,7.7115825 L5.24543,6.5116 C5.33385409,5.4616234 6.21175668,4.65435215 7.26545,4.65409 L7.2728975,4.65409 C7.89223823,4.67358528 8.49494579,4.85924597 9.0178975,5.1916375 C9.1826207,5.29768912 9.32387051,5.43636348 9.432935,5.5991075 L9.490435,5.5991075 C9.58574359,5.45615299 9.70702244,5.3323454 9.84798,5.2341075 C10.3816262,4.87369366 11.0067902,4.67252525 11.65048,4.65409 L11.6579275,4.65409 C12.7112979,4.65516841 13.5887259,5.4620042 13.677945,6.51159 L13.780485,7.73409 C14.0696661,7.66484184 14.3385558,7.52868272 14.56552,7.3365675 C14.8393492,7.1210168 15.0936648,6.88177106 15.32552,6.6216025 C15.6579175,6.2541025 15.8929025,5.9316025 15.92049,5.8941025 C15.552935,7.021575 15.717975,8.4040825 15.572955,9.0116025 C15.56293,9.054125 15.55292,9.096605 15.54047,9.139115 L15.54048,9.139115 Z" id="Shape"></path>
            </g>
        </g>
    </g>
</svg>