<?xml version="1.0" encoding="UTF-8"?>
<svg width="24px" height="24px" viewBox="0 0 24 24" version="1.1" xmlns="http://www.w3.org/2000/svg" xmlns:xlink="http://www.w3.org/1999/xlink">
    <title>94F7F529-0F72-477C-922A-2201AB1D0D2D@1x</title>
    <g id="Icons" stroke="none" stroke-width="1" fill="none" fill-rule="evenodd">
        <g id="Icons/block">
            <g id="Group" fill="#FFFFFF" fill-opacity="0">
                <g id="Rectangle">
                    <rect x="0" y="0" width="24" height="24" rx="2"></rect>
                </g>
            </g>
            <g id="block-24px" transform="translate(3.000000, 3.000000)" fill="currentColor">
                <path d="M9,0.666666667 C4.4,0.666666667 0.666666667,4.4 0.666666667,9 C0.666666667,13.6 4.4,17.3333333 9,17.3333333 C13.6,17.3333333 17.3333333,13.6 17.3333333,9 C17.3333333,4.4 13.6,0.666666667 9,0.666666667 Z M2.33333333,9 C2.33333333,5.31666667 5.31666667,2.33333333 9,2.33333333 C10.5416667,2.33333333 11.9583333,2.85833333 13.0833333,3.74166667 L3.74166667,13.0833333 C2.85833333,11.9583333 2.33333333,10.5416667 2.33333333,9 Z M9,15.6666667 C7.45833333,15.6666667 6.04166667,15.1416667 4.91666667,14.2583333 L14.2583333,4.91666667 C15.1416667,6.04166667 15.6666667,7.45833333 15.6666667,9 C15.6666667,12.6833333 12.6833333,15.6666667 9,15.6666667 Z" id="Shape"></path>
            </g>
        </g>
    </g>
</svg>