<?xml version="1.0" encoding="UTF-8" ?>
<svg width="32px" height="32px" viewBox="0 0 32 32" version="1.1" xmlns="http://www.w3.org/2000/svg" xmlns:xlink="http://www.w3.org/1999/xlink">
    <!-- Generator: sketchtool 63.1 (101010) - https://sketch.com -->
    <title>369857ca-9f27-45a6-8e46-9f26c51787a1@1.00x</title>
    <desc>Created with sketchtool.</desc>
    <g id="Icons" stroke="none" stroke-width="1" fill="none" fill-rule="evenodd">
        <g id="Icons/32/Products/catalog/default" fill="currentColor">
            <g id="Group-18" transform="translate(7.000000, 9.000000)">
                <path d="M18.62328,0.07496 L17.2534075,0.0699575619 L12.40331,0.0699575619 C11.228065,0.0685663197 10.132724,0.664746366 9.4958375,1.65246 C8.85872939,0.666221538 7.76493643,0.0703829896 6.59081,0.0699575619 L0.3784075,0.0699575619 C0.228034647,0.0702939038 0.106203302,0.192087258 0.1058225,0.34246 L0.0983775,1.70996 L0.0983775,13.83996 C0.098700552,13.990308 0.220489577,14.1121149 0.3708375,14.11246 L1.7383925,14.1174643 L18.6158325,14.1174643 C18.6878055,14.1178635 18.7569841,14.0896266 18.8081175,14.0389744 C18.8592508,13.9883221 18.8881405,13.9194136 18.8884175,13.84744 L18.8958625,12.47744 L18.8958625,0.34994 C18.8956742,0.199084069 18.7741285,0.0764693333 18.62328,0.07496 Z M5.0134175,1.70246228 L6.59081,1.70246228 C7.0768651,1.70229399 7.54306192,1.89529989 7.88676042,2.23898715 C8.23045893,2.5826744 8.42348009,3.04886489 8.42332768,3.53492 L8.42332768,12.06736 C8.33743903,11.9829327 8.24556594,11.9048179 8.148425,11.833625 C7.69129028,11.4862035 7.13250713,11.2989134 6.5583375,11.3006675 L1.7308225,11.3006675 L1.7308225,1.7099375 C1.73192588,1.70632994 1.73477129,1.70352024 1.7383925,1.70246228 L3.0183,1.70246228 L5.0134175,1.70246228 Z M3.0983775,5.06995513 L5.8483775,5.06995513 C6.12451987,5.06995513 6.3483775,5.29381276 6.3483775,5.56995513 C6.3483775,5.84609751 6.12451987,6.06995513 5.8483775,6.06995513 L3.0983775,6.06995513 C2.82223513,6.06995513 2.5983775,5.84609751 2.5983775,5.56995513 C2.5983775,5.29381276 2.82223513,5.06995513 3.0983775,5.06995513 Z M3.0983775,7.06995513 L4.5983775,7.06995513 C4.87451987,7.06995513 5.0983775,7.29381276 5.0983775,7.56995513 C5.0983775,7.84609751 4.87451987,8.06995513 4.5983775,8.06995513 L3.0983775,8.06995513 C2.82223513,8.06995513 2.5983775,7.84609751 2.5983775,7.56995513 C2.5983775,7.29381276 2.82223513,7.06995513 3.0983775,7.06995513 Z M3.0983775,9.06995513 L3.3483775,9.06995513 C3.62451987,9.06995513 3.8483775,9.29381276 3.8483775,9.56995513 C3.8483775,9.84609751 3.62451987,10.0699551 3.3483775,10.0699551 L3.0983775,10.0699551 C2.82223513,10.0699551 2.5983775,9.84609751 2.5983775,9.56995513 C2.5983775,9.29381276 2.82223513,9.06995513 3.0983775,9.06995513 Z M3.0983775,3.06995513 L6.8483775,3.06995513 C7.12451987,3.06995513 7.3483775,3.29381276 7.3483775,3.56995513 C7.3483775,3.84609751 7.12451987,4.06995513 6.8483775,4.06995513 L3.0983775,4.06995513 C2.82223513,4.06995513 2.5983775,3.84609751 2.5983775,3.56995513 C2.5983775,3.29381276 2.82223513,3.06995513 3.0983775,3.06995513 Z M12.40331,1.70246226 L17.2534075,1.70246226 C17.2574133,1.70273297 17.2605981,1.70593065 17.2608525,1.7099375 L17.26073,11.300665 L12.4057625,11.300665 C11.7213241,11.301773 11.0638246,11.5674937 10.5708023,12.0422425 L10.5708023,3.5349175 C10.5706718,3.04887107 10.7636987,2.58269507 11.1073904,2.23901326 C11.451082,1.89533144 11.9172636,1.70231789 12.40331,1.70246226 Z" id="Shape"></path>
            </g>
        </g>
    </g>
</svg>