<?xml version="1.0" encoding="UTF-8"?>
<svg width="24px" height="24px" viewBox="0 0 24 24" version="1.1" xmlns="http://www.w3.org/2000/svg" xmlns:xlink="http://www.w3.org/1999/xlink">
    <title>A7312DE9-777B-46E5-A67E-A4CF5E456056@1x</title>
    <g id="Icons" stroke="none" stroke-width="1" fill="none" fill-rule="evenodd">
        <g id="Icons/draft">
            <g id="Group" fill="#FFFFFF" fill-opacity="0">
                <g id="Rectangle">
                    <rect x="0" y="0" width="24" height="24" rx="2"></rect>
                </g>
            </g>
            <g id="description-24px" transform="translate(5.000000, 3.000000)" fill="currentColor">
                <path d="M9,0 L1.8,0 C0.81,0 0.009,0.81 0.009,1.8 L0,16.2 C0,17.19 0.801,18 1.791,18 L12.6,18 C13.59,18 14.4,17.19 14.4,16.2 L14.4,5.4 L9,0 Z M10.8,14.4 L3.6,14.4 L3.6,12.6 L10.8,12.6 L10.8,14.4 Z M10.8,10.8 L3.6,10.8 L3.6,9 L10.8,9 L10.8,10.8 Z M8.1,6.3 L8.1,1.35 L13.05,6.3 L8.1,6.3 Z" id="Shape"></path>
            </g>
        </g>
    </g>
</svg>