<?xml version="1.0" encoding="UTF-8"?>
<svg width="32px" height="32px" viewBox="0 0 32 32" version="1.1" xmlns="http://www.w3.org/2000/svg" xmlns:xlink="http://www.w3.org/1999/xlink">
    <title>8F2C8894-B29E-4B23-82B1-1671FC80CC53@1x</title>
    <g id="Icons" stroke="none" stroke-width="1" fill="none" fill-rule="evenodd">
        <g id="Logos/experiments" fill="currentColor">
            <path d="M20.2210295,10.765 C20.6794258,10.765 21.0510295,11.1366037 21.0510295,11.595 L21.0510295,11.595 L21.0510295,12.7875 C21.0510295,13.2458963 20.6794258,13.6175 20.2210295,13.6175 L20.2210295,13.6175 L19.1760295,13.6175 L19.1760295,17.465 C19.1783661,17.6539767 19.2414794,17.8371806 19.3560295,17.9875 L19.3560295,17.9875 L24.6935295,25.0125 L24.780741,25.146221 C25.075724,25.6480465 25.0974883,26.2699592 24.8294764,26.7948763 C24.5370997,27.3675131 23.9489873,27.7285088 23.3060295,27.73 L23.3060295,27.73 L8.71102946,27.73 C8.06807157,27.7285088 7.47995923,27.3675131 7.18758256,26.7948763 C6.89520588,26.2222395 6.9476869,25.5341699 7.32352946,25.0125 L7.32352946,25.0125 L12.6610295,17.995 C12.777113,17.8426321 12.8403112,17.6565486 12.8410295,17.465 L12.8410295,17.465 L12.8410295,13.6175 L11.7960295,13.6175 C11.3376331,13.6175 10.9660295,13.2458963 10.9660295,12.7875 L10.9660295,12.7875 L10.9660295,11.595 C10.9660295,11.1366037 11.3376331,10.765 11.7960295,10.765 L11.7960295,10.765 Z M20.1210295,11.695 L11.8960295,11.695 L11.8960295,12.695 L13.3060295,12.695 C13.5628419,12.695 13.7710295,12.9031876 13.7710295,13.16 L13.7710295,13.16 L13.7710295,14.41 L15.3260295,14.41 C15.5828419,14.41 15.7910295,14.6181876 15.7910295,14.875 C15.7910295,15.1318124 15.5828419,15.34 15.3260295,15.34 L15.3260295,15.34 L13.7710295,15.34 L13.7710295,16.0475 L15.3310295,16.0475 C15.5878419,16.0475 15.7960295,16.2556876 15.7960295,16.5125 C15.7960295,16.7693124 15.5878419,16.9775 15.3310295,16.9775 L15.3310295,16.9775 L13.7760295,16.9775 L13.7760295,17.4575 C13.7752676,17.5336384 13.7694213,17.6096409 13.7585295,17.685 L13.7585295,17.685 L15.3260295,17.685 C15.5828419,17.685 15.7910295,17.8931876 15.7910295,18.15 C15.7910295,18.4068124 15.5828419,18.615 15.3260295,18.615 L15.3260295,18.615 L13.3535295,18.615 L8.06602946,25.5675 C7.89181875,25.8017714 7.86938484,26.1158461 8.00852946,26.3725 C8.14109052,26.6381551 8.41416875,26.8043344 8.71102946,26.8000828 L8.71102946,26.8000828 L23.3110295,26.8000828 C23.6060949,26.8024088 23.8767581,26.6365184 24.0085295,26.3725 C24.1426931,26.1121149 24.1174991,25.7981583 23.9435295,25.5625 L23.9435295,25.5625 L18.6260295,18.5575 C18.3880759,18.2429386 18.2590676,17.8594243 18.2585295,17.465 L18.2585295,17.465 L18.2585295,13.1525 C18.2624584,12.9034086 18.4619962,12.7016659 18.7110295,12.695 L18.7110295,12.695 L20.1210295,12.695 L20.1210295,11.695 Z M12.6885295,21.1925 C12.9152259,20.9143989 13.3071351,20.8358075 13.6235295,21.005 L13.6235295,21.005 L16.1835295,22.4175 C17.1654016,22.9584401 18.3436914,23.0093082 19.3685295,22.555 L19.3685295,22.555 L19.8135295,22.3575 C20.0062953,22.2733119 20.2316419,22.3322328 20.3585295,22.5 L20.3585295,22.5 L22.3385295,25.125 C22.4425787,25.2617214 22.4596966,25.4457583 22.382648,25.5993242 C22.3055994,25.7528901 22.1478321,25.8491819 21.9760295,25.8475217 L21.9760295,25.8475217 L9.90352946,25.8475217 C9.73028651,25.8473216 9.57235181,25.748245 9.49679657,25.5923458 C9.42124133,25.4364466 9.44132925,25.2510929 9.54852946,25.115 L9.54852946,25.115 Z M15.1110295,7.69 C15.6992127,7.69 16.1760295,8.16681674 16.1760295,8.755 C16.1760295,9.34318326 15.6992127,9.82 15.1110295,9.82 C14.5228462,9.82 14.0460295,9.34318326 14.0460295,8.755 C14.0460295,8.16681674 14.5228462,7.69 15.1110295,7.69 Z M18.1235295,4.2 C19.2004847,4.2 20.0735295,5.07304474 20.0735295,6.15 C20.0735295,7.22695526 19.2004847,8.1 18.1235295,8.1 C17.0465742,8.1 16.1735295,7.22695526 16.1735295,6.15 C16.1735295,5.07304474 17.0465742,4.2 18.1235295,4.2 Z" id="Combined-Shape"></path>
        </g>
    </g>
</svg>