<?xml version="1.0" encoding="UTF-8" ?>
<svg width="32px" height="32px" viewBox="0 0 32 32" version="1.1" xmlns="http://www.w3.org/2000/svg" xmlns:xlink="http://www.w3.org/1999/xlink">
    <!-- Generator: sketchtool 63.1 (101010) - https://sketch.com -->
    <title>ed6cb8bb-f365-4664-b8ae-932dd297bd65@1.00x</title>
    <desc>Created with sketchtool.</desc>
    <g id="Icons" stroke="none" stroke-width="1" fill="none" fill-rule="evenodd">
        <g id="Icons/32/Products/hodor/default" fill="currentColor">
            <g id="Group-13" transform="translate(9.000000, 7.000000)">
                <path d="M13.9683725,4.8543925 C13.968116,3.80841026 13.5523118,2.8053799 12.8124499,2.06599954 C12.072588,1.32661917 11.0692872,0.911468078 10.023305,0.911892175 L4.4509175,0.911892175 C2.27370577,0.912354824 0.508822733,2.67718079 0.50829,4.8543925 L0.5108525,4.9293925 L0.7383925,7.8668925 L0.3583925,12.3518925 C0.241004557,13.7371205 0.631012721,15.1178062 1.455805,16.2368925 C2.77049962,18.0226058 4.85588411,19.0768867 7.07335875,19.0768867 C9.29083339,19.0768867 11.3762179,18.0226058 12.6909125,16.2368925 C13.5157029,15.1178053 13.90571,13.7371201 13.7883225,12.3518925 L13.4958425,8.8918925 L13.96081,4.9668925 C13.9658197,4.92960138 13.9683725,4.8920186 13.9683725,4.8543925 L13.9683725,4.8543925 Z M8.1458725,16.639395 L6.0034175,16.639395 C5.78856996,16.6394469 5.58250552,16.5541272 5.43057973,16.4022127 C5.27865395,16.2502982 5.19331903,16.04424 5.19335749,15.8293925 C5.19432322,15.2378719 5.67433629,14.7589778 6.2658575,14.7593922 L7.8808575,14.7593922 C8.47237871,14.7589778 8.95239178,15.2378719 8.9533578,15.8293925 C8.95374071,16.2759245 8.59239356,16.6383937 8.1458625,16.639395 L8.1458725,16.639395 Z M10.2558575,16.2343975 C10.2831371,16.1011348 10.2965552,15.9654122 10.2958975,15.8293925 C10.2939011,14.4968417 9.21340965,13.4174867 7.8808575,13.4168925 L6.2658575,13.4168925 C4.93330535,13.4174867 3.85281389,14.4968417 3.8508175,15.8293925 C3.85016102,15.9654121 3.86357912,16.1011347 3.8908575,16.2343975 C3.50202132,15.9384455 3.15768854,15.5882058 2.8683975,15.1943925 C2.2966994,14.4179129 2.02660889,13.4601578 2.1083975,12.4993925 L2.3758525,9.3393925 L2.45581,8.3843925 L2.58081,6.9068925 L2.6284175,6.3468925 C2.6874789,6.35188371 2.7468561,6.35188371 2.8059175,6.3468925 L2.8108,6.3468925 C2.8608475,6.3418925 3.3433925,6.2993925 3.7808925,6.2943925 C3.82370269,6.35853057 3.87407286,6.41728597 3.9309175,6.4693925 C4.03520486,6.56761987 4.15742264,6.64485793 4.2909025,6.6968925 C4.39880039,6.73736578 4.5113202,6.76423939 4.6258625,6.7768925 C4.70555576,6.7856684 4.78568875,6.78984199 4.8658625,6.7893925 C5.04901131,6.78744698 5.23186081,6.77408774 5.4133475,6.7493925 C5.585835,6.7293925 5.75832,6.7018925 5.9159125,6.6743925 C5.95460999,6.7637731 6.00595694,6.8471258 6.0683775,6.9218925 C6.3696639,7.28099912 6.87986078,7.38282736 7.2959175,7.1668925 L9.0583675,6.2518925 C9.04678711,6.63489689 9.25520403,6.99080545 9.59489536,7.16810821 C9.93458669,7.34541098 10.3457448,7.31289119 10.65334,7.0843925 L11.5258975,6.4368925 L11.6659125,8.0968925 L11.68581,8.3493925 L11.76833,9.3018925 L11.76833,9.3168925 L11.8508475,10.2868925 L12.0383475,12.4993925 C12.1201352,13.4601577 11.8500448,14.4179125 11.2783475,15.1943925 C10.9890438,15.5882097 10.6446975,15.9384511 10.2558475,16.2343975 L10.2558575,16.2343975 Z" id="Shape"></path>
                <polygon id="Path" points="10.2385125 9.18184 7.8207625 9.44934 7.8657625 9.84934 7.8707625 9.88934 7.9107625 10.24934 9.6057625 10.06184 10.3260125 9.98184 10.2832625 9.58184"></polygon>
                <polygon id="Path" points="3.8482625 9.48434 3.8357625 9.58184 3.7932625 9.98184 6.2082625 10.24934 6.2535125 9.84934 6.2657625 9.72684 6.2682625 9.72684 6.2982625 9.44934 3.8807625 9.18184"></polygon>
            </g>
        </g>
    </g>
</svg>