<?xml version="1.0" encoding="UTF-8"?>
<svg width="32px" height="32px" viewBox="0 0 32 32" version="1.1" xmlns="http://www.w3.org/2000/svg" xmlns:xlink="http://www.w3.org/1999/xlink">
    <!-- Generator: sketchtool 61 (101010) - https://sketch.com -->
    <title>6e378a68-b5e0-4765-927b-5ceaa667226f@1.00x</title>
    <desc>Created with sketchtool.</desc>
    <g id="Icons" stroke="none" stroke-width="1" fill="none" fill-rule="evenodd">
        <g id="Icons/32/update">
            <g id="update-24px">
                <rect id="Rectangle" x="0" y="0" width="32" height="32"></rect>
                <path d="M14.8148148,11.2592593 L14.8148148,17.1851852 L19.8518519,20.1718519 L20.7644444,18.6548148 L16.5925926,16.1777778 L16.5925926,11.2592593 L14.8148148,11.2592593 Z M26.6666667,13.6296296 L26.6666667,5.33333333 L23.5377778,8.46222222 C21.6177778,6.53037037 18.9511111,5.33333333 16,5.33333333 C10.1096296,5.33333333 5.33333333,10.1096296 5.33333333,16 C5.33333333,21.8903704 10.1096296,26.6666667 16,26.6666667 C21.8903704,26.6666667 26.6666667,21.8903704 26.6666667,16 L24.2962963,16 C24.2962963,20.5748148 20.5748148,24.2962963 16,24.2962963 C11.4251852,24.2962963 7.7037037,20.5748148 7.7037037,16 C7.7037037,11.4251852 11.4251852,7.7037037 16,7.7037037 C18.2874074,7.7037037 20.3614815,8.64 21.8666667,10.1333333 L18.3703704,13.6296296 L26.6666667,13.6296296 Z" id="Shape" fill="currentColor"></path>
            </g>
        </g>
    </g>
</svg>