<?xml version="1.0" encoding="UTF-8"?>
<svg width="24px" height="24px" viewBox="0 0 24 24" version="1.1" xmlns="http://www.w3.org/2000/svg" xmlns:xlink="http://www.w3.org/1999/xlink">
    <!-- Generator: sketchtool 61 (101010) - https://sketch.com -->
    <title>453951b3-45c7-412f-bb1b-0878a1119da3@1.00x</title>
    <desc>Created with sketchtool.</desc>
    <g id="Icons" stroke="none" stroke-width="1" fill="none" fill-rule="evenodd">
        <g id="Icons/24/running">
            <g id="stop-24px-(1)">
                <polygon id="Path" points="0 0 24 0 24 24 0 24"></polygon>
                <g id="Group" transform="translate(4.000000, 4.000000)">
                    <circle id="Oval" fill="currentColor" cx="8" cy="8" r="8"></circle>
                    <path d="M12.6131071,6.22618359 C12.6131071,6.37499329 12.5535832,6.523803 12.4464402,6.63094598 L7.32738651,11.7499997 C7.22024352,11.8571427 7.07143382,11.9166666 6.92262412,11.9166666 C6.77381442,11.9166666 6.62500472,11.8571427 6.51786173,11.7499997 L3.55357249,8.78571045 C3.4464295,8.67856747 3.38690562,8.52975777 3.38690562,8.38094807 C3.38690562,8.23213837 3.4464295,8.08332866 3.55357249,7.97618568 L4.36309726,7.1666609 C4.47024025,7.05951792 4.61904995,6.99999404 4.76785965,6.99999404 C4.91666935,6.99999404 5.06547905,7.05951792 5.17262203,7.1666609 L6.92262412,8.92261538 L10.8273907,5.01189643 C10.9345337,4.90475345 11.0833434,4.84522957 11.2321531,4.84522957 C11.3809628,4.84522957 11.5297725,4.90475345 11.6369155,5.01189643 L12.4464402,5.82142121 C12.5535832,5.92856419 12.6131071,6.07737389 12.6131071,6.22618359 Z" id="" fill="#FFFFFF" fill-rule="nonzero"></path>
                </g>
            </g>
        </g>
    </g>
</svg>