<?xml version="1.0" encoding="UTF-8"?>
<svg width="32px" height="32px" viewBox="0 0 32 32" version="1.1" xmlns="http://www.w3.org/2000/svg" xmlns:xlink="http://www.w3.org/1999/xlink">
    <title>f7312a8d-99cd-4c82-99fc-fb3e88ce0bb8@1.00x</title>
    <g id="Icons" stroke="none" stroke-width="1" fill="none" fill-rule="evenodd">
        <g id="Icons/32/Products/dashboard/default" fill="currentColor">
            <g id="Group" transform="translate(8.000000, 8.000000)">
                <path d="M5.85891325,9.00692017 C6.21552075,9.00692017 6.34483524,9.04405041 6.47520561,9.11377325 C6.60557599,9.18349609 6.70789141,9.28581151 6.77761425,9.41618189 C6.84733709,9.54655226 6.88446733,9.67586675 6.88446733,10.0324742 L6.88446733,14.8633004 C6.88446733,15.2199079 6.84733709,15.3492224 6.77761425,15.4795928 C6.70789141,15.6099632 6.60557599,15.7122786 6.47520561,15.7820014 C6.34483524,15.8517243 6.21552075,15.8888545 5.85891325,15.8888545 L1.02555408,15.8888545 C0.668946584,15.8888545 0.539632089,15.8517243 0.409261719,15.7820014 C0.278891348,15.7122786 0.176575919,15.6099632 0.106853082,15.4795928 C0.0371302445,15.3492224 -3.43679191e-15,15.2199079 -3.30124737e-15,14.8633004 L-3.35935682e-15,10.0324742 C-3.40302864e-15,9.67586675 0.0371302445,9.54655226 0.106853082,9.41618189 C0.176575919,9.28581151 0.278891348,9.18349609 0.409261719,9.11377325 C0.539632089,9.04405041 0.668946584,9.00692017 1.02555408,9.00692017 L5.85891325,9.00692017 Z M14.8632126,9.00692017 C15.2198201,9.00692017 15.3491346,9.04405041 15.4795049,9.11377325 C15.6098753,9.18349609 15.7121907,9.28581151 15.7819136,9.41618189 C15.8516364,9.54655226 15.8887667,9.67586675 15.8887667,10.0324742 L15.8887667,14.8633004 C15.8887667,15.2199079 15.8516364,15.3492224 15.7819136,15.4795928 C15.7121907,15.6099632 15.6098753,15.7122786 15.4795049,15.7820014 C15.3491346,15.8517243 15.2198201,15.8888545 14.8632126,15.8888545 L10.0325224,15.8888545 C9.67591492,15.8888545 9.54660042,15.8517243 9.41623005,15.7820014 C9.28585968,15.7122786 9.18354425,15.6099632 9.11382141,15.4795928 C9.04409858,15.3492224 9.00696833,15.2199079 9.00696833,14.8633004 L9.00696833,10.0324742 C9.00696833,9.67586675 9.04409858,9.54655226 9.11382141,9.41618189 C9.18354425,9.28581151 9.28585968,9.18349609 9.41623005,9.11377325 C9.54660042,9.04405041 9.67591492,9.00692017 10.0325224,9.00692017 L14.8632126,9.00692017 Z M5.85891325,-1.07693701e-13 C6.21552075,-1.07442478e-13 6.34483524,0.0371302445 6.47520561,0.106853082 C6.60557599,0.176575919 6.70789141,0.278891348 6.77761425,0.409261719 C6.84733709,0.539632089 6.88446733,0.668946584 6.88446733,1.02555408 L6.88446733,5.85886792 C6.88446733,6.21547542 6.84733709,6.34478991 6.77761425,6.47516028 C6.70789141,6.60553065 6.60557599,6.70784608 6.47520561,6.77756892 C6.34483524,6.84729176 6.21552075,6.884422 5.85891325,6.884422 L1.02555408,6.884422 C0.668946584,6.884422 0.539632089,6.84729176 0.409261719,6.77756892 C0.278891348,6.70784608 0.176575919,6.60553065 0.106853082,6.47516028 C0.0371302445,6.34478991 -3.43679191e-15,6.21547542 -3.30124737e-15,5.85886792 L-3.35935682e-15,1.02555408 C-3.40302864e-15,0.668946584 0.0371302445,0.539632089 0.106853082,0.409261719 C0.176575919,0.278891348 0.278891348,0.176575919 0.409261719,0.106853082 C0.539632089,0.0371302445 0.668946584,-1.0757659e-13 1.02555408,-1.07462882e-13 L5.85891325,-1.07693701e-13 Z M14.8632126,-1.07637024e-13 C15.2198201,-1.07475409e-13 15.3491346,0.0371302445 15.4795049,0.106853082 C15.6098753,0.176575919 15.7121907,0.278891348 15.7819136,0.409261719 C15.8516364,0.539632089 15.8887667,0.668946584 15.8887667,1.02555408 L15.8887667,5.85886792 C15.8887667,6.21547542 15.8516364,6.34478991 15.7819136,6.47516028 C15.7121907,6.60553065 15.6098753,6.70784608 15.4795049,6.77756892 C15.3491346,6.84729176 15.2198201,6.884422 14.8632126,6.884422 L10.0325224,6.884422 C9.67591492,6.884422 9.54660042,6.84729176 9.41623005,6.77756892 C9.28585968,6.70784608 9.18354425,6.60553065 9.11382141,6.47516028 C9.04409858,6.34478991 9.00696833,6.21547542 9.00696833,5.85886792 L9.00696833,1.02555408 C9.00696833,0.668946584 9.04409858,0.539632089 9.11382141,0.409261719 C9.18354425,0.278891348 9.28585968,0.176575919 9.41623005,0.106853082 C9.54660042,0.0371302445 9.67591492,-1.0757659e-13 10.0325224,-1.07462882e-13 L14.8632126,-1.07637024e-13 Z" id="Combined-Shape"></path>
            </g>
        </g>
    </g>
</svg>
