<?xml version="1.0" encoding="UTF-8" ?>
<svg width="24px" height="24px" viewBox="0 0 24 24" version="1.1" xmlns="http://www.w3.org/2000/svg" xmlns:xlink="http://www.w3.org/1999/xlink">
    <!-- Generator: sketchtool 63.1 (101010) - https://sketch.com -->
    <title>ce32b207-044a-43de-9961-9b4417d90a8a@1.00x</title>
    <desc>Created with sketchtool.</desc>
    <g id="Icons" stroke="none" stroke-width="1" fill="none" fill-rule="evenodd">
        <g id="Icons/24/list-view">
            <g id="view_list-24px">
                <polygon id="Path" points="0 0 24 0 24 24 0 24"></polygon>
                <path d="M5,14 L7,14 C7.55228475,14 8,13.5522847 8,13 L8,11 C8,10.4477153 7.55228475,10 7,10 L5,10 C4.44771525,10 4,10.4477153 4,11 L4,13 C4,13.5522847 4.44771525,14 5,14 Z M5,19 L7,19 C7.55228475,19 8,18.5522847 8,18 L8,16 C8,15.4477153 7.55228475,15 7,15 L5,15 C4.44771525,15 4,15.4477153 4,16 L4,18 C4,18.5522847 4.44771525,19 5,19 Z M5,9 L7,9 C7.55228475,9 8,8.55228475 8,8 L8,6 C8,5.44771525 7.55228475,5 7,5 L5,5 C4.44771525,5 4,5.44771525 4,6 L4,8 C4,8.55228475 4.44771525,9 5,9 Z M10,14 L20,14 C20.5522847,14 21,13.5522847 21,13 L21,11 C21,10.4477153 20.5522847,10 20,10 L10,10 C9.44771525,10 9,10.4477153 9,11 L9,13 C9,13.5522847 9.44771525,14 10,14 Z M10,19 L20,19 C20.5522847,19 21,18.5522847 21,18 L21,16 C21,15.4477153 20.5522847,15 20,15 L10,15 C9.44771525,15 9,15.4477153 9,16 L9,18 C9,18.5522847 9.44771525,19 10,19 Z M9,6 L9,8 C9,8.55228475 9.44771525,9 10,9 L20,9 C20.5522847,9 21,8.55228475 21,8 L21,6 C21,5.44771525 20.5522847,5 20,5 L10,5 C9.44771525,5 9,5.44771525 9,6 Z" id="Shape" fill="currentColor"></path>
            </g>
        </g>
    </g>
</svg>