<?xml version="1.0" encoding="UTF-8"?>
<svg width="24px" height="24px" viewBox="0 0 24 24" version="1.1" xmlns="http://www.w3.org/2000/svg" xmlns:xlink="http://www.w3.org/1999/xlink">
    <title>5c1f851e-69a6-4dcb-b43c-3a96dc5a233b@1.00x</title>
    <g id="Icons" stroke="none" stroke-width="1" fill="none" fill-rule="evenodd">
        <g id="Icons/refresh">
            <g id="Icons/background" fill="#FFFFFF" fill-opacity="0">
                <rect id="Rectangle" x="0" y="0" width="24" height="24" rx="2"></rect>
            </g>
            <g id="refresh-24px" transform="translate(4.000000, 4.000000)" fill="#6E6E6E">
                <path d="M13.65,2.35 C12.2,0.9 10.21,0 8,0 C3.58,0 0.01,3.58 0.01,8 C0.01,12.42 3.58,16 8,16 C11.73,16 14.84,13.45 15.73,10 L13.65,10 C12.83,12.33 10.61,14 8,14 C4.69,14 2,11.31 2,8 C2,4.69 4.69,2 8,2 C9.66,2 11.14,2.69 12.22,3.78 L9,7 L16,7 L16,0 L13.65,2.35 Z" id="Path"></path>
            </g>
        </g>
    </g>
</svg>