<?xml version="1.0" encoding="UTF-8"?>
<svg width="24px" height="24px" viewBox="0 0 24 24" version="1.1" xmlns="http://www.w3.org/2000/svg" xmlns:xlink="http://www.w3.org/1999/xlink">
    <title>31ADE74A-9965-4DAC-B8DF-68E04427D492@1x</title>
    <g id="Icons" stroke="none" stroke-width="1" fill="none" fill-rule="evenodd">
        <g id="Icons/Copy">
            <g id="Group" fill="currentColor" fill-opacity="0">
                <g id="Rectangle">
                    <rect x="0" y="0" width="24" height="24" rx="2"></rect>
                </g>
            </g>
            <g id="content_copy-24px" transform="translate(2.000000, 2.000000)">
                <polygon id="Path" points="0 0 20 0 20 20 0 20"></polygon>
                <path d="M13.3333333,0.833333333 L3.33333333,0.833333333 C2.41666667,0.833333333 1.66666667,1.58333333 1.66666667,2.5 L1.66666667,14.1666667 L3.33333333,14.1666667 L3.33333333,2.5 L13.3333333,2.5 L13.3333333,0.833333333 Z M15.8333333,4.16666667 L6.66666667,4.16666667 C5.75,4.16666667 5,4.91666667 5,5.83333333 L5,17.5 C5,18.4166667 5.75,19.1666667 6.66666667,19.1666667 L15.8333333,19.1666667 C16.75,19.1666667 17.5,18.4166667 17.5,17.5 L17.5,5.83333333 C17.5,4.91666667 16.75,4.16666667 15.8333333,4.16666667 Z M15.8333333,17.5 L6.66666667,17.5 L6.66666667,5.83333333 L15.8333333,5.83333333 L15.8333333,17.5 Z" id="Shape" fill="currentColor"></path>
            </g>
        </g>
    </g>
</svg>