<?xml version="1.0" encoding="UTF-8"?>
<svg width="32px" height="32px" viewBox="0 0 32 32" version="1.1" xmlns="http://www.w3.org/2000/svg" xmlns:xlink="http://www.w3.org/1999/xlink">
    <title>c29f40e1-ea38-4d83-9594-92818f02ed6d@1.00x</title>
    <g id="Icons" stroke="none" stroke-width="1" fill="none" fill-rule="evenodd">
        <g id="Icons/32/Products/billing">
            <g id="Cost/Billing">
                <rect id="Rectangle" x="0" y="0" width="32" height="32"></rect>
                <path d="M25.2528791,14.2564712 C25.3020215,14.2564712 25.3433285,14.2914442 25.3528874,14.3381466 L25.3549705,14.3588122 L25.3549705,20.8721983 C25.3549705,21.2715157 25.0425622,21.5981855 24.6489432,21.6210097 L24.6048853,21.6222836 L7.40983566,21.6222836 C7.01051822,21.6222836 6.68408059,21.3101073 6.66127295,20.9165049 L6.66,20.8724479 L6.66,14.3588122 C6.66,14.309233 6.69497304,14.2680625 6.7415082,14.2585446 L6.76209147,14.2564712 L25.2528791,14.2564712 Z M12.1704434,17.9587223 L8.68810078,17.9587223 C8.63873992,17.9587223 8.597979,17.9936954 8.58856003,18.0402305 L8.58650853,18.0608138 L8.58650853,19.4077223 C8.58650853,19.4568648 8.62109935,19.4981717 8.66753895,19.5077306 L8.68810078,19.5098138 L12.1716915,19.5098138 C12.2210523,19.5098138 12.2608577,19.4746497 12.2700378,19.4282339 L12.2720357,19.4077223 L12.2720357,18.0608138 C12.2720357,18.0114529 12.2374448,17.9703098 12.1910052,17.9607953 L12.1704434,17.9587223 Z M24.7603938,10.39 C25.0751966,10.39 25.3326883,10.6346041 25.3535994,10.9438839 L25.3549705,10.9845767 L25.3549705,12.9328016 L6.66,12.9328016 L6.66,10.9845767 C6.66,10.6700131 6.90437488,10.4123022 7.21363556,10.3913724 L7.25432713,10.39 L24.7603938,10.39 Z" id="Shape" fill="currentColor"></path>
            </g>
        </g>
    </g>
</svg>
