<?xml version="1.0" encoding="UTF-8" ?>
<svg width="32px" height="32px" viewBox="0 0 32 32" version="1.1" xmlns="http://www.w3.org/2000/svg" xmlns:xlink="http://www.w3.org/1999/xlink">
    <!-- Generator: sketchtool 63.1 (101010) - https://sketch.com -->
    <title>3f83f1b1-4b40-42b4-89fd-d603e5423f06@1.00x</title>
    <desc>Created with sketchtool.</desc>
    <g id="Icons" stroke="none" stroke-width="1" fill="none" fill-rule="evenodd">
        <g id="Icons/32/Products/lake/default" fill="currentColor">
            <g id="Group-7" transform="translate(6.000000, 10.000000)">
                <path d="M1.7678875,5.7667925 L2.29047,8.3942925 L18.1228675,8.3942925 L18.64545,5.7667925 L1.7678875,5.7667925 Z M15.00043,7.58179501 C14.7588054,7.58179501 14.56293,7.38591708 14.56293,7.1442925 C14.56293,6.90266792 14.7588054,6.7067925 15.00043,6.7067925 C15.2420546,6.7067925 15.43793,6.90266792 15.43793,7.1442925 C15.4379585,7.26033369 15.3918741,7.37163035 15.3098209,7.4536841 C15.2277676,7.53573785 15.1164712,7.58182286 15.00043,7.58179501 L15.00043,7.58179501 Z M16.900455,7.581795 C16.6588304,7.581795 16.462955,7.38591708 16.462955,7.1442925 C16.462955,6.90266792 16.6588304,6.7067925 16.900455,6.7067925 C17.1420796,6.7067925 17.337955,6.90266792 17.337955,7.1442925 C17.337955,7.26032515 17.2918623,7.37160563 17.2098151,7.45365333 C17.1277679,7.53570104 17.0164876,7.581795 16.900455,7.581795 L16.900455,7.581795 Z" id="Shape"></path>
                <path d="M2.860415,10.7568125 L3.380435,13.3818125 L17.0329025,13.3818125 L17.55292,10.7568125 L2.860415,10.7568125 Z M13.9353675,12.5068142 C13.6944421,12.5074701 13.4985973,12.3127005 13.4979268,12.0717751 C13.4972597,11.8308498 13.6920201,11.6349959 13.9329455,11.6343141 C14.1738708,11.6336358 14.3697338,11.8283872 14.3704263,12.0693125 C14.3710155,12.3102281 14.1762826,12.5060542 13.9353675,12.5068142 L13.9353675,12.5068142 Z M15.8353925,12.5068142 C15.5944671,12.5074701 15.3986223,12.3127005 15.3979518,12.0717751 C15.3972847,11.8308498 15.5920451,11.6349959 15.8329705,11.6343141 C16.0738958,11.6336358 16.2697588,11.8283872 16.2704513,12.0693125 C16.2710405,12.3102281 16.0763076,12.5060542 15.8353925,12.5068142 L15.8353925,12.5068142 Z" id="Shape"></path>
                <path d="M0.680485,0.7768025 L0.940485,2.0918025 L1.202935,3.4043025 L19.2103825,3.4043025 L19.735405,0.7768025 L0.680485,0.7768025 Z M15.910465,2.54432198 C15.7340138,2.54485015 15.5746189,2.43903331 15.5066096,2.27621425 C15.4386003,2.11339518 15.4753709,1.92564035 15.5997743,1.80050401 C15.7241776,1.67536767 15.9117132,1.63749485 16.074929,1.70454649 C16.2381448,1.77159814 16.3448961,1.93036873 16.345404,2.10682 C16.3460359,2.34770645 16.151351,2.54353831 15.910465,2.54432198 L15.910465,2.54432198 Z M17.8103675,2.54432166 C17.5694421,2.54497759 17.3735973,2.350208 17.3729268,2.10928264 C17.3722597,1.86835727 17.5670201,1.67250338 17.8079455,1.67182159 C18.0488708,1.67114335 18.2447338,1.8658947 18.2454263,2.10682 C18.2460155,2.34773557 18.0512826,2.54356171 17.8103675,2.54432166 L17.8103675,2.54432166 Z" id="Shape"></path>
            </g>
        </g>
    </g>
</svg>