<?xml version="1.0" encoding="UTF-8"?>
<svg width="32px" height="32px" viewBox="0 0 32 32" version="1.1" xmlns="http://www.w3.org/2000/svg" xmlns:xlink="http://www.w3.org/1999/xlink">
    <title>0D71F6CF-DEE7-47EA-B954-C9A7295EC6C1@1x</title>
    <g id="Icons" stroke="none" stroke-width="1" fill="none" fill-rule="evenodd">
        <g id="biotech-24px">
            <rect id="Rectangle" x="0" y="0" width="32" height="32"></rect>
            <g id="Group" transform="translate(6.666667, 2.666667)" fill="currentColor">
                <path d="M4.12,7.17333333 C4.05333333,7.44 4,7.72 4,8 C4,8.72 4.22666667,9.37333333 4.61333333,9.92 C3.45333333,10.6133333 2.66666667,11.88 2.66666667,13.3333333 C2.66666667,15.5466667 4.45333333,17.3333333 6.66666667,17.3333333 L6.66666667,17.3333333 L17.3333333,17.3333333 C17.3333333,18.8 16.1333333,20 14.6666667,20 L14.6666667,20 L10.6666667,20 L10.6666667,22.6666667 L16,22.6666667 C17.4666667,22.6666667 18.6666667,23.8666667 18.6666667,25.3333333 L18.6666667,25.3333333 L-1.49213975e-13,25.3333333 C-1.49213975e-13,23.8666667 1.2,22.6666667 2.66666667,22.6666667 L2.66666667,22.6666667 L6.66666667,22.6666667 L6.66666667,20 C2.98666667,20 -1.49213975e-13,17.0133333 -1.49213975e-13,13.3333333 C-1.49213975e-13,10.56 1.70666667,8.17333333 4.12,7.17333333 Z M9.97333333,4.17443857e-14 L10.4266667,1.25333333 L11.68,0.8 L15.3333333,10.84 L14.08,11.2933333 L14.5333333,12.5466667 L12.0266667,13.4533333 L11.5733333,12.2 L10.32,12.6533333 L9.53333333,10.4933333 C10.2266667,9.88 10.6666667,9 10.6666667,8 C10.6666667,6.18666667 9.21333333,4.72 7.41333333,4.68 L7.41333333,4.68 L6.66666667,2.62666667 L7.92,2.16 L7.46666667,0.906666667 L9.97333333,4.17443857e-14 Z M7.33333333,6 C8.43790283,6 9.33333333,6.8954305 9.33333333,8 C9.33333333,9.1045695 8.43790283,10 7.33333333,10 C6.22876383,10 5.33333333,9.1045695 5.33333333,8 C5.33333333,6.8954305 6.22876383,6 7.33333333,6 Z" id="Combined-Shape"></path>
            </g>
        </g>
    </g>
</svg>