<?xml version="1.0" encoding="UTF-8"?>
<svg width="32px" height="32px" viewBox="0 0 32 32" version="1.1" xmlns="http://www.w3.org/2000/svg" xmlns:xlink="http://www.w3.org/1999/xlink">
    <title>27E983A9-C30C-4CAB-90C0-70DD0243B050@1x</title>
    <g id="Icons" stroke="none" stroke-width="1" fill="none" fill-rule="evenodd">
        <g id="Logos/Mono/litmus">
            <path d="M12.8109832,1.83276827 L5.2909832,6.15460736 C3.30462933,7.29619003 2.08,9.41246786 2.08,11.7034966 L2.08,20.2965034 C2.08,22.5875322 3.30462933,24.7038099 5.2909832,25.8453926 L12.8109832,30.1672317 C14.7855602,31.3020461 17.2144398,31.3020461 19.1890168,30.1672317 L26.7090168,25.8453926 C28.6953707,24.7038099 29.92,22.5875322 29.92,20.2965034 L29.92,11.7034966 C29.92,9.41246786 28.6953707,7.29619003 26.7090168,6.15460736 L19.1890168,1.83276827 C17.2144398,0.697953934 14.7855602,0.697953934 12.8109832,1.83276827 Z" id="Path-Copy" fill="currentColor"></path>
            <g id="Group" transform="translate(9.500000, 6.000000)" fill="#FFFFFF">
                <path d="M2,2.53021107 C2,2.1705768 2.09119655,2 2.47825206,2 C2.86530756,2 7.06437086,2 7.46673124,2 C7.86909162,2 8,2.11151333 8,2.47485235 C8,2.83819137 8,7.24180558 8,7.57644795 C8,7.91109032 7.86210725,8 7.55330705,8 C7.24450684,8 2.86670443,8 2.47825206,8 C2.08979968,8 2,7.8688197 2,7.57644795 C2,7.28407619 2,2.88984533 2,2.53021107 Z" id="Path-4" transform="translate(5.000000, 5.000000) rotate(45.000000) translate(-5.000000, -5.000000) "></path>
                <path d="M7,7.53021107 C7,7.1705768 7.09119655,7 7.47825206,7 C7.86530756,7 12.0643709,7 12.4667312,7 C12.8690916,7 13,7.11151333 13,7.47485235 C13,7.83819137 13,12.2418056 13,12.5764479 C13,12.9110903 12.8621073,13 12.553307,13 C12.2445068,13 7.86670443,13 7.47825206,13 C7.08979968,13 7,12.8688197 7,12.5764479 C7,12.2840762 7,7.88984533 7,7.53021107 Z" id="Path-4-Copy-2" transform="translate(10.000000, 10.000000) rotate(45.000000) translate(-10.000000, -10.000000) "></path>
                <path d="M2,12.5302111 C2,12.1705768 2.09119655,12 2.47825206,12 C2.86530756,12 7.06437086,12 7.46673124,12 C7.86909162,12 8,12.1115133 8,12.4748524 C8,12.8381914 8,17.2418056 8,17.5764479 C8,17.9110903 7.86210725,18 7.55330705,18 C7.24450684,18 2.86670443,18 2.47825206,18 C2.08979968,18 2,17.8688197 2,17.5764479 C2,17.2840762 2,12.8898453 2,12.5302111 Z" id="Path-4-Copy" transform="translate(5.000000, 15.000000) rotate(45.000000) translate(-5.000000, -15.000000) "></path>
            </g>
        </g>
    </g>
</svg>