<?xml version="1.0" encoding="UTF-8" ?>
<svg width="16px" height="16px" viewBox="0 0 16 16" version="1.1" xmlns="http://www.w3.org/2000/svg" xmlns:xlink="http://www.w3.org/1999/xlink">
    <!-- Generator: sketchtool 63.1 (101010) - https://sketch.com -->
    <title>2c19ac2b-537a-4b9e-8ee4-56f5b8ca40c3@1.00x</title>
    <desc>Created with sketchtool.</desc>
    <g id="Icons" stroke="none" stroke-width="1" fill="none" fill-rule="evenodd">
        <g id="Icons/16/remove/outline-box">
            <g id="add_circle_outline-24px">
                <polygon id="Path" points="0 0 16 0 16 16 0 16"></polygon>
                <path d="M5.58,7.51939394 L5.58,8.48909091 L10.4284848,8.48909091 L10.4284848,7.51939394 L5.58,7.51939394 Z M5,4 L11,4 C11.5522847,4 12,4.44771525 12,5 L12,11 C12,11.5522847 11.5522847,12 11,12 L5,12 C4.44771525,12 4,11.5522847 4,11 L4,5 C4,4.44771525 4.44771525,4 5,4 Z M4,3 L12,3 C12.5522847,3 13,3.44771525 13,4 L13,12 C13,12.5522847 12.5522847,13 12,13 L4,13 C3.44771525,13 3,12.5522847 3,12 L3,4 C3,3.44771525 3.44771525,3 4,3 Z" id="Shape" fill="currentColor"></path>
            </g>
        </g>
    </g>
</svg>