<?xml version="1.0" encoding="UTF-8"?>
<svg width="24px" height="24px" viewBox="0 0 24 24" version="1.1" xmlns="http://www.w3.org/2000/svg" xmlns:xlink="http://www.w3.org/1999/xlink">
    <title>D59145B7-CE6F-46FF-9609-5E6D4BCDEF70@1x</title>
    <g id="Icons" stroke="none" stroke-width="1" fill="none" fill-rule="evenodd">
        <g id="Icons/promote">
            <g id="Group" fill="#FFFFFF" fill-opacity="0">
                <g id="Rectangle">
                    <rect x="0" y="0" width="24" height="24" rx="2"></rect>
                </g>
            </g>
            <path d="M14.5013279,18.4380426 C14.5770974,17.2446725 16.3766239,17.2446725 16.4145086,18.4380426 L16.4145086,18.4380426 L16.4145086,18.5327545 C16.4145086,19.4041042 15.78941,20.7111287 15.543159,20.9573796 C15.5052742,21.0142068 15.4295047,21.0142068 15.3726775,20.9573796 C15.1453689,20.7111287 14.5013279,19.4041042 14.5013279,18.5327545 L14.5013279,18.5327545 Z M11.394777,18.4380426 C11.4516041,17.2446725 13.270073,17.2446725 13.3079577,18.4380426 L13.3079577,18.4380426 L13.3079577,18.5327545 C13.3079577,19.4041042 12.6828591,20.7111287 12.4366081,20.9573796 C12.3987233,21.0142068 12.3229538,21.0142068 12.2661266,20.9573796 C12.038818,20.7111287 11.394777,19.4041042 11.394777,18.5327545 L11.394777,18.5327545 Z M8.28822607,18.4380426 C8.34505322,17.2446725 10.1445797,17.2446725 10.2014068,18.4380426 L10.2014068,18.4380426 L10.2014068,18.5327545 C10.2014068,19.4041042 9.57630815,20.7111287 9.33005717,20.9573796 C9.2921724,21.0142068 9.21640287,21.0142068 9.15957572,20.9573796 C8.93226711,20.7111287 8.28822607,19.4041042 8.28822607,18.5327545 L8.28822607,18.5327545 Z M12.3608385,3 C14.0656531,3 15.7136404,8.15232833 15.8841219,11.5619574 C15.8841219,11.5619574 17.7404755,13.2667719 17.7025907,14.2517758 L17.7025907,14.2517758 L17.6647059,16.5627466 C17.6647059,16.7521705 17.4942245,16.8658248 17.3426854,16.7900552 L17.3426854,16.7900552 L15.050657,15.5019732 C14.804406,15.8808208 14.5202703,16.183899 14.1982497,16.43015 C14.0277683,16.5627466 13.8194021,16.6385162 13.5920935,16.6385162 L13.5920935,16.6385162 L11.1106412,16.6385162 C10.902275,16.6385162 10.6939088,16.5627466 10.504485,16.43015 C10.1824644,16.183899 9.89832868,15.8808208 9.65207769,15.5019732 L9.65207769,15.5019732 L7.36004928,16.7900552 C7.20851021,16.8658248 7.03802875,16.7521705 7.03802875,16.5627466 L7.03802875,16.5627466 L7.00014399,14.2517758 C6.9812016,13.2857143 8.83755519,11.5619574 8.83755519,11.5619574 C9.00803665,8.15232833 10.656024,3 12.3608385,3 Z M12.3608385,8.4175217 C11.6599703,8.4175217 11.0916988,8.98579321 11.0916988,9.6866614 C11.0916988,10.3875296 11.6599703,10.9558011 12.3608385,10.9558011 C13.0617067,10.9558011 13.6299782,10.406472 13.6299782,9.6866614 C13.6299782,8.98579321 13.0617067,8.4175217 12.3608385,8.4175217 Z" id="Combined-Shape" fill="currentColor"></path>
        </g>
    </g>
</svg>