<?xml version="1.0" encoding="UTF-8" ?>
<svg width="32px" height="32px" viewBox="0 0 32 32" version="1.1" xmlns="http://www.w3.org/2000/svg" xmlns:xlink="http://www.w3.org/1999/xlink">
    <!-- Generator: sketchtool 63.1 (101010) - https://sketch.com -->
    <title>b94d8ef4-744a-40fc-8884-fad255320c3f@1.00x</title>
    <desc>Created with sketchtool.</desc>
    <g id="Icons" stroke="none" stroke-width="1" fill="none" fill-rule="evenodd">
        <g id="Icons/32/Products/sakaar/default" fill="currentColor">
            <g id="Group-4" transform="translate(4.000000, 6.000000)">
                <path d="M17.88582,6.0868675 L17.88582,6.0843675 C17.632905,2.93184171 14.995081,0.505753243 11.8324459,0.516853499 C8.66981076,0.528030153 6.04914085,2.97263846 5.8184375,6.1268675 L5.8184375,6.1293675 C2.6784225,6.6043675 0.598345,7.4293675 0.598345,8.3668675 C0.598345,9.8393675 5.7008825,11.0318675 11.9959275,11.0318675 C18.2908475,11.0318675 23.3933875,9.8393675 23.3933875,8.3668675 C23.3933875,7.3993675 21.18831,6.554365 17.88582,6.0868675 Z M11.9959275,8.9243675 C9.72459747,8.9446847 7.45610651,8.75892354 5.21834,8.3693675 C5.49836667,8.3143675 5.80337917,8.2618675 6.1333775,8.2118675 L7.9258575,7.9418675 L7.9258575,6.2118675 C8.11134041,4.17664898 9.82020983,2.61992256 11.8638579,2.62446273 C13.9075061,2.62902279 15.6094266,4.19334322 15.785845,6.2293675 L15.785845,6.2468525 L15.915845,7.9368525 L17.590895,8.1718525 C18.0258325,8.2343525 18.42085,8.2993525 18.778395,8.3668525 C16.5392601,8.75878721 14.2690081,8.94539813 11.9959275,8.92436 L11.9959275,8.9243675 Z" id="Shape"></path>
                <path d="M18.9658975,11.699355 L18.1708525,15.679355 C18.1357335,15.8526754 17.9969688,15.9861432 17.8224134,16.0144934 C17.6478581,16.0428435 17.4739861,15.9601522 17.38582,15.806855 L15.5708775,12.654355 L14.3809375,15.174355 C14.3194516,15.3048314 14.1959879,15.3952192 14.0530328,15.414414 C13.9100777,15.4336089 13.7671437,15.3789908 13.6734175,15.269355 L11.9284175,13.221855 L11.1383775,18.701855 C11.11034,18.8896891 10.9615804,19.0364109 10.7733775,19.061855 C10.5857222,19.0880432 10.4036664,18.985752 10.3284325,18.811855 L7.9983525,13.496855 L6.2158825,15.474355 C6.10332571,15.5991456 5.92792857,15.6461127 5.76807298,15.5942677 C5.6082174,15.5424226 5.49377281,15.4014527 5.4758825,15.234355 L5.1083275,11.711855 C5.2533475,11.736855 5.3983675,11.761855 5.5458275,11.784355 C5.688285,11.806855 5.833305,11.826855 5.9808875,11.846855 C7.71646389,12.081197 9.46468612,12.2097677 11.2158725,12.231855 C11.3583275,12.231855 11.500785,12.234355 11.6433725,12.234355 L11.645815,12.234355 C11.760815,12.236855 11.8783575,12.236855 11.9959125,12.236855 L12.2034325,12.236855 C13.1133425,12.231855 14.0059325,12.204355 14.8683475,12.154355 C15.030825,12.144355 15.1934225,12.134355 15.3533325,12.121855 C15.4808975,12.114355 15.6084208,12.104355 15.7359025,12.091855 C15.8933725,12.081855 16.0508425,12.069355 16.2058725,12.051855 C16.8533325,11.996855 17.4783325,11.924355 18.073305,11.839355 C18.22333,11.819355 18.3733525,11.796855 18.5183725,11.771855 C18.6708525,11.7493575 18.8184375,11.724365 18.9658975,11.699355 Z" id="Path"></path>
                <path d="M14.9759075,18.1343675 C14.9590852,18.2489258 14.8871519,18.3479508 14.7834075,18.3993675 L13.5784525,18.9993675 C13.4664,19.0553081 13.3330898,19.0476533 13.228177,18.9792543 C13.1232642,18.9108553 13.0624752,18.791965 13.0684525,18.6668675 L13.145845,16.9993675 C13.1502617,16.8606092 13.2367773,16.7377694 13.3659375,16.6868675 C13.493852,16.6346744 13.6404664,16.6620424 13.7409375,16.7568675 L14.8683775,17.8268675 C14.9531231,17.9051102 14.9934263,18.0203639 14.9759075,18.1343675 L14.9759075,18.1343675 Z" id="Path"></path>
            </g>
        </g>
    </g>
</svg>