<?xml version="1.0" encoding="UTF-8" ?>
<svg width="32px" height="32px" viewBox="0 0 32 32" version="1.1" xmlns="http://www.w3.org/2000/svg" xmlns:xlink="http://www.w3.org/1999/xlink">
    <!-- Generator: sketchtool 63.1 (101010) - https://sketch.com -->
    <title>fb4b8488-a685-4a3f-be96-797fa5f640ed@1.00x</title>
    <desc>Created with sketchtool.</desc>
    <g id="Icons" stroke="none" stroke-width="1" fill="none" fill-rule="evenodd">
        <g id="Icons/32/Products/tagstream/default" fill="currentColor">
            <g id="Group-16" transform="translate(5.000000, 7.000000)">
                <path d="M18.7621075,1.8599325 C18.7430915,1.61517273 18.5493579,1.42033687 18.30471,1.3999325 L10.05471,0.7399325 L10.01467,0.7399325 C9.88279353,0.740709012 9.75638112,0.792709713 9.66213,0.8849525 L0.72963,9.8174525 C0.534676246,10.0129958 0.534676246,10.3294092 0.72963,10.5249525 L9.639665,19.4324525 C9.73289193,19.526538 9.85975412,19.5796162 9.992205,19.5799525 C10.1253697,19.5796053 10.2529868,19.5265783 10.347185,19.4324525 L19.277115,10.4999525 C19.3816078,10.3973103 19.434792,10.2533595 19.422135,10.107435 L18.7621075,1.8599325 Z M9.99221,17.319955 L2.844625,10.16993 L10.489645,2.52493 L17.1072,3.05493 L17.6371075,9.67493 L9.99221,17.319955 Z" id="Shape"></path>
                <circle id="Oval" cx="14.8408375" cy="5.32242" r="1.12936"></circle>
                <polygon id="Rectangle" transform="translate(11.089223, 9.074038) rotate(135.000000) translate(-11.089223, -9.074038) " points="10.1438854 6.21636927 12.0345604 6.21636927 12.0345604 11.9317068 10.1438854 11.9317068"></polygon>
                <polygon id="Rectangle" transform="translate(8.855193, 11.308067) rotate(135.000000) translate(-8.855193, -11.308067) " points="7.90985536 8.45039875 9.80053036 8.45039875 9.80053036 14.1657362 7.90985536 14.1657362"></polygon>
            </g>
        </g>
    </g>
</svg>