<?xml version="1.0" encoding="UTF-8" ?>
<svg width="32px" height="32px" viewBox="0 0 32 32" version="1.1" xmlns="http://www.w3.org/2000/svg" xmlns:xlink="http://www.w3.org/1999/xlink">
    <!-- Generator: sketchtool 63.1 (101010) - https://sketch.com -->
    <title>8c95d3fd-5fa0-4f04-899b-0aa5a98d482f@1.00x</title>
    <desc>Created with sketchtool.</desc>
    <g id="Icons" stroke="none" stroke-width="1" fill="none" fill-rule="evenodd">
        <g id="Icons/32/Products/topic/default" fill="currentColor" fill-rule="nonzero">
            <g id="Group-3" transform="translate(6.000000, 9.000000)">
                <path d="M5.91884058,6.95362319 C5.91884058,7.27826087 5.64057971,7.55652174 5.31594203,7.55652174 C4.99130435,7.55652174 4.71304348,7.27826087 4.71304348,6.95362319 C4.71304348,6.62898551 4.99130435,6.35072464 5.31594203,6.35072464 C5.64057971,6.35072464 5.91884058,6.62898551 5.91884058,6.95362319 Z" id="Path"></path>
                <path d="M7.49565217,6.95362319 C7.49565217,7.27826087 7.2173913,7.55652174 6.89275362,7.55652174 C6.56811594,7.55652174 6.28985507,7.27826087 6.28985507,6.95362319 C6.28985507,6.62898551 6.56811594,6.35072464 6.89275362,6.35072464 C7.26376812,6.35072464 7.49565217,6.62898551 7.49565217,6.95362319 Z" id="Path"></path>
                <circle id="Oval" cx="8.56231884" cy="6.95362319" r="1"></circle>
                <path d="M1.79130435,6.95362319 C1.79130435,7.27826087 1.51304348,7.55652174 1.1884058,7.55652174 C0.863768116,7.55652174 0.585507246,7.27826087 0.585507246,6.95362319 C0.585507246,6.62898551 0.863768116,6.35072464 1.1884058,6.35072464 C1.51304348,6.35072464 1.79130435,6.62898551 1.79130435,6.95362319 Z" id="Path"></path>
                <path d="M3.46086957,6.95362319 C3.46086957,7.27826087 3.1826087,7.55652174 2.85797101,7.55652174 C2.53333333,7.55652174 2.25507246,7.27826087 2.25507246,6.95362319 C2.25507246,6.62898551 2.53333333,6.35072464 2.85797101,6.35072464 C3.1826087,6.35072464 3.46086957,6.62898551 3.46086957,6.95362319 Z" id="Path"></path>
                <circle id="Oval" cx="11.1594203" cy="6.95362319" r="1"></circle>
                <path d="M13.3855072,6.95362319 C13.3855072,7.27826087 13.1072464,7.55652174 12.7826087,7.55652174 C12.457971,7.55652174 12.1797101,7.27826087 12.1797101,6.95362319 C12.1797101,6.62898551 12.457971,6.35072464 12.7826087,6.35072464 C13.1072464,6.35072464 13.3855072,6.62898551 13.3855072,6.95362319 Z" id="Path"></path>
                <circle id="Oval" cx="14.4521739" cy="6.95362319" r="1"></circle>
                <path d="M17.5130435,6.95362319 C17.5130435,7.27826087 17.2347826,7.55652174 16.9101449,7.55652174 C16.5855072,7.55652174 16.3072464,7.27826087 16.3072464,6.95362319 C16.3072464,6.62898551 16.5855072,6.35072464 16.9101449,6.35072464 C17.2347826,6.35072464 17.5130435,6.62898551 17.5130435,6.95362319 Z" id="Path"></path>
                <path d="M19.0898551,6.95362319 C19.0898551,7.27826087 18.8115942,7.55652174 18.4869565,7.55652174 C18.1623188,7.55652174 17.884058,7.27826087 17.884058,6.95362319 C17.884058,6.62898551 18.1623188,6.35072464 18.4869565,6.35072464 C18.8115942,6.35072464 19.0898551,6.62898551 19.0898551,6.95362319 Z" id="Path"></path>
                <path d="M3.04347826,13.1681159 L5.08405797,13.1681159 C5.22318841,13.1681159 5.31594203,13.0753623 5.31594203,12.9362319 L5.31594203,0.971014493 C5.31594203,0.831884058 5.22318841,0.739130435 5.08405797,0.739130435 L3.04347826,0.739130435 C2.90434783,0.739130435 2.8115942,0.831884058 2.8115942,0.971014493 L2.8115942,12.9362319 C2.76521739,13.0753623 2.90434783,13.1681159 3.04347826,13.1681159 Z" id="Path"></path>
                <path d="M8.84057971,13.1681159 L10.8811594,13.1681159 C11.0202899,13.1681159 11.1130435,13.0753623 11.1130435,12.9362319 L11.1130435,0.971014493 C11.1130435,0.831884058 11.0202899,0.739130435 10.8811594,0.739130435 L8.84057971,0.739130435 C8.70144928,0.739130435 8.60869565,0.831884058 8.60869565,0.971014493 L8.60869565,12.9362319 C8.56231884,13.0753623 8.70144928,13.1681159 8.84057971,13.1681159 Z" id="Path"></path>
                <path d="M14.6376812,13.1681159 L16.6782609,13.1681159 C16.8173913,13.1681159 16.9101449,13.0753623 16.9101449,12.9362319 L16.9101449,0.971014493 C16.9101449,0.831884058 16.8173913,0.739130435 16.6782609,0.739130435 L14.6376812,0.739130435 C14.4985507,0.739130435 14.4057971,0.831884058 14.4057971,0.971014493 L14.4057971,12.9362319 C14.3594203,13.0753623 14.4985507,13.1681159 14.6376812,13.1681159 Z" id="Path"></path>
                <path d="M19.0434783,9.36521739 L20.573913,7.32463768 C20.7594203,7.09275362 20.7594203,6.81449275 20.573913,6.5826087 L19.0434783,4.54202899 L18.0231884,5.28405797 L19.2753623,6.95362319 L18.0231884,8.62318841 L19.0434783,9.36521739 L19.0434783,9.36521739 Z" id="Path"></path>
                <rect id="Rectangle" x="16.7246377" y="6.35072464" width="2.59710145" height="1.25217391"></rect>
            </g>
        </g>
    </g>
</svg>