<?xml version="1.0" encoding="UTF-8" ?>
<svg width="32px" height="32px" viewBox="0 0 32 32" version="1.1" xmlns="http://www.w3.org/2000/svg" xmlns:xlink="http://www.w3.org/1999/xlink">
    <!-- Generator: sketchtool 63.1 (101010) - https://sketch.com -->
    <title>4bcb419d-17d4-444e-8f83-0744afcd8588@1.00x</title>
    <desc>Created with sketchtool.</desc>
    <g id="Icons" stroke="none" stroke-width="1" fill="none" fill-rule="evenodd">
        <g id="Icons/32/Products/discovery/default" fill="currentColor">
            <g id="Group-5" transform="translate(7.000000, 7.000000)">
                <path d="M15.43793,14.35743 C18.32902,10.898946 18.0047003,5.7819801 14.7000936,2.71618703 C11.3954868,-0.349606045 6.26860092,-0.289903935 3.03628232,2.85201103 C-0.196036274,5.99392599 -0.401110957,11.1170566 2.56973158,14.507279 C5.54057412,17.8975014 10.6462843,18.3668058 14.1853675,15.57496 L16.7778975,18.164925 L18.01044,16.9324425 L15.43793,14.35743 Z M8.9553875,15.64994 C5.25854035,15.6492023 2.26224002,12.6517323 2.26295511,8.9548851 C2.26367047,5.25803794 5.26113041,2.2617275 8.95797757,2.26243013 C12.6548247,2.26313301 15.6511453,5.26058284 15.6504551,8.95743 C15.6461322,12.6528076 12.6507665,15.6470291 8.9553875,15.64994 L8.9553875,15.64994 Z" id="Shape"></path>
                <circle id="Oval" cx="5.727575" cy="9.001975" r="1"></circle>
                <circle id="Oval" cx="8.727575" cy="9.001975" r="1"></circle>
                <circle id="Oval" cx="11.727575" cy="9.001975" r="1"></circle>
            </g>
        </g>
    </g>
</svg>