<?xml version="1.0" encoding="UTF-8" ?>
<svg width="32px" height="32px" viewBox="0 0 32 32" version="1.1" xmlns="http://www.w3.org/2000/svg" xmlns:xlink="http://www.w3.org/1999/xlink">
    <!-- Generator: sketchtool 63.1 (101010) - https://sketch.com -->
    <title>50698876-e395-462c-b382-162fd99e90ed@1.00x</title>
    <desc>Created with sketchtool.</desc>
    <g id="Icons" stroke="none" stroke-width="1" fill="none" fill-rule="evenodd">
        <g id="Icons/32/Products/firehose/default">
            <g id="Group-11" transform="translate(7.000000, 7.000000)">
                <path d="M8.8796375,12.6068175 C8.90537337,12.6098082 8.93124568,12.6114771 8.9571525,12.6118175 C8.96557178,12.6122215 8.97400454,12.6113791 8.9821775,12.6093175 C8.94798227,12.6109863 8.91371077,12.6101507 8.8796375,12.6068175 L8.8796375,12.6068175 Z" id="Path" fill="#EAECEC" fill-rule="nonzero"></path>
                <path d="M15.1921375,4.7692925 C14.5709865,4.14467557 13.8427655,3.63662033 13.0421125,3.2692925 L14.3846425,3.2692925 L14.3846425,1.1992925 C14.3848734,1.13291787 14.3586083,1.06919518 14.3116741,1.02226095 C14.2647398,0.975326714 14.2010171,0.949061644 14.1346425,0.949290991 L11.9696025,0.949290991 C11.8317085,0.949719362 11.7200294,1.06139851 11.7196025,1.1992925 L11.7196025,1.2692925 L8.9221175,1.2692925 C4.29343902,1.26896243 0.540692727,5.02061412 0.5396725,9.6492925 C0.53794896,12.558559 2.2326743,15.2017351 4.8771975,16.4143075 L2.9421375,16.4143075 L2.9421375,16.0368075 C2.94172565,15.8989073 2.83003773,15.7872194 2.6921375,15.7868075 L0.387085,15.7868075 C0.249184767,15.7872194 0.13749685,15.8989073 0.137085,16.0368075 L0.137085,18.1593075 C0.13749685,18.2972077 0.249184767,18.4088956 0.387085,18.4093075 L2.3046875,18.4093075 L2.3046875,18.4143075 L8.9921875,18.4143075 C11.2154083,18.4143075 13.3476164,17.5313614 14.9196657,15.9593018 C16.491715,14.3872422 17.3746373,12.2550283 17.3746373,10.0318075 C17.376887,8.0570049 16.5913443,6.16287445 15.1921375,4.7692925 L15.1921375,4.7692925 Z M8.9571575,3.14928857 C9.38085859,3.14850973 9.80364313,3.18869678 10.2196075,3.2693 C13.5412063,3.90143253 15.8803962,6.896765 15.6887559,10.2725441 C15.4971155,13.6483231 12.8339616,16.3596764 9.4621625,16.61183 C9.2946775,16.626805 9.1271975,16.6343228 8.9571575,16.6343228 C5.33195133,16.6353902 2.35515386,13.7690086 2.21926212,10.1463501 C2.08337038,6.52369163 4.8370592,3.44235021 8.4521575,3.1718225 C8.6196375,3.1568075 8.7871175,3.14928857 8.9571575,3.14928857 Z M2.2121575,14.55683 L2.2121575,15.1693175 L0.8671875,15.1693175 L0.8671875,14.55683 L2.2121575,14.55683 Z M15.4030425,0.213 L19.4265425,0.78375 L19.4265425,3.12425 L15.4030425,3.695 L15.4030425,0.213 Z" id="Shape" fill="currentColor"></path>
                <path d="M8.8796375,12.6068175 C8.90537337,12.6098082 8.93124568,12.6114771 8.9571525,12.6118175 C8.96557178,12.6122215 8.97400454,12.6113791 8.9821775,12.6093175 C8.94798227,12.6109863 8.91371077,12.6101507 8.8796375,12.6068175 L8.8796375,12.6068175 Z" id="Path" fill="currentColor" fill-rule="nonzero"></path>
                <path d="M8.9571525,5.01678982 C7.02612186,5.01626825 5.28496588,6.17915706 4.54574556,7.96309454 C3.80652525,9.74703202 4.21485359,11.8006149 5.58028956,13.1660687 C6.94572553,14.5315226 8.99930303,14.9398778 10.7832502,14.2006809 C12.5671973,13.4614839 13.730109,11.7203431 13.7296127,9.7893125 C13.728786,7.15388795 11.592577,5.01765104 8.9571525,5.01678982 Z M10.9421375,11.301825 C10.7487483,11.8003978 10.3658829,12.2021595 9.8771975,12.419325 C9.8221425,12.446825 9.76709,12.471825 9.709595,12.494325 C9.47693875,12.5797156 9.22982856,12.6187821 8.9821775,12.609325 C8.97400454,12.6113866 8.96557178,12.612229 8.9571525,12.611825 C8.93124568,12.6114846 8.90537337,12.6098157 8.8796375,12.606825 L8.8746375,12.606825 C8.65555828,12.5930015 8.43940126,12.5492624 8.2321825,12.476825 C7.73190219,12.315148 7.31182713,11.9692712 7.0571325,11.509325 C7.02773801,11.4517689 7.0018524,11.3924873 6.9796175,11.331805 C6.5571325,10.219305 7.4796175,8.79433 7.4821825,8.789325 L7.5271025,8.719325 L8.0971725,9.3043475 L8.9021025,7.1718475 L10.0196575,9.3168475 L10.6071825,8.9643475 L10.63709,9.0318475 C11.0821525,10.041815 11.1271975,10.76679 10.9421375,11.301825 L10.9421375,11.301825 Z" id="Shape" fill="currentColor"></path>
                <path d="M9.7146007,11.854315 C9.71577744,12.2630321 9.39074205,12.5980881 8.9821775,12.609315 C8.94798227,12.6109838 8.91371077,12.6101493 8.8796375,12.606815 L8.8746375,12.606815 C8.48999954,12.5660976 8.19845335,12.2411004 8.19958669,11.854315 C8.19958669,11.4368025 8.9571575,10.071815 8.9571575,10.071815 C8.9571575,10.071815 9.7146007,11.4368025 9.7146007,11.854315 Z" id="Path" fill="currentColor"></path>
                <path d="M8.9821775,12.60932 C8.97400454,12.6113816 8.96557178,12.612224 8.9571525,12.61182 C8.93124568,12.6114796 8.90537337,12.6098107 8.8796375,12.60682 C8.91371077,12.6101532 8.94798227,12.6109888 8.9821775,12.60932 Z" id="Path" fill="#4D4D4D"></path>
            </g>
        </g>
    </g>
</svg>