<?xml version="1.0" encoding="UTF-8"?>
<svg width="24px" height="24px" viewBox="0 0 24 24" version="1.1" xmlns="http://www.w3.org/2000/svg" xmlns:xlink="http://www.w3.org/1999/xlink">
    <title>23ECFC4D-A366-4677-989F-5545C514DFE4@1x</title>
    <g id="Icons" stroke="none" stroke-width="1" fill="none" fill-rule="evenodd">
        <g id="Icons/save">
            <g id="Group" fill="#000000" fill-opacity="0">
                <g id="Rectangle">
                    <rect x="0" y="0" width="24" height="24" rx="2"></rect>
                </g>
            </g>
            <g id="save-24px" transform="translate(3.000000, 3.000000)" fill="currentColor">
                <path d="M13.6875,0.5625 L2.4375,0.5625 C1.396875,0.5625 0.5625,1.40625 0.5625,2.4375 L0.5625,15.5625 C0.5625,16.59375 1.396875,17.4375 2.4375,17.4375 L15.5625,17.4375 C16.59375,17.4375 17.4375,16.59375 17.4375,15.5625 L17.4375,4.3125 L13.6875,0.5625 Z M9,15.5625 C7.44375,15.5625 6.1875,14.30625 6.1875,12.75 C6.1875,11.19375 7.44375,9.9375 9,9.9375 C10.55625,9.9375 11.8125,11.19375 11.8125,12.75 C11.8125,14.30625 10.55625,15.5625 9,15.5625 Z M11.8125,6.1875 L2.4375,6.1875 L2.4375,2.4375 L11.8125,2.4375 L11.8125,6.1875 Z" id="Shape"></path>
            </g>
        </g>
    </g>
</svg>