<?xml version="1.0" encoding="UTF-8"?>
<svg width="24px" height="24px" viewBox="0 0 24 24" version="1.1" xmlns="http://www.w3.org/2000/svg" xmlns:xlink="http://www.w3.org/1999/xlink">
    <!-- Generator: sketchtool 62 (101010) - https://sketch.com -->
    <title>016daaf1-9ab1-4d1a-b694-062f464156ac@1.00x</title>
    <desc>Created with sketchtool.</desc>
    <g id="Icons" stroke="none" stroke-width="1" fill="none" fill-rule="evenodd">
        <g id="Icons/24/cross/filled">
            <g id="add_circle-24px">
                <polygon id="Path" points="0 0 24 0 24 24 0 24"></polygon>
                <path d="M12,4 C7.584,4 4,7.584 4,12 C4,16.416 7.584,20 12,20 C16.416,20 20,16.416 20,12 C20,7.584 16.416,4 12,4 Z M14.2627417,15.3941125 L12,13.1313708 L9.7372583,15.3941125 L8.60588745,14.2627417 L10.8686292,12 L8.60588745,9.7372583 L9.7372583,8.60588745 L12,10.8686292 L14.2627417,8.60588745 L15.3941125,9.7372583 L13.1313708,12 L15.3941125,14.2627417 L14.2627417,15.3941125 Z" id="Shape" fill="currentColor"></path>
            </g>
        </g>
    </g>
</svg>