<?xml version="1.0" encoding="UTF-8"?>
<svg width="24px" height="24px" viewBox="0 0 24 24" version="1.1" xmlns="http://www.w3.org/2000/svg" xmlns:xlink="http://www.w3.org/1999/xlink">
    <title>0bdfafd9-c178-45ba-8dbc-20b51faf6d86@1.00x</title>
    <g id="Icons" stroke="none" stroke-width="1" fill="none" fill-rule="evenodd">
        <g id="Icons/24/input">
            <g id="input-24px">
                <polygon id="Path" points="0 0 24 0 24 24 0 24"></polygon>
                <path d="M19.7975528,4 L3.77975528,4 C2.80088988,4 2,4.80088988 2,5.77975528 L2,9.33036707 L3.77975528,9.33036707 L3.77975528,5.76195773 L19.7975528,5.76195773 L19.7975528,18.246941 L3.77975528,18.246941 L3.77975528,14.6696329 L2,14.6696329 L2,18.2380423 C2,19.2169077 2.80088988,20 3.77975528,20 L19.7975528,20 C20.7764182,20 21.5773081,19.2169077 21.5773081,18.2380423 L21.5773081,5.77975528 C21.5773081,4.7919911 20.7764182,4 19.7975528,4 Z M10.8987764,15.5595106 L14.458287,12 L10.8987764,8.44048943 L10.8987764,11.1101224 L2,11.1101224 L2,12.8898776 L10.8987764,12.8898776 L10.8987764,15.5595106 Z" id="Shape" fill="currentColor"></path>
            </g>
        </g>
    </g>
</svg>
