<?xml version="1.0" encoding="UTF-8"?>
<svg width="20px" height="20px" viewBox="0 0 20 20" version="1.1" xmlns="http://www.w3.org/2000/svg" xmlns:xlink="http://www.w3.org/1999/xlink">
    <!-- Generator: sketchtool 61 (101010) - https://sketch.com -->
    <title>b0d3dd1d-c7f2-42d5-8583-823fba3c95d8@1.00x</title>
    <desc>Created with sketchtool.</desc>
    <g id="Icons" stroke="none" stroke-width="1" fill="none" fill-rule="evenodd">
        <g id="Icons/20/restore">
            <g id="settings_backup_restore-24px">
                <rect id="Rectangle" x="0" y="0" width="20" height="20"></rect>
                <path d="M12.8703704,10 C12.8703704,9.18518519 12.2037037,8.51851852 11.3888889,8.51851852 C10.5740741,8.51851852 9.90740741,9.18518519 9.90740741,10 C9.90740741,10.8148148 10.5740741,11.4814815 11.3888889,11.4814815 C12.2037037,11.4814815 12.8703704,10.8148148 12.8703704,10 Z M11.3888889,3.33333333 C7.70740741,3.33333333 4.72222222,6.31851852 4.72222222,10 L2.5,10 L5.46296296,12.962963 L8.42592593,10 L6.2037037,10 C6.2037037,7.13333333 8.52222222,4.81481481 11.3888889,4.81481481 C14.2555556,4.81481481 16.5740741,7.13333333 16.5740741,10 C16.5740741,12.8666667 14.2555556,15.1851852 11.3888889,15.1851852 C10.2703704,15.1851852 9.23333333,14.8222222 8.38148148,14.2222222 L7.32962963,15.2888889 C8.45555556,16.1481481 9.86296296,16.6666667 11.3888889,16.6666667 C15.0703704,16.6666667 18.0555556,13.6814815 18.0555556,10 C18.0555556,6.31851852 15.0703704,3.33333333 11.3888889,3.33333333 Z" id="Shape" fill="currentColor"></path>
            </g>
        </g>
    </g>
</svg>