<?xml version="1.0" encoding="UTF-8"?>
<svg width="24px" height="24px" viewBox="0 0 24 24" version="1.1" xmlns="http://www.w3.org/2000/svg" xmlns:xlink="http://www.w3.org/1999/xlink">
    <!-- Generator: sketchtool 63.1 (101010) - https://sketch.com -->
    <title>3451fa41-5e38-4bb2-a250-3580a1b0a634@1.00x</title>
    <desc>Created with sketchtool.</desc>
    <g id="Icons" stroke="none" stroke-width="1" fill="none" fill-rule="evenodd">
        <g id="Icons/24/visibility/filled">
            <g id="visibility-24px-(1)">
                <polygon id="Path" points="0 0 24 0 24 24 0 24"></polygon>
                <path d="M12,5 C7.45454545,5 3.57272727,7.82727273 2,11.8181818 C3.57272727,15.8090909 7.45454545,18.6363636 12,18.6363636 C16.5454545,18.6363636 20.4272727,15.8090909 22,11.8181818 C20.4272727,7.82727273 16.5454545,5 12,5 Z M12,16.3636364 C9.49090909,16.3636364 7.45454545,14.3272727 7.45454545,11.8181818 C7.45454545,9.30909091 9.49090909,7.27272727 12,7.27272727 C14.5090909,7.27272727 16.5454545,9.30909091 16.5454545,11.8181818 C16.5454545,14.3272727 14.5090909,16.3636364 12,16.3636364 Z M12,9.09090909 C10.4909091,9.09090909 9.27272727,10.3090909 9.27272727,11.8181818 C9.27272727,13.3272727 10.4909091,14.5454545 12,14.5454545 C13.5090909,14.5454545 14.7272727,13.3272727 14.7272727,11.8181818 C14.7272727,10.3090909 13.5090909,9.09090909 12,9.09090909 Z" id="Shape" fill="currentColor"></path>
            </g>
        </g>
    </g>
</svg>