<?xml version="1.0" encoding="UTF-8"?>
<svg width="24px" height="24px" viewBox="0 0 24 24" version="1.1" xmlns="http://www.w3.org/2000/svg" xmlns:xlink="http://www.w3.org/1999/xlink">
    <!-- Generator: Sketch 63.1 (92452) - https://sketch.com -->
    <title>Icons/24/catalog</title>
    <desc>Created with Sketch.</desc>
    <g id="Icons/24/catalog" stroke="none" stroke-width="1" fill="none" fill-rule="evenodd">
        <g id="Group" transform="translate(4.000000, 2.000000)" fill="#4C4C4C">
            <path d="M15.5,2.99999991 L14,2.99999991 L14,17.4999999 C14.0021155,18.2343648 13.4704209,18.8614711 12.7456,18.9795 L6.62305,19.9999999 L15.5,19.9999999 C15.6326326,19.9999999 15.7598559,19.9474268 15.8536413,19.8536413 C15.9474268,19.7598559 16.0000001,19.6326326 16.0000001,19.4999999 L16.0000001,3.49999991 C16.0000001,3.36736735 15.9474268,3.24014411 15.8536413,3.14635865 C15.7598559,3.05257319 15.6326326,2.99999991 15.5,2.99999991 Z" id="Path"></path>
            <path d="M12.9999995,17.5 L12.9999995,0.5 C13.0001949,0.352993804 12.9356065,0.213369836 12.8234473,0.118337323 C12.7112882,0.0233048105 12.5629539,-0.0174806879 12.417975,0.00685 L0.417975,2.00685 C0.17682918,2.04695329 -5.27916344e-07,2.25554228 -5.27916344e-07,2.5 L-5.27916344e-07,19.5 C-0.000192787133,19.6326673 0.0524237219,19.7599563 0.146233735,19.8537663 C0.240043747,19.9475763 0.367332748,20.0000071 0.499999472,20.0000071 C0.52748955,20.0000071 0.554938477,19.9978674 0.582025,19.993175 L12.582025,17.993175 C12.8231801,17.9530702 12.9999995,17.7444672 12.9999995,17.5 Z M9.582025,14.9932 L3.582025,15.9932 C3.55477592,15.9978708 3.52717119,16.0001545 3.499525,16.0000302 C3.23960849,15.999531 3.02341585,15.7999776 3.00215149,15.540932 C2.98088713,15.2818863 3.16164341,15.0497485 3.418,15.006875 L9.418,14.006875 C9.59558194,13.9744419 9.77685785,14.0402492 9.89227831,14.179049 C10.0076988,14.3178487 10.03934,14.5080864 9.97506223,14.6767744 C9.91078451,14.8454623 9.76056965,14.9664047 9.58205,14.9932 L9.582025,14.9932 Z M9.582025,12.9932 L3.582025,13.9932 C3.55477592,13.9978708 3.52717119,14.0001545 3.499525,14.0000302 C3.23960849,13.999531 3.02341585,13.7999776 3.00215149,13.540932 C2.98088713,13.2818863 3.16164341,13.0497485 3.418,13.006875 L9.418,12.006875 C9.59558194,11.9744419 9.77685785,12.0402492 9.89227831,12.179049 C10.0076988,12.3178487 10.03934,12.5080864 9.97506223,12.6767744 C9.91078451,12.8454623 9.76056965,12.9664047 9.58205,12.9932 L9.582025,12.9932 Z M9.582025,10.9932 L3.582025,11.9932 C3.55477592,11.9978708 3.52717119,12.0001545 3.499525,12.0000302 C3.23960849,11.999531 3.02341585,11.7999776 3.00215149,11.540932 C2.98088713,11.2818863 3.16164341,11.0497485 3.418,11.006875 L9.418,10.006875 C9.59558194,9.97444188 9.77685785,10.0402492 9.89227831,10.179049 C10.0076988,10.3178487 10.03934,10.5080864 9.97506223,10.6767744 C9.91078451,10.8454623 9.76056965,10.9664047 9.58205,10.9932 L9.582025,10.9932 Z M9.582025,4.9932 L3.582025,5.9932 C3.55477592,5.99787079 3.52717119,6.00015445 3.499525,6.00003021 C3.23960849,5.99953097 3.02341585,5.79997764 3.00215149,5.54093196 C2.98088713,5.28188629 3.16164341,5.0497485 3.418,5.006875 L9.418,4.006875 C9.59558194,3.97444188 9.77685785,4.04024921 9.89227831,4.17904896 C10.0076988,4.3178487 10.03934,4.50808643 9.97506223,4.67677439 C9.91078451,4.84546234 9.76056965,4.96640471 9.58205,4.9932 L9.582025,4.9932 Z" id="Shape"></path>
        </g>
    </g>
</svg>