<?xml version="1.0" encoding="UTF-8"?>
<svg width="24px" height="24px" viewBox="0 0 24 24" version="1.1" xmlns="http://www.w3.org/2000/svg" xmlns:xlink="http://www.w3.org/1999/xlink">
    <!-- Generator: sketchtool 61.2 (101010) - https://sketch.com -->
    <title>0897e9a3-0779-4eab-b0c7-f6b84e8f0ffb@1.00x</title>
    <desc>Created with sketchtool.</desc>
    <g id="Icons" stroke="none" stroke-width="1" fill="none" fill-rule="evenodd">
        <g id="Icons/24/add">
            <g id="add_circle-24px">
                <polygon id="Path" points="0 0 24 0 24 24 0 24"></polygon>
                <path d="M12,4 C7.584,4 4,7.584 4,12 C4,16.416 7.584,20 12,20 C16.416,20 20,16.416 20,12 C20,7.584 16.416,4 12,4 Z M16,12.8 L12.8,12.8 L12.8,16 L11.2,16 L11.2,12.8 L8,12.8 L8,11.2 L11.2,11.2 L11.2,8 L12.8,8 L12.8,11.2 L16,11.2 L16,12.8 Z" id="Shape" fill="#4D85F4"></path>
            </g>
        </g>
    </g>
</svg>