<?xml version="1.0" encoding="UTF-8"?>
<svg width="24px" height="24px" viewBox="0 0 24 24" version="1.1" xmlns="http://www.w3.org/2000/svg" xmlns:xlink="http://www.w3.org/1999/xlink">
    <!-- Generator: sketchtool 62 (101010) - https://sketch.com -->
    <title>04d92d06-6166-4517-98e6-905df0f23900@1.00x</title>
    <desc>Created with sketchtool.</desc>
    <g id="Icons" stroke="none" stroke-width="1" fill="none" fill-rule="evenodd">
        <g id="Icons/24/feedback">
            <g id="feedback-24px">
                <polygon id="Path" points="0 0 24 0 24 24 0 24"></polygon>
                <path d="M18.4,4 L5.6,4 C4.72,4 4.008,4.72 4.008,5.6 L4,20 L7.2,16.8 L18.4,16.8 C19.28,16.8 20,16.08 20,15.2 L20,5.6 C20,4.72 19.28,4 18.4,4 Z M12.8,13.6 L11.2,13.6 L11.2,12 L12.8,12 L12.8,13.6 Z M12.8,10.4 L11.2,10.4 L11.2,7.2 L12.8,7.2 L12.8,10.4 Z" id="Shape" fill="currentColor"></path>
            </g>
        </g>
    </g>
</svg>