<?xml version="1.0" encoding="UTF-8"?>
<svg width="24px" height="24px" viewBox="0 0 24 24" version="1.1" xmlns="http://www.w3.org/2000/svg" xmlns:xlink="http://www.w3.org/1999/xlink">
    <!-- Generator: sketchtool 61 (101010) - https://sketch.com -->
    <title>a3748ba6-c50c-4c4a-baa8-44ee7ffc27d4@1.00x</title>
    <desc>Created with sketchtool.</desc>
    <g id="Icons" stroke="none" stroke-width="1" fill="none" fill-rule="evenodd">
        <g id="Icons/24/keyboard">
            <g id="keyboard-24px">
                <path d="M0,0 L24,0 L24,24 L0,24 L0,0 Z M0,0 L24,0 L24,24 L0,24 L0,0 Z" id="Shape"></path>
                <path d="M20,5 L4,5 C2.9,5 2.01,5.9 2.01,7 L2,17 C2,18.1 2.9,19 4,19 L20,19 C21.1,19 22,18.1 22,17 L22,7 C22,5.9 21.1,5 20,5 Z M11,8 L13,8 L13,10 L11,10 L11,8 Z M11,11 L13,11 L13,13 L11,13 L11,11 Z M8,8 L10,8 L10,10 L8,10 L8,8 Z M8,11 L10,11 L10,13 L8,13 L8,11 Z M7,13 L5,13 L5,11 L7,11 L7,13 Z M7,10 L5,10 L5,8 L7,8 L7,10 Z M16,17 L8,17 L8,15 L16,15 L16,17 Z M16,13 L14,13 L14,11 L16,11 L16,13 Z M16,10 L14,10 L14,8 L16,8 L16,10 Z M19,13 L17,13 L17,11 L19,11 L19,13 Z M19,10 L17,10 L17,8 L19,8 L19,10 Z" id="Shape" fill="currentColor"></path>
            </g>
        </g>
    </g>
</svg>