<?xml version="1.0" encoding="UTF-8" ?>
<svg width="32px" height="32px" viewBox="0 0 32 32" version="1.1" xmlns="http://www.w3.org/2000/svg" xmlns:xlink="http://www.w3.org/1999/xlink">
    <!-- Generator: sketchtool 63.1 (101010) - https://sketch.com -->
    <title>1792870f-971c-4a49-b0b9-8a729f48f51c@1.00x</title>
    <desc>Created with sketchtool.</desc>
    <g id="Icons" stroke="none" stroke-width="1" fill="none" fill-rule="evenodd">
        <g id="Icons/32/Products/lineage/default" fill="currentColor">
            <g id="Group-6" transform="translate(7.000000, 6.000000)">
                <path d="M16.8933725,8.1309525 L11.48347,8.1309525 C11.3508485,8.13090938 11.2236465,8.18357395 11.129869,8.27735149 C11.0360914,8.37112903 10.9834269,8.49833104 10.98347,8.6309525 L10.98347,10.5396125 L9.6984375,10.5396125 L9.6984375,6.82094 L11.66096,6.82094 C11.9367718,6.82014361 12.1601636,6.59675182 12.16096,6.32094 L12.16096,0.913436768 C12.1610025,0.780818743 12.1083377,0.653617116 12.0145603,0.559839721 C11.9207829,0.466062326 11.7935813,0.413436768 11.66096,0.413436768 L6.25347,0.413436768 C6.12071585,0.41296217 5.99326107,0.465487133 5.8993891,0.559359103 C5.80551713,0.653231073 5.75299217,0.780685847 5.75347,0.913436768 L5.75347,6.32094 C5.75341692,6.45356451 5.80607829,6.58077231 5.89985799,6.67455201 C5.99363769,6.76833171 6.12084549,6.82099308 6.25347,6.82094 L7.99347,6.82094 L7.99347,14.66594 L6.9284075,14.66594 L6.9284075,12.81594 C6.9288625,12.6831928 6.8763302,12.5557513 6.7824632,12.4618843 C6.6885962,12.3680173 6.56115471,12.315485 6.4284075,12.31594 L1.02093207,12.31594 C0.888187792,12.315485 0.760746302,12.3680173 0.666879299,12.4618843 C0.573012297,12.5557513 0.520480001,12.6831928 0.520932069,12.81594 L0.520932069,18.22344 C0.520932069,18.3560574 0.573573986,18.4832517 0.667348646,18.5770264 C0.761123307,18.670801 0.888317607,18.72344 1.02093207,18.72344 L6.4284075,18.72344 C6.56102489,18.72344 6.68821919,18.670801 6.78199385,18.5770264 C6.87576851,18.4832517 6.92843735,18.3560574 6.9284075,18.22344 L6.9284075,16.37094 L9.6984275,16.37094 L9.6984275,12.660705 L10.98346,12.660705 L10.98346,14.038455 C10.9842605,14.3142651 11.2076499,14.5376545 11.48346,14.538455 L16.8933725,14.538455 C17.1691826,14.5376545 17.392572,14.3142651 17.3933725,14.038455 L17.3933725,8.630955 C17.3933725,8.49833311 17.340752,8.37113045 17.2469744,8.27735237 C17.1531968,8.18357429 17.0259944,8.13090938 16.8933725,8.1309525 Z M8.9558725,2.49343923 C9.41061857,2.49290915 9.82085945,2.76649916 9.99513557,3.18652548 C10.1694117,3.6065518 10.0733656,4.09020894 9.75182211,4.41177393 C9.4302786,4.73333892 8.94662788,4.8294173 8.52658992,4.65516926 C8.10655196,4.48092121 7.83293453,4.0706986 7.83343431,3.6159525 C7.83366401,2.99613013 8.33605015,2.49371042 8.9558725,2.49343923 L8.9558725,2.49343923 Z M3.72345,16.6434544 C3.17722379,16.6447202 2.70861805,16.2543297 2.61122265,15.7168552 C2.51382725,15.1793807 2.81564977,14.6493814 3.32759301,14.4589114 C3.83953625,14.2684413 4.41438286,14.4722732 4.69198117,14.9427027 C4.96957949,15.4131322 4.87010173,16.0148798 4.4558725,16.37094 C4.2527352,16.547386 3.99251761,16.6442043 3.72345,16.6434544 L3.72345,16.6434544 Z M14.1884175,12.4584525 C13.5677955,12.4590982 13.0641454,11.956524 13.0634757,11.335902 C13.0628073,10.7152801 13.5653727,10.2116212 14.1859947,10.2109406 C14.8066166,10.2102614 15.3102843,10.7128181 15.3109751,11.33344 C15.3112587,11.9539265 14.8089031,12.4573807 14.1884175,12.4584525 L14.1884175,12.4584525 Z" id="Shape"></path>
            </g>
        </g>
    </g>
</svg>