<?xml version="1.0" encoding="UTF-8" ?>
<svg width="32px" height="32px" viewBox="0 0 32 32" version="1.1" xmlns="http://www.w3.org/2000/svg" xmlns:xlink="http://www.w3.org/1999/xlink">
    <!-- Generator: sketchtool 63.1 (101010) - https://sketch.com -->
    <title>af9045cb-4ffd-4182-93e0-a9d874b5ce51@1.00x</title>
    <desc>Created with sketchtool.</desc>
    <g id="Icons" stroke="none" stroke-width="1" fill="none" fill-rule="evenodd">
        <g id="Icons/32/Products/warehouse/default" fill="currentColor">
            <g id="Group-21" transform="translate(7.000000, 7.000000)">
                <polygon id="Path" points="15.2153025 11.797825 9.4028025 14.870325 8.8078025 15.182825 8.2203025 14.862825 2.5853025 11.790325 1.8780525 11.405325 -0.0021975 12.430325 8.8178025 17.237825 17.9155525 12.430325 15.9678025 11.400325"></polygon>
                <polygon id="Path" points="15.2153025 8.325325 12.6828025 9.665325 11.9305525 10.062825 9.4003025 11.397825 8.8078025 11.710325 8.2203025 11.390325 5.7703025 10.055325 5.0628025 9.667825 2.5853025 8.317825 1.8780525 7.932825 -0.0021975 8.957825 3.1828025 10.692825 8.8178025 13.765325 14.6303025 10.692825 17.9155525 8.957825 15.9678025 7.927825"></polygon>
                <polygon id="Path" points="3.1828025 7.220325 6.3680525 8.957825 8.8178025 10.292825 11.3453025 8.957825 14.6303025 7.220325 15.3003025 6.867825 15.9678025 6.512825 17.9155525 5.485325 8.8178025 0.675325 -0.0021975 5.485325 1.8780525 6.510325"></polygon>
            </g>
        </g>
    </g>
</svg>