<?xml version="1.0" encoding="UTF-8" ?>
<svg width="32px" height="32px" viewBox="0 0 32 32" version="1.1" xmlns="http://www.w3.org/2000/svg" xmlns:xlink="http://www.w3.org/1999/xlink">
    <!-- Generator: sketchtool 63.1 (101010) - https://sketch.com -->
    <title>717287c9-adff-47d7-99d1-b8c05335dcac@1.00x</title>
    <desc>Created with sketchtool.</desc>
    <g id="Icons" stroke="none" stroke-width="1" fill="none" fill-rule="evenodd">
        <g id="Icons/32/Products/proto/default">
            <g id="Group-14" transform="translate(8.000000, 7.000000)">
                <polygon id="Path" fill="currentColor" points="8.559565 15.1058925 4.827065 15.1058925 3.352315 12.5508925 5.217065 9.3183925 6.712065 11.9083925"></polygon>
                <polygon id="Path" fill="#EDEDED" fill-rule="nonzero" points="8.9870825 15.3509425 8.989645 15.3534425 8.989645 15.3484425"></polygon>
                <polygon id="Path" fill="currentColor" points="12.559565 6.8758925 10.694565 10.1083925 9.199565 7.5183925 7.354565 4.3208925 11.084565 4.3208925"></polygon>
                <path d="M13.364645,8.2684525 L11.427145,11.6234525 L10.187145,13.7709525 L9.22218,15.44594 L9.20216,15.48344 L9.18214,15.51344 L7.354625,18.67844 L11.0846075,18.67844 L15.229625,11.49844 L13.364645,8.2684525 Z M13.49221,11.8084525 C13.3516512,11.8084889 13.2249125,11.7238463 13.1710977,11.5939974 C13.1172829,11.4641484 13.1469914,11.3146677 13.2463686,11.2152647 C13.3457458,11.1158618 13.4952188,11.0861146 13.6250817,11.1398958 C13.7549446,11.1936769 13.83962,11.3203937 13.83962,11.4609525 C13.8388517,11.6525164 13.6837737,11.8076323 13.49221,11.8084525 L13.49221,11.8084525 Z" id="Shape" fill="currentColor"></path>
                <polygon id="Path" fill="#EDEDED" fill-rule="nonzero" points="8.9870825 15.3509425 8.989645 15.3534425 8.989645 15.3484425"></polygon>
                <path d="M4.82717,0.7484475 L0.68215,7.9284475 L2.54715,11.1584475 L4.4870925,7.8034475 L5.72464,5.6559475 L6.69217,3.9809475 L6.71219,3.9434475 L6.73221,3.9134475 L8.5596025,0.7484475 L4.82717,0.7484475 Z M1.9870825,8.31094839 C1.79516811,8.31092817 1.63960461,8.15533856 1.6396175,7.96342417 C1.63963039,7.77150978 1.79521477,7.6159475 1.98712917,7.6159475 C2.17904356,7.6159475 2.33461831,7.77153311 2.33461831,7.9634475 C2.33481723,8.05567738 2.29826505,8.14418677 2.23304524,8.20940001 C2.16782543,8.27461326 2.07931236,8.31115651 1.9870825,8.31094839 L1.9870825,8.31094839 Z" id="Shape" fill="currentColor"></path>
            </g>
        </g>
    </g>
</svg>