<svg width="16" height="16" viewBox="0 0 16 16" fill="none" xmlns="http://www.w3.org/2000/svg">
  <g id="Filter">
    <path id="Shape" fill-rule="evenodd" clip-rule="evenodd"
      d="M2.16675 4.80005C2.16675 4.52391 2.39061 4.30005 2.66675 4.30005H13.3334C13.6096 4.30005 13.8334 4.52391 13.8334 4.80005C13.8334 5.07619 13.6096 5.30005 13.3334 5.30005H2.66675C2.39061 5.30005 2.16675 5.07619 2.16675 4.80005ZM4.30008 8.00005C4.30008 7.72391 4.52394 7.50005 4.80008 7.50005H11.2001C11.4762 7.50005 11.7001 7.72391 11.7001 8.00005C11.7001 8.27619 11.4762 8.50005 11.2001 8.50005H4.80008C4.52394 8.50005 4.30008 8.27619 4.30008 8.00005ZM5.23341 11.2C5.23341 10.9239 5.45727 10.7 5.73341 10.7H10.2667C10.5429 10.7 10.7667 10.9239 10.7667 11.2C10.7667 11.4762 10.5429 11.7 10.2667 11.7H5.73341C5.45727 11.7 5.23341 11.4762 5.23341 11.2Z"
      fill="currentColor" />
  </g>
</svg>