<svg xmlns="http://www.w3.org/2000/svg" width="16" height="16" fill="none" viewBox="0 0 16 16"><path fill="currentColor" fill-rule="evenodd" d="M13.9 8c0-3.0404-2.3698-6.06-6.06004-6.06-3.0252 0-4.49765 2.27136-5.10792 3.4267h1.9079c.27614 0 .5.22385.5.5 0 .27614-.22386.5-.5.5h-3.2c-.27614 0-.5-.22386-.5-.5V2.66669c0-.27614.22386-.5.5-.5s.5.22386.5.5v2.062C2.65321 3.43414 4.38427.94 7.83996.94 12.1529.94 14.9 4.4804 14.9 8s-2.7471 7.06-7.06004 7.06c-2.06413 0-3.78197-.8166-5.00507-2.0611-.65498-.6664-1.1666-1.4539-1.51543-2.3015-.10509-.2553.01672-.5475.27209-.6526.25536-.10511.54756.0167.65266.2721.30115.7317.74213 1.4095 1.3039 1.9811 1.04262 1.0609 2.5065 1.762 4.29185 1.762C11.5302 14.06 13.9 11.0404 13.9 8" clip-rule="evenodd"/></svg>
