<svg width="16" height="16" viewBox="0 0 16 16" fill="none" xmlns="http://www.w3.org/2000/svg">
<path fill-rule="evenodd" clip-rule="evenodd" d="M5 4V4.5H3.67525C3.03555 4.5 2.49908 4.98296 2.43212 5.61914L1.59001 13.6191C1.51232 14.3572 2.09101 15 2.83314 15H13.167C13.9091 15 14.4878 14.3572 14.4101 13.6191L13.568 5.61914C13.501 4.98296 12.9646 4.5 12.3249 4.5H11V4C11 2.34315 9.65686 1 8 1C6.34315 1 5 2.34315 5 4ZM8 2C6.89543 2 6 2.89543 6 4V4.5H10V4C10 2.89543 9.10457 2 8 2ZM6 7.5C6 8.60457 6.89543 9.5 8 9.5C9.10457 9.5 10 8.60457 10 7.5V7C10 6.72386 10.2239 6.5 10.5 6.5C10.7761 6.5 11 6.72386 11 7V7.5C11 9.15685 9.65686 10.5 8 10.5C6.34315 10.5 5 9.15685 5 7.5V7C5 6.72386 5.22386 6.5 5.5 6.5C5.77614 6.5 6 6.72386 6 7V7.5Z" fill="currentColor"/>
</svg>
