<svg clip-rule="evenodd" fill-rule="evenodd" height="170mm" image-rendering="optimizeQuality" shape-rendering="geometricPrecision" text-rendering="geometricPrecision" viewBox="0 0 170 170" width="170mm" xmlns="http://www.w3.org/2000/svg"><path d="m170 170v-170h-170v170z" fill="#da2427"/><path d="m107.826 113.256 43.193.003v-16.194c0-23.91-19.27-43.297-43.173-43.297h-.02zm-39.733-40.849h-3.884v-15.305h-5.623v-3.288h15.13v3.288h-5.623zm10.515-8.34v8.34h-3.884v-18.593h3.884v7.047h7.246v-7.047h3.887v18.593h-3.887v-8.34zm26.676-6.965h-9.771v3.912h8.604v3.286h-8.604v4.818h9.793v3.288h-13.411v-18.592h13.389zm-73.005 17.142h3.631v18.59h-3.887l-7.586-13.256h-.055v13.257h-3.625v-18.591h4.088l7.382 12.946h.052zm14.471 15.795c2.096 0 5.044-1.295 5.044-6.5 0-5.202-2.949-6.502-5.045-6.502s-5.054 1.3-5.054 6.502c0 5.205 2.958 6.5 5.054 6.5zm0-16.29c2.458 0 8.927 1.064 8.927 9.79 0 8.724-6.47 9.788-8.928 9.788-2.464 0-8.938-1.064-8.938-9.788 0-8.726 6.474-9.79 8.938-9.79zm36.5 19.086h-3.888v-15.305h-5.62v-3.286h15.12v3.286h-5.612zm10.89-8.335v8.335h-3.88v-18.591h3.88v7.04h7.25v-7.04h3.894v18.59h-3.894v-8.334zm-44.297 28.762h-3.884v-18.592h13.23v3.29h-9.346v4.195h8.185v3.291h-8.185zm13.446-7.042h4.733l-2.303-7.355h-.05zm-2.335 7.042h-4.091l6.633-18.592h4.48l6.547 18.592h-4.223l-1.19-3.833h-6.858zm25.499-12.506c-.304-1.113-.907-3.21-4.12-3.21-1.863 0-4.61 1.242-4.61 6.496 0 3.343 1.321 6.349 4.61 6.349 2.154 0 3.654-1.22 4.12-3.496h3.881c-.774 4.038-3.412 6.86-8.076 6.86-4.946 0-8.497-3.336-8.497-9.762 0-6.499 3.755-9.814 8.552-9.814 5.566 0 7.814 3.834 8.02 6.577zm18.831-2.796h-9.771v3.907h8.604v3.29h-8.604v4.817h9.793v3.288h-13.411v-18.592h13.389zm-39.352-15.56c2.016 0 2.997-.7 2.997-2.535 0-.978-.44-2.425-2.714-2.425h-4.831v4.96zm-8.35-8.166h9.384c4.933 0 5.834 3.642 5.834 5.249 0 2.037-1.034 3.795-2.867 4.416 1.526.671 2.355 1.238 2.355 4.7 0 2.714 0 3.385.825 3.697v.488h-4.295c-.256-.877-.407-1.836-.407-3.745 0-2.532-.152-3.515-3.026-3.515h-4.001v7.26h-3.802z" fill="#fff"/><g fill-rule="nonzero"><path d="m107.826 72.89v.787h-.393v-.787zm1.944.791v-.001l-1.944-.003v-.787l1.944.003zm23.553 22.773h-.787l-.03-1.174-.088-1.156-.145-1.14-.2-1.12-.253-1.103-.308-1.08-.358-1.058-.407-1.034-.456-1.008-.502-.982-.548-.954-.593-.923-.635-.893-.675-.862-.716-.825-.754-.792-.79-.753-.826-.716-.86-.677-.893-.634-.923-.593-.954-.549-.982-.502-1.007-.456-1.035-.407-1.058-.359-1.079-.307-1.102-.254-1.12-.2-1.14-.145-1.155-.088-1.174-.029v-.79l1.21.032 1.197.091 1.179.15 1.16.207 1.14.264 1.119.317 1.094.37 1.07.423 1.044.471 1.015.521.985.567.957.612.923.658.89.7.855.74.818.78.78.817.74.857.7.889.656.923.612.957.566.986.521 1.016.472 1.045.422 1.07.37 1.095.317 1.118.263 1.14.209 1.16.148 1.18.091 1.196zm-.786 16.805v-16.805h.786v16.805zm0 0h.787v.394h-.787zm-15.257-.003h.787v.393h-.787zm-.005-13.014h.789l.003 13.014h-.787l-.003-13.014zm-6.146-6.145v-.787l.355.009.352.026.348.043.342.063.335.077.33.093.324.11.314.124.308.139.299.153.29.167.282.18.272.193.26.206.253.218.241.23.23.24.217.253.207.261.193.272.18.282.166.29.153.298.14.308.124.314.109.322.093.33.077.335.062.342.043.347.027.352.01.355h-.79l-.007-.318-.023-.311-.04-.307-.053-.302-.069-.298-.083-.29-.097-.285-.11-.28-.122-.271-.135-.265-.149-.259-.16-.248-.172-.241-.182-.233-.193-.222-.204-.213-.213-.205-.222-.193-.233-.182-.241-.171-.249-.161-.258-.148-.266-.136-.27-.123-.281-.11-.284-.096-.292-.084-.298-.068-.302-.053-.308-.04-.312-.024zm-3.304-.776 3.304-.011v.787l-3.304.01zm0 0v.787h-.393v-.787z" fill="#da2427"/><path d="m39.495 109.32.198.197v2.393h-.395v-2.393zm-.197.197v-.197h.197zm1.244.198h-1.047v-.395h1.047zm1.041.435h-.395v-.029l-.001-.028-.003-.026-.003-.025-.004-.024-.006-.022-.005-.02-.007-.02-.007-.017-.01-.017-.008-.016-.01-.014-.01-.014-.013-.014-.011-.012-.016-.013-.014-.012-.019-.013-.02-.011-.022-.012-.023-.01-.026-.01-.03-.01-.03-.01-.034-.007-.038-.008-.039-.006-.042-.006-.044-.004-.047-.003-.051-.002h-.053v-.395l.062.001.06.003.06.003.057.006.055.007.053.009.05.01.05.012.049.013.046.016.045.018.043.02.041.02.04.024.036.025.037.028.032.029.033.033.028.033.026.034.025.037.021.037.019.038.016.04.014.04.012.041.01.041.008.042.006.041.004.043.002.043zm-.945.852v-.395l-.004.001.035-.001.032-.003.034-.002.03-.004.03-.005.03-.005.028-.006.027-.007.025-.008.025-.008.023-.01.021-.01.021-.01.02-.011.018-.012.016-.012.017-.013.014-.014.014-.014.012-.015.012-.016.011-.016.01-.019.01-.019.008-.02.008-.024.007-.023.005-.026.005-.028.004-.03.002-.031v-.036h.395l-.002.051-.003.051-.006.05-.008.048-.01.047-.013.046-.015.043-.018.043-.02.042-.023.038-.024.038-.026.036-.03.034-.03.031-.032.03-.032.027-.036.026-.035.023-.037.02-.037.02-.04.019-.04.014-.04.015-.04.012-.042.01-.042.01-.042.008-.043.006-.044.005-.043.005-.044.002-.044.001zm.004 0h-.038zm-1.147-.395h1.143v.395h-1.143zm1.684 1.384-.698-1.07.33-.215.698 1.07z" fill="#fff"/><path d="m37.936 110.715h-.395l.004-.14.011-.14.017-.137.025-.135.03-.133.037-.13.043-.128.05-.125.055-.12.06-.12.067-.114.07-.112.077-.108.082-.103.086-.1.09-.095.096-.09.1-.087.103-.082.108-.076.112-.071.114-.067.12-.06.12-.055.125-.05.128-.043.13-.036.132-.03.136-.026.137-.017.14-.01.14-.004v.394l-.122.003-.12.009-.117.015-.115.02-.114.027-.111.032-.11.037-.106.041-.104.047-.1.053-.1.056-.095.061-.092.066-.088.07-.086.073-.081.079-.079.081-.073.085-.07.09-.066.091-.061.095-.057.1-.052.1-.047.104-.042.106-.037.11-.032.111-.026.114-.02.115-.015.118-.01.12zm2.35 2.35v.394l-.141-.004-.14-.01-.137-.017-.135-.025-.133-.03-.13-.037-.127-.043-.125-.05-.121-.055-.12-.06-.114-.066-.111-.071-.108-.077-.103-.081-.1-.086-.095-.09-.091-.096-.086-.1-.081-.103-.078-.108-.07-.111-.067-.115-.06-.119-.055-.121-.05-.125-.043-.128-.037-.13-.03-.133-.025-.135-.017-.138-.01-.14-.005-.14h.395l.003.122.009.12.015.117.02.117.026.113.032.112.037.109.042.106.047.105.053.1.056.099.061.095.065.092.07.09.074.084.078.081.082.078.085.074.09.07.091.065.095.062.099.055.1.053.105.047.106.042.11.036.11.032.115.026.115.02.117.016.12.009.121.003zm2.349-2.35h.395l-.005.14-.01.14-.017.138-.025.135-.03.133-.037.13-.043.128-.048.125-.056.121-.06.12-.066.114-.07.11-.077.109-.081.103-.086.1-.09.095-.096.09-.1.087-.103.08-.107.078-.112.07-.115.067-.119.06-.121.055-.125.05-.128.042-.13.037-.134.03-.135.026-.138.016-.14.011-.14.004v-.395l.121-.002.12-.01.118-.015.117-.02.113-.026.112-.032.11-.037.106-.041.105-.047.1-.053.1-.055.094-.062.092-.065.088-.07.086-.074.081-.078.078-.081.074-.085.07-.09.064-.09.062-.096.056-.099.052-.1.046-.105.042-.106.037-.11.031-.111.027-.113.02-.117.015-.118.01-.119zm-2.35-2.35v-.394l.142.004.14.01.137.017.135.025.134.03.13.037.128.044.125.049.121.055.12.06.114.067.112.07.107.078.104.08.099.087.095.091.09.096.087.1.081.103.076.107.071.112.067.115.06.118.054.121.05.125.042.128.038.13.03.133.024.135.017.137.01.14.005.14h-.395l-.003-.122-.009-.12-.015-.116-.02-.116-.027-.114-.03-.111-.038-.11-.041-.106-.047-.104-.052-.102-.056-.098-.062-.095-.065-.093-.07-.088-.073-.086-.078-.081-.081-.077-.086-.074-.088-.07-.092-.065-.095-.062-.099-.056-.1-.052-.105-.048-.106-.041-.11-.037-.111-.032-.114-.026-.116-.02-.118-.016-.12-.01-.122-.002z" fill="#fff"/></g></svg>