<svg xmlns="http://www.w3.org/2000/svg" xml:space="preserve" viewBox="0 0 608 624"><path d="M257.5642 183.62387c10.73518-21.6205 21.31477-42.89873 31.8754-64.1864 2.43879-4.91603 4.81144-9.8649 7.21702-14.79741.64593-1.32442.98874-3.07191 2.76977-3.23405 2.10706-.1918 2.65988 1.69148 3.38815 3.1458 6.55576 13.09145 13.16437 26.15725 19.61017 39.30279 12.08805 24.65218 23.97086 49.40541 36.1345 74.02002 16.7268 33.8487 33.66528 67.59273 50.45513 101.41035 11.16053 22.47925 22.26984 44.98429 33.31095 67.5224 12.36972 25.25028 24.63165 50.5534 36.9534 75.82721 2.03991 4.18411 4.17321 8.3227 6.21383 12.50647 1.90393 3.90357 1.2395 5.00665-3.17825 5.16968-2.66281.09827-5.33258-.00702-7.99902.00998-28.66028.18292-57.32044.39123-85.98084.54715-8.15588.04437-16.29816-.95624-24.47308-.19821-2.64936.24563-4.65882-.90744-5.95758-3.57157-11.0709-22.70913-22.2113-45.38464-33.40357-68.03433-7.96087-16.11035-16.07147-32.14664-24.04776-48.24945-10.10891-20.40839-20.18103-40.8352-30.21087-61.28256-10.8389-22.09665-21.59067-44.23603-32.43657-66.32921-1.39498-2.84157-1.9846-5.42377-.44101-8.5073 6.77316-13.5305 13.37428-27.14713 20.20024-41.07136M237.24628 431.81308c-1.3453 28.61194-24.4268 52.65018-52.42572 57.81024-32.33727 5.95963-60.57309-14.4126-69.8688-36.23022-15.59466-36.6016 2.4058-78.30615 41.301-88.65128 39.63489-10.5419 74.45119 14.74963 80.7072 52.12878.78774 4.70667.22788 9.63883.28632 14.94248"/></svg>
